G04 #@! TF.FileFunction,Soldermask,Top*
%FSLAX46Y46*%
G04 Gerber Fmt 4.6, Leading zero omitted, Abs format (unit mm)*
G04 Created by KiCad (PCBNEW 4.0.5-e0-6337~49~ubuntu16.04.1) date Fri Feb 10 02:02:51 2017*
%MOMM*%
%LPD*%
G01*
G04 APERTURE LIST*
%ADD10C,0.100000*%
%ADD11C,1.900000*%
%ADD12C,2.100000*%
%ADD13O,2.100000X2.100000*%
%ADD14R,1.900000X1.700000*%
%ADD15R,1.700000X1.900000*%
%ADD16R,1.650000X1.900000*%
%ADD17R,1.900000X1.650000*%
%ADD18R,4.360000X4.360000*%
%ADD19R,1.300000X1.700000*%
%ADD20C,1.300000*%
%ADD21R,2.200000X1.150000*%
%ADD22R,2.200000X1.000000*%
%ADD23C,3.200000*%
G04 APERTURE END LIST*
D10*
D11*
X21971000Y-34163000D03*
X21590000Y-36322000D03*
X6477000Y-35433000D03*
D12*
X21844000Y-4953000D03*
D13*
X19304000Y-5207000D03*
X16764000Y-4953000D03*
X14224000Y-5207000D03*
X11684000Y-4953000D03*
X9144000Y-5207000D03*
X6604000Y-4953000D03*
D14*
X23368000Y-28448000D03*
X20668000Y-28448000D03*
D15*
X23368000Y-17686000D03*
X23368000Y-14986000D03*
D16*
X23368000Y-20828000D03*
X23368000Y-23328000D03*
D17*
X23368000Y-11430000D03*
X20868000Y-11430000D03*
D18*
X10430000Y-20052000D03*
D14*
X23368000Y-9652000D03*
X20668000Y-9652000D03*
D17*
X23368000Y-30464000D03*
X20868000Y-30464000D03*
D19*
X28000000Y-32150000D03*
X28000000Y-28450000D03*
D20*
X26550000Y-28175000D03*
X26550000Y-32425000D03*
D21*
X25650000Y-31525000D03*
D22*
X25650000Y-30300000D03*
D21*
X25650000Y-29075000D03*
D19*
X28004000Y-21344500D03*
X28004000Y-17644500D03*
D20*
X26554000Y-17369500D03*
X26554000Y-21619500D03*
D21*
X25654000Y-20719500D03*
D22*
X25654000Y-19494500D03*
D21*
X25654000Y-18269500D03*
D19*
X28004000Y-10486000D03*
X28004000Y-6786000D03*
D20*
X26554000Y-6511000D03*
X26554000Y-10761000D03*
D21*
X25654000Y-9861000D03*
D22*
X25654000Y-8636000D03*
D21*
X25654000Y-7411000D03*
D23*
X25600000Y-35900000D03*
X3000000Y-35900000D03*
X3000000Y-2900000D03*
X25600000Y-2900000D03*
M02*
