G04 #@! TF.FileFunction,Copper,L2,Bot,Signal*
%FSLAX46Y46*%
G04 Gerber Fmt 4.6, Leading zero omitted, Abs format (unit mm)*
G04 Created by KiCad (PCBNEW 4.0.5-e0-6337~49~ubuntu16.04.1) date Fri Feb 10 02:02:51 2017*
%MOMM*%
%LPD*%
G01*
G04 APERTURE LIST*
%ADD10C,0.100000*%
%ADD11C,0.300000*%
%ADD12C,1.500000*%
%ADD13R,1.500000X1.300000*%
%ADD14R,1.200000X1.200000*%
%ADD15C,1.700000*%
%ADD16O,1.700000X1.700000*%
%ADD17R,1.800000X2.000000*%
%ADD18R,1.500000X1.250000*%
%ADD19R,1.300000X1.500000*%
%ADD20R,1.250000X1.500000*%
%ADD21R,1.200000X0.600000*%
%ADD22R,0.600000X1.200000*%
%ADD23R,0.300000X1.000000*%
%ADD24R,2.000000X1.300000*%
%ADD25C,3.700000*%
%ADD26C,0.900000*%
%ADD27C,0.685800*%
%ADD28C,0.250000*%
%ADD29C,0.254000*%
G04 APERTURE END LIST*
D10*
D11*
X3648571Y-15930000D02*
X2934286Y-15430000D01*
X3648571Y-15072857D02*
X2148571Y-15072857D01*
X2148571Y-15644285D01*
X2220000Y-15787143D01*
X2291429Y-15858571D01*
X2434286Y-15930000D01*
X2648571Y-15930000D01*
X2791429Y-15858571D01*
X2862857Y-15787143D01*
X2934286Y-15644285D01*
X2934286Y-15072857D01*
X3648571Y-16572857D02*
X2148571Y-16572857D01*
X3220000Y-17072857D01*
X2148571Y-17572857D01*
X3648571Y-17572857D01*
X3648571Y-18287143D02*
X2148571Y-18287143D01*
D12*
X21971000Y-34163000D03*
X21590000Y-36322000D03*
X6477000Y-35433000D03*
D13*
X4666000Y-8890000D03*
X7366000Y-8890000D03*
X7300000Y-13500000D03*
X10000000Y-13500000D03*
D14*
X2794000Y-8890000D03*
X2794000Y-11090000D03*
D15*
X21844000Y-4953000D03*
D16*
X19304000Y-5207000D03*
X16764000Y-4953000D03*
X14224000Y-5207000D03*
X11684000Y-4953000D03*
X9144000Y-5207000D03*
X6604000Y-4953000D03*
D13*
X21228100Y-30162500D03*
X23928100Y-30162500D03*
D17*
X18542000Y-18034000D03*
X18542000Y-14534000D03*
D18*
X20574000Y-14224000D03*
X23074000Y-14224000D03*
X20574000Y-18288000D03*
X23074000Y-18288000D03*
D19*
X25654000Y-15146000D03*
X25654000Y-12446000D03*
X14732000Y-9956800D03*
X14732000Y-12656800D03*
D20*
X5334000Y-22860000D03*
X5334000Y-25360000D03*
D18*
X22098000Y-23876000D03*
X24598000Y-23876000D03*
D20*
X18542000Y-12446000D03*
X18542000Y-9946000D03*
X3302000Y-22860000D03*
X3302000Y-25360000D03*
D21*
X16136000Y-17170000D03*
X16136000Y-17970000D03*
X16136000Y-18770000D03*
X16136000Y-19570000D03*
X16136000Y-20370000D03*
X16136000Y-21170000D03*
X16136000Y-21970000D03*
X16136000Y-22770000D03*
D22*
X14686000Y-24220000D03*
X13886000Y-24220000D03*
X13086000Y-24220000D03*
X12286000Y-24220000D03*
X11486000Y-24220000D03*
X10686000Y-24220000D03*
X9886000Y-24220000D03*
X9086000Y-24220000D03*
D21*
X7636000Y-22770000D03*
X7636000Y-21970000D03*
X7636000Y-21170000D03*
X7636000Y-20370000D03*
X7636000Y-19570000D03*
X7636000Y-18770000D03*
X7636000Y-17970000D03*
X7636000Y-17170000D03*
D22*
X9086000Y-15720000D03*
X9886000Y-15720000D03*
X10686000Y-15720000D03*
X11486000Y-15720000D03*
X12286000Y-15720000D03*
X13086000Y-15720000D03*
X13886000Y-15720000D03*
X14686000Y-15720000D03*
D18*
X22098000Y-21844000D03*
X24598000Y-21844000D03*
D20*
X13970000Y-29464000D03*
X13970000Y-26964000D03*
X18034000Y-29464000D03*
X18034000Y-26964000D03*
X16002000Y-29464000D03*
X16002000Y-26964000D03*
D23*
X14550000Y-32950000D03*
X15050000Y-32950000D03*
X15550000Y-32950000D03*
X16050000Y-32950000D03*
X16550000Y-32950000D03*
X14050000Y-32950000D03*
X13550000Y-32950000D03*
X13050000Y-32950000D03*
X12550000Y-32950000D03*
X12050000Y-32950000D03*
D24*
X18850000Y-35650000D03*
X9750000Y-35650000D03*
D18*
X22098000Y-25908000D03*
X24598000Y-25908000D03*
D25*
X10430000Y-9497000D03*
X10430000Y-30607000D03*
D19*
X5715000Y-29445000D03*
X5715000Y-32145000D03*
D26*
X26550000Y-28175000D03*
X26550000Y-32425000D03*
X26554000Y-17369500D03*
X26554000Y-21619500D03*
X26554000Y-6511000D03*
X26554000Y-10761000D03*
D27*
X7620000Y-37592000D03*
X18034000Y-23368000D03*
X20447000Y-37592000D03*
X7620000Y-31242000D03*
X7620000Y-32766000D03*
X9144000Y-32766000D03*
X20320000Y-31750000D03*
X17780000Y-31750000D03*
X19050000Y-31750000D03*
X11430000Y-26924000D03*
X9906000Y-26924000D03*
X19304000Y-16256000D03*
X20320000Y-16256000D03*
X21336000Y-16256000D03*
X22352000Y-16256000D03*
X14732000Y-19050000D03*
X18034000Y-21082000D03*
X20066000Y-21970000D03*
X16256000Y-24638000D03*
D28*
X7620000Y-36530000D02*
X7620000Y-37592000D01*
X9750000Y-35650000D02*
X8500000Y-35650000D01*
X8500000Y-35650000D02*
X7620000Y-36530000D01*
X9750000Y-35650000D02*
X9400000Y-35650000D01*
X9400000Y-35650000D02*
X9236000Y-35814000D01*
X20193000Y-35687000D02*
X20447000Y-35941000D01*
X20447000Y-35941000D02*
X20447000Y-37592000D01*
X19237000Y-35687000D02*
X20193000Y-35687000D01*
X18850000Y-35650000D02*
X19200000Y-35650000D01*
X19200000Y-35650000D02*
X19237000Y-35687000D01*
X12341000Y-33909000D02*
X11303000Y-33909000D01*
X11938000Y-33812000D02*
X11333000Y-33812000D01*
X12050000Y-32950000D02*
X9328000Y-32950000D01*
X9328000Y-32950000D02*
X9144000Y-32766000D01*
X7620000Y-32766000D02*
X7620000Y-31242000D01*
X9144000Y-32766000D02*
X7620000Y-32766000D01*
X7766000Y-32766000D02*
X7620000Y-32766000D01*
X22352000Y-16256000D02*
X21336000Y-16256000D01*
X21628100Y-30162500D02*
X21628100Y-30441900D01*
X21628100Y-30441900D02*
X20320000Y-31750000D01*
X19050000Y-31750000D02*
X17780000Y-31750000D01*
X20320000Y-31750000D02*
X19050000Y-31750000D01*
X9906000Y-26924000D02*
X11430000Y-26924000D01*
X9086000Y-24220000D02*
X9086000Y-26104000D01*
X9086000Y-26104000D02*
X9606001Y-26624001D01*
X9606001Y-26624001D02*
X9906000Y-26924000D01*
X20320000Y-16256000D02*
X19304000Y-16256000D01*
X21336000Y-16256000D02*
X20320000Y-16256000D01*
X23074000Y-18288000D02*
X23074000Y-16978000D01*
X23074000Y-16978000D02*
X22352000Y-16256000D01*
X21628100Y-30162500D02*
X21628100Y-30462500D01*
X12550000Y-32950000D02*
X12550000Y-33700000D01*
X12550000Y-33700000D02*
X12341000Y-33909000D01*
X12550000Y-32950000D02*
X12050000Y-32950000D01*
X12050000Y-32950000D02*
X12050000Y-33700000D01*
X12050000Y-33700000D02*
X11938000Y-33812000D01*
X12050000Y-32950000D02*
X11754000Y-32950000D01*
X11754000Y-32950000D02*
X11176000Y-33528000D01*
X23300000Y-21267678D02*
X23300000Y-22799000D01*
X23300000Y-22799000D02*
X22223000Y-23876000D01*
X22223000Y-23876000D02*
X22098000Y-23876000D01*
X25654000Y-15146000D02*
X25654000Y-18913678D01*
X25654000Y-18913678D02*
X23300000Y-21267678D01*
X22098000Y-23876000D02*
X22098000Y-25908000D01*
X20828000Y-21082000D02*
X20828000Y-22606000D01*
X20828000Y-22606000D02*
X20828000Y-23114000D01*
X22098000Y-23876000D02*
X21098000Y-23876000D01*
X21098000Y-23876000D02*
X20828000Y-23606000D01*
X20828000Y-23606000D02*
X20828000Y-22606000D01*
X20116000Y-20370000D02*
X20828000Y-21082000D01*
X16136000Y-20370000D02*
X19304000Y-20370000D01*
X19304000Y-20370000D02*
X20116000Y-20370000D01*
X14478000Y-20370000D02*
X13462000Y-19354000D01*
X13462000Y-19354000D02*
X13462000Y-17907000D01*
X13462000Y-17907000D02*
X14199000Y-17170000D01*
X14199000Y-17170000D02*
X16136000Y-17170000D01*
X16136000Y-20370000D02*
X14478000Y-20370000D01*
X14478000Y-20370000D02*
X13462000Y-20370000D01*
X10430000Y-9497000D02*
X14224000Y-5703000D01*
X14224000Y-5703000D02*
X14224000Y-5207000D01*
X8486000Y-22770000D02*
X10428000Y-20828000D01*
X13462000Y-20370000D02*
X10886000Y-20370000D01*
X10428000Y-20828000D02*
X10682000Y-20574000D01*
X10886000Y-20370000D02*
X10428000Y-20828000D01*
X25654000Y-12446000D02*
X18542000Y-12446000D01*
X16136000Y-17170000D02*
X16136000Y-13977000D01*
X16136000Y-13977000D02*
X17667000Y-12446000D01*
X17667000Y-12446000D02*
X18542000Y-12446000D01*
X18034000Y-29464000D02*
X16002000Y-29464000D01*
X13550000Y-32950000D02*
X14050000Y-32950000D01*
X13970000Y-29464000D02*
X16002000Y-29464000D01*
X13335000Y-32950000D02*
X13335000Y-31099000D01*
X13335000Y-31099000D02*
X13970000Y-30464000D01*
X13970000Y-30464000D02*
X13970000Y-29464000D01*
X13335000Y-32950000D02*
X13050000Y-32950000D01*
X13550000Y-32950000D02*
X13335000Y-32950000D01*
X14050000Y-32950000D02*
X14050000Y-31541000D01*
X14050000Y-31541000D02*
X16002000Y-29589000D01*
X16002000Y-29589000D02*
X16002000Y-29464000D01*
X16002000Y-29295000D02*
X16002000Y-29170000D01*
X5334000Y-22860000D02*
X7546000Y-22860000D01*
X7546000Y-22860000D02*
X7636000Y-22770000D01*
X7636000Y-22770000D02*
X8486000Y-22770000D01*
X7636000Y-22770000D02*
X7636000Y-27813000D01*
X3302000Y-22860000D02*
X5334000Y-22860000D01*
X15450998Y-20370000D02*
X15290000Y-20370000D01*
X16129000Y-17163000D02*
X16136000Y-17170000D01*
X15450998Y-20370000D02*
X16136000Y-20370000D01*
X14550000Y-31678000D02*
X15240000Y-30988000D01*
X15240000Y-30988000D02*
X16635000Y-30988000D01*
X16635000Y-30988000D02*
X18034000Y-29589000D01*
X18034000Y-29589000D02*
X18034000Y-29464000D01*
X14550000Y-32131000D02*
X14550000Y-31678000D01*
X18034000Y-30097000D02*
X18034000Y-29972000D01*
X14550000Y-32131000D02*
X14550000Y-31806410D01*
X14550000Y-32950000D02*
X14550000Y-32131000D01*
X13970000Y-29464000D02*
X11573000Y-29464000D01*
X11573000Y-29464000D02*
X10430000Y-30607000D01*
X7636000Y-27813000D02*
X10430000Y-30607000D01*
X15125001Y-31864999D02*
X15300000Y-31690000D01*
X15300000Y-31690000D02*
X15551990Y-31438010D01*
X15050000Y-32950000D02*
X15050000Y-31940000D01*
X15050000Y-31940000D02*
X15300000Y-31690000D01*
X14686000Y-23370000D02*
X14686000Y-24220000D01*
X8128000Y-23692998D02*
X8525999Y-23294999D01*
X19304000Y-28602999D02*
X18796000Y-28094999D01*
X17075990Y-31438010D02*
X17780000Y-30734000D01*
X18796000Y-28094999D02*
X8554409Y-28094999D01*
X15551990Y-31438010D02*
X17075990Y-31438010D01*
X17780000Y-30734000D02*
X19050000Y-30734000D01*
X19050000Y-30734000D02*
X19304000Y-30480000D01*
X19304000Y-30480000D02*
X19304000Y-28602999D01*
X8525999Y-23294999D02*
X14610999Y-23294999D01*
X8554409Y-28094999D02*
X8128000Y-27668590D01*
X8128000Y-27668590D02*
X8128000Y-23692998D01*
X14610999Y-23294999D02*
X14686000Y-23370000D01*
X7636000Y-17970000D02*
X8486000Y-17970000D01*
X8382000Y-16430998D02*
X8382000Y-14886417D01*
X8890000Y-12700000D02*
X9563188Y-12026812D01*
X13804599Y-8481495D02*
X15209966Y-7076128D01*
X8486000Y-17970000D02*
X8561001Y-17894999D01*
X9563188Y-12026812D02*
X11683787Y-12026812D01*
X11683787Y-12026812D02*
X13804599Y-9906000D01*
X8561001Y-17894999D02*
X8561001Y-16609999D01*
X8561001Y-16609999D02*
X8382000Y-16430998D01*
X8382000Y-14886417D02*
X8890000Y-14378417D01*
X17434872Y-7076128D02*
X19304000Y-5207000D01*
X8890000Y-14378417D02*
X8890000Y-12700000D01*
X13804599Y-9906000D02*
X13804599Y-8481495D01*
X15209966Y-7076128D02*
X17434872Y-7076128D01*
X19304000Y-5207000D02*
X18923000Y-5207000D01*
X19050000Y-4927600D02*
X19050000Y-5080000D01*
X13402188Y-8314812D02*
X15914001Y-5802999D01*
X13402188Y-9711812D02*
X13402188Y-8314812D01*
X9396504Y-11624401D02*
X11489599Y-11624401D01*
X8487589Y-12533316D02*
X9396504Y-11624401D01*
X8487589Y-14211733D02*
X8487589Y-12533316D01*
X15914001Y-5802999D02*
X16764000Y-4953000D01*
X7636000Y-15063322D02*
X8487589Y-14211733D01*
X7636000Y-17170000D02*
X7636000Y-15063322D01*
X11489599Y-11624401D02*
X13402188Y-9711812D01*
X18542000Y-18034000D02*
X20320000Y-18034000D01*
X20320000Y-18034000D02*
X20574000Y-18288000D01*
X16136000Y-18770000D02*
X17806000Y-18770000D01*
X17806000Y-18770000D02*
X18542000Y-18034000D01*
X18542000Y-14534000D02*
X20264000Y-14534000D01*
X20264000Y-14534000D02*
X20574000Y-14224000D01*
X17316999Y-15859001D02*
X18542000Y-14634000D01*
X18542000Y-14634000D02*
X18542000Y-14534000D01*
X16136000Y-17970000D02*
X16821002Y-17970000D01*
X16821002Y-17970000D02*
X17316999Y-17474003D01*
X17316999Y-17474003D02*
X17316999Y-15859001D01*
X13886000Y-15720000D02*
X13886000Y-13292000D01*
X13886000Y-13292000D02*
X14732000Y-12446000D01*
X20840000Y-19570000D02*
X22098000Y-20828000D01*
X22098000Y-20828000D02*
X22098000Y-21844000D01*
X16136000Y-19570000D02*
X19812000Y-19570000D01*
X19812000Y-19570000D02*
X20840000Y-19570000D01*
X16136000Y-19570000D02*
X15252000Y-19570000D01*
X15252000Y-19570000D02*
X14732000Y-19050000D01*
X17272000Y-33782000D02*
X17526000Y-33528000D01*
X17526000Y-33528000D02*
X20066000Y-33528000D01*
X20066000Y-33528000D02*
X20574000Y-34036000D01*
X20574000Y-34036000D02*
X20574000Y-35306000D01*
X20574000Y-35306000D02*
X21590000Y-36322000D01*
X17335499Y-33718501D02*
X17272000Y-33782000D01*
X17272000Y-33782000D02*
X17018000Y-34036000D01*
X17018000Y-34036000D02*
X16386000Y-34036000D01*
X16386000Y-34036000D02*
X16050000Y-33700000D01*
X16050000Y-33700000D02*
X16050000Y-32950000D01*
X16361980Y-31888020D02*
X16050000Y-32200000D01*
X22352000Y-31367590D02*
X21219600Y-32499990D01*
X17629970Y-32499990D02*
X17018000Y-31888020D01*
X17018000Y-31888020D02*
X16361980Y-31888020D01*
X21219600Y-32499990D02*
X17629970Y-32499990D01*
X22352000Y-28763094D02*
X22352000Y-31367590D01*
X19477905Y-25888999D02*
X22352000Y-28763094D01*
X12304999Y-25888999D02*
X19477905Y-25888999D01*
X16050000Y-32200000D02*
X16050000Y-32950000D01*
X11486000Y-25070000D02*
X12304999Y-25888999D01*
X11486000Y-24220000D02*
X11486000Y-25070000D01*
X21818660Y-32950000D02*
X21971000Y-33102340D01*
X21971000Y-33102340D02*
X21971000Y-34163000D01*
X21406000Y-32950000D02*
X21818660Y-32950000D01*
X13619987Y-25438989D02*
X19596990Y-25438990D01*
X19596990Y-25438990D02*
X20447000Y-26289000D01*
X22802010Y-28644010D02*
X20447000Y-26289000D01*
X20447000Y-26289000D02*
X21082000Y-26924000D01*
X22802010Y-31553990D02*
X22098000Y-32258000D01*
X22098000Y-32258000D02*
X21406000Y-32950000D01*
X21590000Y-32766000D02*
X22098000Y-32258000D01*
X22802010Y-28956000D02*
X22802010Y-31553990D01*
X22802010Y-28956000D02*
X22802010Y-28644010D01*
X13086000Y-24220000D02*
X13086000Y-24905002D01*
X16950000Y-32950000D02*
X16550000Y-32950000D01*
X13086000Y-24905002D02*
X13619987Y-25438989D01*
X21406000Y-32950000D02*
X16950000Y-32950000D01*
X5715000Y-34671000D02*
X6477000Y-35433000D01*
X5715000Y-32145000D02*
X5715000Y-34671000D01*
X5574000Y-32004000D02*
X5715000Y-32145000D01*
X5715000Y-32345000D02*
X5715000Y-31745000D01*
X15550000Y-32950000D02*
X15550000Y-33700000D01*
X15550000Y-33700000D02*
X14833000Y-34417000D01*
X14833000Y-34417000D02*
X7787000Y-34417000D01*
X7787000Y-34417000D02*
X5715000Y-32345000D01*
X5715000Y-29845000D02*
X5715000Y-29245000D01*
X5715000Y-29245000D02*
X7175500Y-27784500D01*
X7175500Y-27784500D02*
X7175500Y-24975500D01*
X7175500Y-24975500D02*
X6135001Y-23935001D01*
X2159000Y-21844000D02*
X2413000Y-21590000D01*
X6135001Y-23935001D02*
X2416999Y-23935001D01*
X2416999Y-23935001D02*
X2159000Y-23677002D01*
X2159000Y-23677002D02*
X2159000Y-21844000D01*
X2413000Y-21590000D02*
X6223000Y-21590000D01*
X6223000Y-21590000D02*
X6603000Y-21970000D01*
X6603000Y-21970000D02*
X7636000Y-21970000D01*
X16136000Y-21170000D02*
X17946000Y-21170000D01*
X17946000Y-21170000D02*
X18034000Y-21082000D01*
X16136000Y-21970000D02*
X20066000Y-21970000D01*
X16264000Y-22098000D02*
X16136000Y-21970000D01*
X16136000Y-22770000D02*
X16136000Y-24518000D01*
X16136000Y-24518000D02*
X16256000Y-24638000D01*
X5842000Y-7874000D02*
X5842000Y-20226000D01*
X6604000Y-4953000D02*
X6604000Y-6155081D01*
X6604000Y-6155081D02*
X5842000Y-6917081D01*
X5842000Y-6917081D02*
X5842000Y-7874000D01*
X5842000Y-20226000D02*
X6786000Y-21170000D01*
X6786000Y-21170000D02*
X7636000Y-21170000D01*
X6244411Y-19828411D02*
X6244411Y-8128000D01*
X6244411Y-8128000D02*
X6244411Y-8106589D01*
X6244411Y-8106589D02*
X9144000Y-5207000D01*
X6786000Y-20370000D02*
X6244411Y-19828411D01*
X7636000Y-20370000D02*
X6786000Y-20370000D01*
X2794000Y-8890000D02*
X4666000Y-8890000D01*
X7300000Y-13500000D02*
X7300000Y-8956000D01*
X7300000Y-8956000D02*
X7366000Y-8890000D01*
X9886000Y-15720000D02*
X9886000Y-13614000D01*
X9886000Y-13614000D02*
X10000000Y-13500000D01*
D29*
G36*
X8087445Y-577712D02*
X8585456Y-910472D01*
X8918216Y-1408483D01*
X9052762Y-2084889D01*
X9068391Y-2122620D01*
X9078711Y-2174504D01*
X9108101Y-2218490D01*
X9120850Y-2249268D01*
X9144406Y-2272824D01*
X9177559Y-2322441D01*
X9227176Y-2355594D01*
X9246660Y-2375078D01*
X9272118Y-2385623D01*
X9325496Y-2421289D01*
X9388458Y-2433813D01*
X9411038Y-2443166D01*
X9435479Y-2443166D01*
X9500000Y-2456000D01*
X19000000Y-2456000D01*
X19064521Y-2443166D01*
X19088962Y-2443166D01*
X19111543Y-2433813D01*
X19174504Y-2421289D01*
X19227879Y-2385625D01*
X19253340Y-2375079D01*
X19272827Y-2355592D01*
X19322441Y-2322441D01*
X19355593Y-2272825D01*
X19379150Y-2249268D01*
X19391899Y-2218490D01*
X19421289Y-2174504D01*
X19431609Y-2122620D01*
X19447238Y-2084889D01*
X19581784Y-1408483D01*
X19914544Y-910472D01*
X20412555Y-577712D01*
X21024440Y-456000D01*
X25555089Y-456000D01*
X26570128Y-657904D01*
X27392562Y-1207438D01*
X27942096Y-2029872D01*
X28144000Y-3044911D01*
X28144000Y-35955089D01*
X27942096Y-36970128D01*
X27392562Y-37792562D01*
X26570128Y-38342096D01*
X25555089Y-38544000D01*
X21044911Y-38544000D01*
X20412555Y-38418216D01*
X19914544Y-38085456D01*
X19581784Y-37587445D01*
X19452004Y-36935000D01*
X19976309Y-36935000D01*
X20209698Y-36838327D01*
X20388327Y-36659699D01*
X20458853Y-36489434D01*
X20458804Y-36545983D01*
X20630625Y-36961823D01*
X20948503Y-37280256D01*
X21364043Y-37452804D01*
X21813983Y-37453196D01*
X22229823Y-37281375D01*
X22548256Y-36963497D01*
X22720804Y-36547957D01*
X22720975Y-36350936D01*
X23322606Y-36350936D01*
X23668528Y-37188132D01*
X24308499Y-37829221D01*
X25145090Y-38176604D01*
X26050936Y-38177394D01*
X26888132Y-37831472D01*
X27529221Y-37191501D01*
X27876604Y-36354910D01*
X27877394Y-35449064D01*
X27531472Y-34611868D01*
X26891501Y-33970779D01*
X26054910Y-33623396D01*
X25149064Y-33622606D01*
X24311868Y-33968528D01*
X23670779Y-34608499D01*
X23323396Y-35445090D01*
X23322606Y-36350936D01*
X22720975Y-36350936D01*
X22721196Y-36098017D01*
X22549375Y-35682177D01*
X22231497Y-35363744D01*
X22063732Y-35294082D01*
X22194983Y-35294196D01*
X22610823Y-35122375D01*
X22929256Y-34804497D01*
X23101804Y-34388957D01*
X23102196Y-33939017D01*
X22930375Y-33523177D01*
X22612497Y-33204744D01*
X22477000Y-33148480D01*
X22477000Y-33102340D01*
X22438483Y-32908702D01*
X22328796Y-32744544D01*
X22327922Y-32743670D01*
X23159806Y-31911786D01*
X23269493Y-31747628D01*
X23308010Y-31553990D01*
X23308010Y-31447500D01*
X23642350Y-31447500D01*
X23801100Y-31288750D01*
X23801100Y-30289500D01*
X24055100Y-30289500D01*
X24055100Y-31288750D01*
X24213850Y-31447500D01*
X24804409Y-31447500D01*
X25037798Y-31350827D01*
X25216427Y-31172199D01*
X25313100Y-30938810D01*
X25313100Y-30448250D01*
X25154350Y-30289500D01*
X24055100Y-30289500D01*
X23801100Y-30289500D01*
X23781100Y-30289500D01*
X23781100Y-30035500D01*
X23801100Y-30035500D01*
X23801100Y-29036250D01*
X24055100Y-29036250D01*
X24055100Y-30035500D01*
X25154350Y-30035500D01*
X25313100Y-29876750D01*
X25313100Y-29386190D01*
X25216427Y-29152801D01*
X25037798Y-28974173D01*
X24804409Y-28877500D01*
X24213850Y-28877500D01*
X24055100Y-29036250D01*
X23801100Y-29036250D01*
X23642350Y-28877500D01*
X23308010Y-28877500D01*
X23308010Y-28644010D01*
X23269493Y-28450372D01*
X23159806Y-28286214D01*
X21795056Y-26921464D01*
X22848000Y-26921464D01*
X22989190Y-26894897D01*
X23118865Y-26811454D01*
X23205859Y-26684134D01*
X23213000Y-26648870D01*
X23213000Y-26659310D01*
X23309673Y-26892699D01*
X23488302Y-27071327D01*
X23721691Y-27168000D01*
X24312250Y-27168000D01*
X24471000Y-27009250D01*
X24471000Y-26035000D01*
X24725000Y-26035000D01*
X24725000Y-27009250D01*
X24883750Y-27168000D01*
X25474309Y-27168000D01*
X25707698Y-27071327D01*
X25886327Y-26892699D01*
X25983000Y-26659310D01*
X25983000Y-26193750D01*
X25824250Y-26035000D01*
X24725000Y-26035000D01*
X24471000Y-26035000D01*
X24451000Y-26035000D01*
X24451000Y-25781000D01*
X24471000Y-25781000D01*
X24471000Y-24003000D01*
X24725000Y-24003000D01*
X24725000Y-25781000D01*
X25824250Y-25781000D01*
X25983000Y-25622250D01*
X25983000Y-25156690D01*
X25886327Y-24923301D01*
X25855026Y-24892000D01*
X25886327Y-24860699D01*
X25983000Y-24627310D01*
X25983000Y-24161750D01*
X25824250Y-24003000D01*
X24725000Y-24003000D01*
X24471000Y-24003000D01*
X24451000Y-24003000D01*
X24451000Y-23749000D01*
X24471000Y-23749000D01*
X24471000Y-21971000D01*
X24725000Y-21971000D01*
X24725000Y-23749000D01*
X25824250Y-23749000D01*
X25983000Y-23590250D01*
X25983000Y-23124690D01*
X25886327Y-22891301D01*
X25855026Y-22860000D01*
X25886327Y-22828699D01*
X25983000Y-22595310D01*
X25983000Y-22129750D01*
X25824250Y-21971000D01*
X24725000Y-21971000D01*
X24471000Y-21971000D01*
X24451000Y-21971000D01*
X24451000Y-21717000D01*
X24471000Y-21717000D01*
X24471000Y-21697000D01*
X24725000Y-21697000D01*
X24725000Y-21717000D01*
X25824250Y-21717000D01*
X25983000Y-21558250D01*
X25983000Y-21092690D01*
X25886327Y-20859301D01*
X25707698Y-20680673D01*
X25474309Y-20584000D01*
X24883750Y-20584000D01*
X24725002Y-20742748D01*
X24725002Y-20584000D01*
X24699270Y-20584000D01*
X26011796Y-19271474D01*
X26051399Y-19212204D01*
X26121483Y-19107316D01*
X26160000Y-18913678D01*
X26160000Y-16284464D01*
X26304000Y-16284464D01*
X26445190Y-16257897D01*
X26574865Y-16174454D01*
X26661859Y-16047134D01*
X26692464Y-15896000D01*
X26692464Y-14396000D01*
X26665897Y-14254810D01*
X26582454Y-14125135D01*
X26455134Y-14038141D01*
X26304000Y-14007536D01*
X25004000Y-14007536D01*
X24862810Y-14034103D01*
X24765000Y-14097042D01*
X24765000Y-13493823D01*
X24852866Y-13553859D01*
X25004000Y-13584464D01*
X26304000Y-13584464D01*
X26445190Y-13557897D01*
X26574865Y-13474454D01*
X26661859Y-13347134D01*
X26692464Y-13196000D01*
X26692464Y-11696000D01*
X26665897Y-11554810D01*
X26582454Y-11425135D01*
X26455134Y-11338141D01*
X26304000Y-11307536D01*
X25004000Y-11307536D01*
X24862810Y-11334103D01*
X24733135Y-11417546D01*
X24646141Y-11544866D01*
X24615536Y-11696000D01*
X24615536Y-11940000D01*
X19555464Y-11940000D01*
X19555464Y-11696000D01*
X19528897Y-11554810D01*
X19445454Y-11425135D01*
X19318134Y-11338141D01*
X19282870Y-11331000D01*
X19293310Y-11331000D01*
X19526699Y-11234327D01*
X19705327Y-11055698D01*
X19802000Y-10822309D01*
X19802000Y-10231750D01*
X19643250Y-10073000D01*
X18669000Y-10073000D01*
X18669000Y-10093000D01*
X18415000Y-10093000D01*
X18415000Y-10073000D01*
X17440750Y-10073000D01*
X17282000Y-10231750D01*
X17282000Y-10822309D01*
X17378673Y-11055698D01*
X17557301Y-11234327D01*
X17790690Y-11331000D01*
X17792301Y-11331000D01*
X17775810Y-11334103D01*
X17646135Y-11417546D01*
X17559141Y-11544866D01*
X17528536Y-11696000D01*
X17528536Y-11967542D01*
X17473362Y-11978517D01*
X17309204Y-12088204D01*
X15778204Y-13619204D01*
X15668517Y-13783362D01*
X15630000Y-13977000D01*
X15630000Y-16481536D01*
X15606408Y-16481536D01*
X15621000Y-16446309D01*
X15621000Y-16005750D01*
X15462250Y-15847000D01*
X14813000Y-15847000D01*
X14813000Y-15867000D01*
X14574464Y-15867000D01*
X14574464Y-15120000D01*
X14559000Y-15037817D01*
X14559000Y-14643750D01*
X14813000Y-14643750D01*
X14813000Y-15593000D01*
X15462250Y-15593000D01*
X15621000Y-15434250D01*
X15621000Y-14993691D01*
X15524327Y-14760302D01*
X15345699Y-14581673D01*
X15112310Y-14485000D01*
X14971750Y-14485000D01*
X14813000Y-14643750D01*
X14559000Y-14643750D01*
X14400250Y-14485000D01*
X14392000Y-14485000D01*
X14392000Y-13795264D01*
X15382000Y-13795264D01*
X15523190Y-13768697D01*
X15652865Y-13685254D01*
X15739859Y-13557934D01*
X15770464Y-13406800D01*
X15770464Y-11906800D01*
X15743897Y-11765610D01*
X15660454Y-11635935D01*
X15533134Y-11548941D01*
X15382000Y-11518336D01*
X14082000Y-11518336D01*
X13940810Y-11544903D01*
X13811135Y-11628346D01*
X13724141Y-11755666D01*
X13693536Y-11906800D01*
X13693536Y-12768872D01*
X13528204Y-12934204D01*
X13418517Y-13098362D01*
X13380000Y-13292000D01*
X13380000Y-14731536D01*
X12786000Y-14731536D01*
X12682330Y-14751043D01*
X12586000Y-14731536D01*
X11986000Y-14731536D01*
X11882330Y-14751043D01*
X11786000Y-14731536D01*
X11186000Y-14731536D01*
X11082330Y-14751043D01*
X10986000Y-14731536D01*
X10392000Y-14731536D01*
X10392000Y-14538464D01*
X10750000Y-14538464D01*
X10891190Y-14511897D01*
X11020865Y-14428454D01*
X11107859Y-14301134D01*
X11138464Y-14150000D01*
X11138464Y-12850000D01*
X11111897Y-12708810D01*
X11028454Y-12579135D01*
X10960658Y-12532812D01*
X11683787Y-12532812D01*
X11877425Y-12494295D01*
X12041583Y-12384608D01*
X13489786Y-10936405D01*
X13543673Y-11066498D01*
X13722301Y-11245127D01*
X13955690Y-11341800D01*
X14446250Y-11341800D01*
X14605000Y-11183050D01*
X14605000Y-10083800D01*
X14859000Y-10083800D01*
X14859000Y-11183050D01*
X15017750Y-11341800D01*
X15508310Y-11341800D01*
X15741699Y-11245127D01*
X15920327Y-11066498D01*
X16017000Y-10833109D01*
X16017000Y-10242550D01*
X15858250Y-10083800D01*
X14859000Y-10083800D01*
X14605000Y-10083800D01*
X14585000Y-10083800D01*
X14585000Y-9829800D01*
X14605000Y-9829800D01*
X14605000Y-8730550D01*
X14859000Y-8730550D01*
X14859000Y-9829800D01*
X15858250Y-9829800D01*
X16017000Y-9671050D01*
X16017000Y-9080491D01*
X16012527Y-9069691D01*
X17282000Y-9069691D01*
X17282000Y-9660250D01*
X17440750Y-9819000D01*
X18415000Y-9819000D01*
X18415000Y-8719750D01*
X18669000Y-8719750D01*
X18669000Y-9819000D01*
X19643250Y-9819000D01*
X19802000Y-9660250D01*
X19802000Y-9069691D01*
X19705327Y-8836302D01*
X19526699Y-8657673D01*
X19293310Y-8561000D01*
X18827750Y-8561000D01*
X18669000Y-8719750D01*
X18415000Y-8719750D01*
X18256250Y-8561000D01*
X17790690Y-8561000D01*
X17557301Y-8657673D01*
X17378673Y-8836302D01*
X17282000Y-9069691D01*
X16012527Y-9069691D01*
X15920327Y-8847102D01*
X15741699Y-8668473D01*
X15508310Y-8571800D01*
X15017750Y-8571800D01*
X14859000Y-8730550D01*
X14605000Y-8730550D01*
X14446250Y-8571800D01*
X14429886Y-8571800D01*
X15419558Y-7582128D01*
X17434872Y-7582128D01*
X17628510Y-7543611D01*
X17792668Y-7433924D01*
X18853988Y-6372604D01*
X19304000Y-6462117D01*
X19775083Y-6368413D01*
X20174448Y-6101565D01*
X20441296Y-5702200D01*
X20535000Y-5231117D01*
X20535000Y-5196787D01*
X20612787Y-5196787D01*
X20799800Y-5649395D01*
X21145784Y-5995983D01*
X21598065Y-6183786D01*
X22087787Y-6184213D01*
X22540395Y-5997200D01*
X22886983Y-5651216D01*
X23074786Y-5198935D01*
X23075213Y-4709213D01*
X22888200Y-4256605D01*
X22542216Y-3910017D01*
X22089935Y-3722214D01*
X21600213Y-3721787D01*
X21147605Y-3908800D01*
X20801017Y-4254784D01*
X20613214Y-4707065D01*
X20612787Y-5196787D01*
X20535000Y-5196787D01*
X20535000Y-5182883D01*
X20441296Y-4711800D01*
X20174448Y-4312435D01*
X19775083Y-4045587D01*
X19304000Y-3951883D01*
X18832917Y-4045587D01*
X18433552Y-4312435D01*
X18166704Y-4711800D01*
X18073000Y-5182883D01*
X18073000Y-5231117D01*
X18154510Y-5640898D01*
X17225280Y-6570128D01*
X15862464Y-6570128D01*
X16313988Y-6118604D01*
X16764000Y-6208117D01*
X17235083Y-6114413D01*
X17634448Y-5847565D01*
X17901296Y-5448200D01*
X17995000Y-4977117D01*
X17995000Y-4928883D01*
X17901296Y-4457800D01*
X17634448Y-4058435D01*
X17235083Y-3791587D01*
X16764000Y-3697883D01*
X16292917Y-3791587D01*
X15893552Y-4058435D01*
X15626704Y-4457800D01*
X15533000Y-4928883D01*
X15533000Y-4977117D01*
X15614510Y-5386898D01*
X15376713Y-5624695D01*
X15455000Y-5231117D01*
X15455000Y-5182883D01*
X15361296Y-4711800D01*
X15094448Y-4312435D01*
X14695083Y-4045587D01*
X14224000Y-3951883D01*
X13752917Y-4045587D01*
X13353552Y-4312435D01*
X13086704Y-4711800D01*
X13063989Y-4825998D01*
X13004820Y-4825998D01*
X13125486Y-4596108D01*
X12879183Y-4071642D01*
X12450924Y-3681355D01*
X12040890Y-3511524D01*
X11811000Y-3632845D01*
X11811000Y-4826000D01*
X11831000Y-4826000D01*
X11831000Y-5080000D01*
X11811000Y-5080000D01*
X11811000Y-6273155D01*
X12040890Y-6394476D01*
X12450924Y-6224645D01*
X12879183Y-5834358D01*
X13043426Y-5484627D01*
X13086704Y-5702200D01*
X13255936Y-5955472D01*
X11631283Y-7580125D01*
X10875720Y-7266388D01*
X9988174Y-7265613D01*
X9167891Y-7604547D01*
X8539753Y-8231590D01*
X8504464Y-8316575D01*
X8504464Y-8240000D01*
X8477897Y-8098810D01*
X8394454Y-7969135D01*
X8267134Y-7882141D01*
X8116000Y-7851536D01*
X7215056Y-7851536D01*
X8693988Y-6372604D01*
X9144000Y-6462117D01*
X9615083Y-6368413D01*
X10014448Y-6101565D01*
X10281296Y-5702200D01*
X10324574Y-5484627D01*
X10488817Y-5834358D01*
X10917076Y-6224645D01*
X11327110Y-6394476D01*
X11557000Y-6273155D01*
X11557000Y-5080000D01*
X11537000Y-5080000D01*
X11537000Y-4826000D01*
X11557000Y-4826000D01*
X11557000Y-3632845D01*
X11327110Y-3511524D01*
X10917076Y-3681355D01*
X10488817Y-4071642D01*
X10242514Y-4596108D01*
X10363180Y-4825998D01*
X10304011Y-4825998D01*
X10281296Y-4711800D01*
X10014448Y-4312435D01*
X9615083Y-4045587D01*
X9144000Y-3951883D01*
X8672917Y-4045587D01*
X8273552Y-4312435D01*
X8006704Y-4711800D01*
X7913000Y-5182883D01*
X7913000Y-5231117D01*
X7994510Y-5640898D01*
X6348000Y-7287408D01*
X6348000Y-7126673D01*
X6961796Y-6512877D01*
X6995713Y-6462117D01*
X7071483Y-6348719D01*
X7110000Y-6155081D01*
X7110000Y-6091082D01*
X7474448Y-5847565D01*
X7741296Y-5448200D01*
X7835000Y-4977117D01*
X7835000Y-4928883D01*
X7741296Y-4457800D01*
X7474448Y-4058435D01*
X7075083Y-3791587D01*
X6604000Y-3697883D01*
X6132917Y-3791587D01*
X5733552Y-4058435D01*
X5466704Y-4457800D01*
X5373000Y-4928883D01*
X5373000Y-4977117D01*
X5466704Y-5448200D01*
X5733552Y-5847565D01*
X6010723Y-6032766D01*
X5484204Y-6559285D01*
X5374517Y-6723443D01*
X5336000Y-6917081D01*
X5336000Y-7851536D01*
X3916000Y-7851536D01*
X3774810Y-7878103D01*
X3645135Y-7961546D01*
X3627005Y-7988081D01*
X3545134Y-7932141D01*
X3394000Y-7901536D01*
X2194000Y-7901536D01*
X2052810Y-7928103D01*
X1923135Y-8011546D01*
X1836141Y-8138866D01*
X1805536Y-8290000D01*
X1805536Y-9490000D01*
X1832103Y-9631190D01*
X1915546Y-9760865D01*
X2042866Y-9847859D01*
X2078130Y-9855000D01*
X2067690Y-9855000D01*
X1834301Y-9951673D01*
X1655673Y-10130302D01*
X1559000Y-10363691D01*
X1559000Y-10804250D01*
X1717750Y-10963000D01*
X2667000Y-10963000D01*
X2667000Y-10943000D01*
X2921000Y-10943000D01*
X2921000Y-10963000D01*
X3870250Y-10963000D01*
X4029000Y-10804250D01*
X4029000Y-10363691D01*
X3932327Y-10130302D01*
X3753699Y-9951673D01*
X3520310Y-9855000D01*
X3518699Y-9855000D01*
X3535190Y-9851897D01*
X3626246Y-9793304D01*
X3637546Y-9810865D01*
X3764866Y-9897859D01*
X3916000Y-9928464D01*
X5336000Y-9928464D01*
X5336000Y-20226000D01*
X5374517Y-20419638D01*
X5484204Y-20583796D01*
X5984408Y-21084000D01*
X2413000Y-21084000D01*
X2219362Y-21122517D01*
X2055204Y-21232204D01*
X1801204Y-21486204D01*
X1691517Y-21650362D01*
X1653000Y-21844000D01*
X1653000Y-23677002D01*
X1691517Y-23870640D01*
X1801204Y-24034798D01*
X2059203Y-24292797D01*
X2107660Y-24325175D01*
X2042000Y-24483691D01*
X2042000Y-25074250D01*
X2200750Y-25233000D01*
X3175000Y-25233000D01*
X3175000Y-25213000D01*
X3429000Y-25213000D01*
X3429000Y-25233000D01*
X5207000Y-25233000D01*
X5207000Y-25213000D01*
X5461000Y-25213000D01*
X5461000Y-25233000D01*
X6435250Y-25233000D01*
X6576329Y-25091921D01*
X6669500Y-25185092D01*
X6669500Y-27574908D01*
X5937872Y-28306536D01*
X5065000Y-28306536D01*
X4923810Y-28333103D01*
X4794135Y-28416546D01*
X4707141Y-28543866D01*
X4676536Y-28695000D01*
X4676536Y-30195000D01*
X4703103Y-30336190D01*
X4786546Y-30465865D01*
X4913866Y-30552859D01*
X5065000Y-30583464D01*
X6365000Y-30583464D01*
X6506190Y-30556897D01*
X6635865Y-30473454D01*
X6722859Y-30346134D01*
X6753464Y-30195000D01*
X6753464Y-28922128D01*
X7391500Y-28284092D01*
X8513125Y-29405717D01*
X8199388Y-30161280D01*
X8198613Y-31048826D01*
X8537547Y-31869109D01*
X9164590Y-32497247D01*
X9984280Y-32837612D01*
X10871826Y-32838387D01*
X11273266Y-32672516D01*
X11423750Y-32823000D01*
X12197000Y-32823000D01*
X12197000Y-33077000D01*
X11423750Y-33077000D01*
X11265000Y-33235750D01*
X11265000Y-33576310D01*
X11361673Y-33809699D01*
X11462975Y-33911000D01*
X7996592Y-33911000D01*
X6753464Y-32667872D01*
X6753464Y-31395000D01*
X6726897Y-31253810D01*
X6643454Y-31124135D01*
X6516134Y-31037141D01*
X6365000Y-31006536D01*
X5065000Y-31006536D01*
X4923810Y-31033103D01*
X4794135Y-31116546D01*
X4707141Y-31243866D01*
X4676536Y-31395000D01*
X4676536Y-32895000D01*
X4703103Y-33036190D01*
X4786546Y-33165865D01*
X4913866Y-33252859D01*
X5065000Y-33283464D01*
X5209000Y-33283464D01*
X5209000Y-34671000D01*
X5247517Y-34864638D01*
X5357204Y-35028796D01*
X5401724Y-35073316D01*
X5346196Y-35207043D01*
X5345804Y-35656983D01*
X5517625Y-36072823D01*
X5835503Y-36391256D01*
X6251043Y-36563804D01*
X6700983Y-36564196D01*
X7116823Y-36392375D01*
X7435256Y-36074497D01*
X7607804Y-35658957D01*
X7608196Y-35209017D01*
X7436375Y-34793177D01*
X7118497Y-34474744D01*
X6702957Y-34302196D01*
X6253017Y-34301804D01*
X6221000Y-34315033D01*
X6221000Y-33566592D01*
X7429204Y-34774796D01*
X7593362Y-34884483D01*
X7787000Y-34923000D01*
X8115000Y-34923000D01*
X8115000Y-35364250D01*
X8273750Y-35523000D01*
X9623000Y-35523000D01*
X9623000Y-35503000D01*
X9877000Y-35503000D01*
X9877000Y-35523000D01*
X11226250Y-35523000D01*
X11385000Y-35364250D01*
X11385000Y-34923000D01*
X14833000Y-34923000D01*
X15026638Y-34884483D01*
X15042790Y-34873690D01*
X17215000Y-34873690D01*
X17215000Y-35364250D01*
X17373750Y-35523000D01*
X18723000Y-35523000D01*
X18723000Y-34523750D01*
X18564250Y-34365000D01*
X17723691Y-34365000D01*
X17490302Y-34461673D01*
X17311673Y-34640301D01*
X17215000Y-34873690D01*
X15042790Y-34873690D01*
X15190796Y-34774796D01*
X15800000Y-34165592D01*
X16028204Y-34393796D01*
X16192362Y-34503483D01*
X16386000Y-34542000D01*
X17018000Y-34542000D01*
X17211638Y-34503483D01*
X17375796Y-34393796D01*
X17735592Y-34034000D01*
X19856408Y-34034000D01*
X20068000Y-34245592D01*
X20068000Y-34402980D01*
X19976309Y-34365000D01*
X19135750Y-34365000D01*
X18977000Y-34523750D01*
X18977000Y-35523000D01*
X18997000Y-35523000D01*
X18997000Y-35777000D01*
X18977000Y-35777000D01*
X18977000Y-35797000D01*
X18723000Y-35797000D01*
X18723000Y-35777000D01*
X17373750Y-35777000D01*
X17215000Y-35935750D01*
X17215000Y-36426310D01*
X17263749Y-36544000D01*
X11336251Y-36544000D01*
X11385000Y-36426310D01*
X11385000Y-35935750D01*
X11226250Y-35777000D01*
X9877000Y-35777000D01*
X9877000Y-35797000D01*
X9623000Y-35797000D01*
X9623000Y-35777000D01*
X8273750Y-35777000D01*
X8115000Y-35935750D01*
X8115000Y-36426310D01*
X8211673Y-36659699D01*
X8390302Y-36838327D01*
X8623691Y-36935000D01*
X9047996Y-36935000D01*
X8918216Y-37587445D01*
X8585456Y-38085456D01*
X8087445Y-38418216D01*
X7455088Y-38544000D01*
X3044911Y-38544000D01*
X2029872Y-38342096D01*
X1207438Y-37792562D01*
X657904Y-36970128D01*
X534739Y-36350936D01*
X722606Y-36350936D01*
X1068528Y-37188132D01*
X1708499Y-37829221D01*
X2545090Y-38176604D01*
X3450936Y-38177394D01*
X4288132Y-37831472D01*
X4929221Y-37191501D01*
X5276604Y-36354910D01*
X5277394Y-35449064D01*
X4931472Y-34611868D01*
X4291501Y-33970779D01*
X3454910Y-33623396D01*
X2549064Y-33622606D01*
X1711868Y-33968528D01*
X1070779Y-34608499D01*
X723396Y-35445090D01*
X722606Y-36350936D01*
X534739Y-36350936D01*
X456000Y-35955089D01*
X456000Y-25645750D01*
X2042000Y-25645750D01*
X2042000Y-26236309D01*
X2138673Y-26469698D01*
X2317301Y-26648327D01*
X2550690Y-26745000D01*
X3016250Y-26745000D01*
X3175000Y-26586250D01*
X3175000Y-25487000D01*
X3429000Y-25487000D01*
X3429000Y-26586250D01*
X3587750Y-26745000D01*
X4053310Y-26745000D01*
X4286699Y-26648327D01*
X4318000Y-26617026D01*
X4349301Y-26648327D01*
X4582690Y-26745000D01*
X5048250Y-26745000D01*
X5207000Y-26586250D01*
X5207000Y-25487000D01*
X5461000Y-25487000D01*
X5461000Y-26586250D01*
X5619750Y-26745000D01*
X6085310Y-26745000D01*
X6318699Y-26648327D01*
X6497327Y-26469698D01*
X6594000Y-26236309D01*
X6594000Y-25645750D01*
X6435250Y-25487000D01*
X5461000Y-25487000D01*
X5207000Y-25487000D01*
X3429000Y-25487000D01*
X3175000Y-25487000D01*
X2200750Y-25487000D01*
X2042000Y-25645750D01*
X456000Y-25645750D01*
X456000Y-14200000D01*
X1073000Y-14200000D01*
X1073000Y-19200000D01*
X1081685Y-19246159D01*
X1108965Y-19288553D01*
X1150590Y-19316994D01*
X1200000Y-19327000D01*
X4600000Y-19327000D01*
X4646159Y-19318315D01*
X4688553Y-19291035D01*
X4716994Y-19249410D01*
X4727000Y-19200000D01*
X4727000Y-14200000D01*
X4718315Y-14153841D01*
X4691035Y-14111447D01*
X4649410Y-14083006D01*
X4600000Y-14073000D01*
X1200000Y-14073000D01*
X1153841Y-14081685D01*
X1111447Y-14108965D01*
X1083006Y-14150590D01*
X1073000Y-14200000D01*
X456000Y-14200000D01*
X456000Y-11375750D01*
X1559000Y-11375750D01*
X1559000Y-11816309D01*
X1655673Y-12049698D01*
X1834301Y-12228327D01*
X2067690Y-12325000D01*
X2508250Y-12325000D01*
X2667000Y-12166250D01*
X2667000Y-11217000D01*
X2921000Y-11217000D01*
X2921000Y-12166250D01*
X3079750Y-12325000D01*
X3520310Y-12325000D01*
X3753699Y-12228327D01*
X3932327Y-12049698D01*
X4029000Y-11816309D01*
X4029000Y-11375750D01*
X3870250Y-11217000D01*
X2921000Y-11217000D01*
X2667000Y-11217000D01*
X1717750Y-11217000D01*
X1559000Y-11375750D01*
X456000Y-11375750D01*
X456000Y-3350936D01*
X722606Y-3350936D01*
X1068528Y-4188132D01*
X1708499Y-4829221D01*
X2545090Y-5176604D01*
X3450936Y-5177394D01*
X4288132Y-4831472D01*
X4929221Y-4191501D01*
X5276604Y-3354910D01*
X5276607Y-3350936D01*
X23322606Y-3350936D01*
X23668528Y-4188132D01*
X24308499Y-4829221D01*
X25145090Y-5176604D01*
X26050936Y-5177394D01*
X26888132Y-4831472D01*
X27529221Y-4191501D01*
X27876604Y-3354910D01*
X27877394Y-2449064D01*
X27531472Y-1611868D01*
X26891501Y-970779D01*
X26054910Y-623396D01*
X25149064Y-622606D01*
X24311868Y-968528D01*
X23670779Y-1608499D01*
X23323396Y-2445090D01*
X23322606Y-3350936D01*
X5276607Y-3350936D01*
X5277394Y-2449064D01*
X4931472Y-1611868D01*
X4291501Y-970779D01*
X3454910Y-623396D01*
X2549064Y-622606D01*
X1711868Y-968528D01*
X1070779Y-1608499D01*
X723396Y-2445090D01*
X722606Y-3350936D01*
X456000Y-3350936D01*
X456000Y-3044911D01*
X657904Y-2029872D01*
X1207438Y-1207438D01*
X2029872Y-657904D01*
X3044911Y-456000D01*
X7475560Y-456000D01*
X8087445Y-577712D01*
X8087445Y-577712D01*
G37*
X8087445Y-577712D02*
X8585456Y-910472D01*
X8918216Y-1408483D01*
X9052762Y-2084889D01*
X9068391Y-2122620D01*
X9078711Y-2174504D01*
X9108101Y-2218490D01*
X9120850Y-2249268D01*
X9144406Y-2272824D01*
X9177559Y-2322441D01*
X9227176Y-2355594D01*
X9246660Y-2375078D01*
X9272118Y-2385623D01*
X9325496Y-2421289D01*
X9388458Y-2433813D01*
X9411038Y-2443166D01*
X9435479Y-2443166D01*
X9500000Y-2456000D01*
X19000000Y-2456000D01*
X19064521Y-2443166D01*
X19088962Y-2443166D01*
X19111543Y-2433813D01*
X19174504Y-2421289D01*
X19227879Y-2385625D01*
X19253340Y-2375079D01*
X19272827Y-2355592D01*
X19322441Y-2322441D01*
X19355593Y-2272825D01*
X19379150Y-2249268D01*
X19391899Y-2218490D01*
X19421289Y-2174504D01*
X19431609Y-2122620D01*
X19447238Y-2084889D01*
X19581784Y-1408483D01*
X19914544Y-910472D01*
X20412555Y-577712D01*
X21024440Y-456000D01*
X25555089Y-456000D01*
X26570128Y-657904D01*
X27392562Y-1207438D01*
X27942096Y-2029872D01*
X28144000Y-3044911D01*
X28144000Y-35955089D01*
X27942096Y-36970128D01*
X27392562Y-37792562D01*
X26570128Y-38342096D01*
X25555089Y-38544000D01*
X21044911Y-38544000D01*
X20412555Y-38418216D01*
X19914544Y-38085456D01*
X19581784Y-37587445D01*
X19452004Y-36935000D01*
X19976309Y-36935000D01*
X20209698Y-36838327D01*
X20388327Y-36659699D01*
X20458853Y-36489434D01*
X20458804Y-36545983D01*
X20630625Y-36961823D01*
X20948503Y-37280256D01*
X21364043Y-37452804D01*
X21813983Y-37453196D01*
X22229823Y-37281375D01*
X22548256Y-36963497D01*
X22720804Y-36547957D01*
X22720975Y-36350936D01*
X23322606Y-36350936D01*
X23668528Y-37188132D01*
X24308499Y-37829221D01*
X25145090Y-38176604D01*
X26050936Y-38177394D01*
X26888132Y-37831472D01*
X27529221Y-37191501D01*
X27876604Y-36354910D01*
X27877394Y-35449064D01*
X27531472Y-34611868D01*
X26891501Y-33970779D01*
X26054910Y-33623396D01*
X25149064Y-33622606D01*
X24311868Y-33968528D01*
X23670779Y-34608499D01*
X23323396Y-35445090D01*
X23322606Y-36350936D01*
X22720975Y-36350936D01*
X22721196Y-36098017D01*
X22549375Y-35682177D01*
X22231497Y-35363744D01*
X22063732Y-35294082D01*
X22194983Y-35294196D01*
X22610823Y-35122375D01*
X22929256Y-34804497D01*
X23101804Y-34388957D01*
X23102196Y-33939017D01*
X22930375Y-33523177D01*
X22612497Y-33204744D01*
X22477000Y-33148480D01*
X22477000Y-33102340D01*
X22438483Y-32908702D01*
X22328796Y-32744544D01*
X22327922Y-32743670D01*
X23159806Y-31911786D01*
X23269493Y-31747628D01*
X23308010Y-31553990D01*
X23308010Y-31447500D01*
X23642350Y-31447500D01*
X23801100Y-31288750D01*
X23801100Y-30289500D01*
X24055100Y-30289500D01*
X24055100Y-31288750D01*
X24213850Y-31447500D01*
X24804409Y-31447500D01*
X25037798Y-31350827D01*
X25216427Y-31172199D01*
X25313100Y-30938810D01*
X25313100Y-30448250D01*
X25154350Y-30289500D01*
X24055100Y-30289500D01*
X23801100Y-30289500D01*
X23781100Y-30289500D01*
X23781100Y-30035500D01*
X23801100Y-30035500D01*
X23801100Y-29036250D01*
X24055100Y-29036250D01*
X24055100Y-30035500D01*
X25154350Y-30035500D01*
X25313100Y-29876750D01*
X25313100Y-29386190D01*
X25216427Y-29152801D01*
X25037798Y-28974173D01*
X24804409Y-28877500D01*
X24213850Y-28877500D01*
X24055100Y-29036250D01*
X23801100Y-29036250D01*
X23642350Y-28877500D01*
X23308010Y-28877500D01*
X23308010Y-28644010D01*
X23269493Y-28450372D01*
X23159806Y-28286214D01*
X21795056Y-26921464D01*
X22848000Y-26921464D01*
X22989190Y-26894897D01*
X23118865Y-26811454D01*
X23205859Y-26684134D01*
X23213000Y-26648870D01*
X23213000Y-26659310D01*
X23309673Y-26892699D01*
X23488302Y-27071327D01*
X23721691Y-27168000D01*
X24312250Y-27168000D01*
X24471000Y-27009250D01*
X24471000Y-26035000D01*
X24725000Y-26035000D01*
X24725000Y-27009250D01*
X24883750Y-27168000D01*
X25474309Y-27168000D01*
X25707698Y-27071327D01*
X25886327Y-26892699D01*
X25983000Y-26659310D01*
X25983000Y-26193750D01*
X25824250Y-26035000D01*
X24725000Y-26035000D01*
X24471000Y-26035000D01*
X24451000Y-26035000D01*
X24451000Y-25781000D01*
X24471000Y-25781000D01*
X24471000Y-24003000D01*
X24725000Y-24003000D01*
X24725000Y-25781000D01*
X25824250Y-25781000D01*
X25983000Y-25622250D01*
X25983000Y-25156690D01*
X25886327Y-24923301D01*
X25855026Y-24892000D01*
X25886327Y-24860699D01*
X25983000Y-24627310D01*
X25983000Y-24161750D01*
X25824250Y-24003000D01*
X24725000Y-24003000D01*
X24471000Y-24003000D01*
X24451000Y-24003000D01*
X24451000Y-23749000D01*
X24471000Y-23749000D01*
X24471000Y-21971000D01*
X24725000Y-21971000D01*
X24725000Y-23749000D01*
X25824250Y-23749000D01*
X25983000Y-23590250D01*
X25983000Y-23124690D01*
X25886327Y-22891301D01*
X25855026Y-22860000D01*
X25886327Y-22828699D01*
X25983000Y-22595310D01*
X25983000Y-22129750D01*
X25824250Y-21971000D01*
X24725000Y-21971000D01*
X24471000Y-21971000D01*
X24451000Y-21971000D01*
X24451000Y-21717000D01*
X24471000Y-21717000D01*
X24471000Y-21697000D01*
X24725000Y-21697000D01*
X24725000Y-21717000D01*
X25824250Y-21717000D01*
X25983000Y-21558250D01*
X25983000Y-21092690D01*
X25886327Y-20859301D01*
X25707698Y-20680673D01*
X25474309Y-20584000D01*
X24883750Y-20584000D01*
X24725002Y-20742748D01*
X24725002Y-20584000D01*
X24699270Y-20584000D01*
X26011796Y-19271474D01*
X26051399Y-19212204D01*
X26121483Y-19107316D01*
X26160000Y-18913678D01*
X26160000Y-16284464D01*
X26304000Y-16284464D01*
X26445190Y-16257897D01*
X26574865Y-16174454D01*
X26661859Y-16047134D01*
X26692464Y-15896000D01*
X26692464Y-14396000D01*
X26665897Y-14254810D01*
X26582454Y-14125135D01*
X26455134Y-14038141D01*
X26304000Y-14007536D01*
X25004000Y-14007536D01*
X24862810Y-14034103D01*
X24765000Y-14097042D01*
X24765000Y-13493823D01*
X24852866Y-13553859D01*
X25004000Y-13584464D01*
X26304000Y-13584464D01*
X26445190Y-13557897D01*
X26574865Y-13474454D01*
X26661859Y-13347134D01*
X26692464Y-13196000D01*
X26692464Y-11696000D01*
X26665897Y-11554810D01*
X26582454Y-11425135D01*
X26455134Y-11338141D01*
X26304000Y-11307536D01*
X25004000Y-11307536D01*
X24862810Y-11334103D01*
X24733135Y-11417546D01*
X24646141Y-11544866D01*
X24615536Y-11696000D01*
X24615536Y-11940000D01*
X19555464Y-11940000D01*
X19555464Y-11696000D01*
X19528897Y-11554810D01*
X19445454Y-11425135D01*
X19318134Y-11338141D01*
X19282870Y-11331000D01*
X19293310Y-11331000D01*
X19526699Y-11234327D01*
X19705327Y-11055698D01*
X19802000Y-10822309D01*
X19802000Y-10231750D01*
X19643250Y-10073000D01*
X18669000Y-10073000D01*
X18669000Y-10093000D01*
X18415000Y-10093000D01*
X18415000Y-10073000D01*
X17440750Y-10073000D01*
X17282000Y-10231750D01*
X17282000Y-10822309D01*
X17378673Y-11055698D01*
X17557301Y-11234327D01*
X17790690Y-11331000D01*
X17792301Y-11331000D01*
X17775810Y-11334103D01*
X17646135Y-11417546D01*
X17559141Y-11544866D01*
X17528536Y-11696000D01*
X17528536Y-11967542D01*
X17473362Y-11978517D01*
X17309204Y-12088204D01*
X15778204Y-13619204D01*
X15668517Y-13783362D01*
X15630000Y-13977000D01*
X15630000Y-16481536D01*
X15606408Y-16481536D01*
X15621000Y-16446309D01*
X15621000Y-16005750D01*
X15462250Y-15847000D01*
X14813000Y-15847000D01*
X14813000Y-15867000D01*
X14574464Y-15867000D01*
X14574464Y-15120000D01*
X14559000Y-15037817D01*
X14559000Y-14643750D01*
X14813000Y-14643750D01*
X14813000Y-15593000D01*
X15462250Y-15593000D01*
X15621000Y-15434250D01*
X15621000Y-14993691D01*
X15524327Y-14760302D01*
X15345699Y-14581673D01*
X15112310Y-14485000D01*
X14971750Y-14485000D01*
X14813000Y-14643750D01*
X14559000Y-14643750D01*
X14400250Y-14485000D01*
X14392000Y-14485000D01*
X14392000Y-13795264D01*
X15382000Y-13795264D01*
X15523190Y-13768697D01*
X15652865Y-13685254D01*
X15739859Y-13557934D01*
X15770464Y-13406800D01*
X15770464Y-11906800D01*
X15743897Y-11765610D01*
X15660454Y-11635935D01*
X15533134Y-11548941D01*
X15382000Y-11518336D01*
X14082000Y-11518336D01*
X13940810Y-11544903D01*
X13811135Y-11628346D01*
X13724141Y-11755666D01*
X13693536Y-11906800D01*
X13693536Y-12768872D01*
X13528204Y-12934204D01*
X13418517Y-13098362D01*
X13380000Y-13292000D01*
X13380000Y-14731536D01*
X12786000Y-14731536D01*
X12682330Y-14751043D01*
X12586000Y-14731536D01*
X11986000Y-14731536D01*
X11882330Y-14751043D01*
X11786000Y-14731536D01*
X11186000Y-14731536D01*
X11082330Y-14751043D01*
X10986000Y-14731536D01*
X10392000Y-14731536D01*
X10392000Y-14538464D01*
X10750000Y-14538464D01*
X10891190Y-14511897D01*
X11020865Y-14428454D01*
X11107859Y-14301134D01*
X11138464Y-14150000D01*
X11138464Y-12850000D01*
X11111897Y-12708810D01*
X11028454Y-12579135D01*
X10960658Y-12532812D01*
X11683787Y-12532812D01*
X11877425Y-12494295D01*
X12041583Y-12384608D01*
X13489786Y-10936405D01*
X13543673Y-11066498D01*
X13722301Y-11245127D01*
X13955690Y-11341800D01*
X14446250Y-11341800D01*
X14605000Y-11183050D01*
X14605000Y-10083800D01*
X14859000Y-10083800D01*
X14859000Y-11183050D01*
X15017750Y-11341800D01*
X15508310Y-11341800D01*
X15741699Y-11245127D01*
X15920327Y-11066498D01*
X16017000Y-10833109D01*
X16017000Y-10242550D01*
X15858250Y-10083800D01*
X14859000Y-10083800D01*
X14605000Y-10083800D01*
X14585000Y-10083800D01*
X14585000Y-9829800D01*
X14605000Y-9829800D01*
X14605000Y-8730550D01*
X14859000Y-8730550D01*
X14859000Y-9829800D01*
X15858250Y-9829800D01*
X16017000Y-9671050D01*
X16017000Y-9080491D01*
X16012527Y-9069691D01*
X17282000Y-9069691D01*
X17282000Y-9660250D01*
X17440750Y-9819000D01*
X18415000Y-9819000D01*
X18415000Y-8719750D01*
X18669000Y-8719750D01*
X18669000Y-9819000D01*
X19643250Y-9819000D01*
X19802000Y-9660250D01*
X19802000Y-9069691D01*
X19705327Y-8836302D01*
X19526699Y-8657673D01*
X19293310Y-8561000D01*
X18827750Y-8561000D01*
X18669000Y-8719750D01*
X18415000Y-8719750D01*
X18256250Y-8561000D01*
X17790690Y-8561000D01*
X17557301Y-8657673D01*
X17378673Y-8836302D01*
X17282000Y-9069691D01*
X16012527Y-9069691D01*
X15920327Y-8847102D01*
X15741699Y-8668473D01*
X15508310Y-8571800D01*
X15017750Y-8571800D01*
X14859000Y-8730550D01*
X14605000Y-8730550D01*
X14446250Y-8571800D01*
X14429886Y-8571800D01*
X15419558Y-7582128D01*
X17434872Y-7582128D01*
X17628510Y-7543611D01*
X17792668Y-7433924D01*
X18853988Y-6372604D01*
X19304000Y-6462117D01*
X19775083Y-6368413D01*
X20174448Y-6101565D01*
X20441296Y-5702200D01*
X20535000Y-5231117D01*
X20535000Y-5196787D01*
X20612787Y-5196787D01*
X20799800Y-5649395D01*
X21145784Y-5995983D01*
X21598065Y-6183786D01*
X22087787Y-6184213D01*
X22540395Y-5997200D01*
X22886983Y-5651216D01*
X23074786Y-5198935D01*
X23075213Y-4709213D01*
X22888200Y-4256605D01*
X22542216Y-3910017D01*
X22089935Y-3722214D01*
X21600213Y-3721787D01*
X21147605Y-3908800D01*
X20801017Y-4254784D01*
X20613214Y-4707065D01*
X20612787Y-5196787D01*
X20535000Y-5196787D01*
X20535000Y-5182883D01*
X20441296Y-4711800D01*
X20174448Y-4312435D01*
X19775083Y-4045587D01*
X19304000Y-3951883D01*
X18832917Y-4045587D01*
X18433552Y-4312435D01*
X18166704Y-4711800D01*
X18073000Y-5182883D01*
X18073000Y-5231117D01*
X18154510Y-5640898D01*
X17225280Y-6570128D01*
X15862464Y-6570128D01*
X16313988Y-6118604D01*
X16764000Y-6208117D01*
X17235083Y-6114413D01*
X17634448Y-5847565D01*
X17901296Y-5448200D01*
X17995000Y-4977117D01*
X17995000Y-4928883D01*
X17901296Y-4457800D01*
X17634448Y-4058435D01*
X17235083Y-3791587D01*
X16764000Y-3697883D01*
X16292917Y-3791587D01*
X15893552Y-4058435D01*
X15626704Y-4457800D01*
X15533000Y-4928883D01*
X15533000Y-4977117D01*
X15614510Y-5386898D01*
X15376713Y-5624695D01*
X15455000Y-5231117D01*
X15455000Y-5182883D01*
X15361296Y-4711800D01*
X15094448Y-4312435D01*
X14695083Y-4045587D01*
X14224000Y-3951883D01*
X13752917Y-4045587D01*
X13353552Y-4312435D01*
X13086704Y-4711800D01*
X13063989Y-4825998D01*
X13004820Y-4825998D01*
X13125486Y-4596108D01*
X12879183Y-4071642D01*
X12450924Y-3681355D01*
X12040890Y-3511524D01*
X11811000Y-3632845D01*
X11811000Y-4826000D01*
X11831000Y-4826000D01*
X11831000Y-5080000D01*
X11811000Y-5080000D01*
X11811000Y-6273155D01*
X12040890Y-6394476D01*
X12450924Y-6224645D01*
X12879183Y-5834358D01*
X13043426Y-5484627D01*
X13086704Y-5702200D01*
X13255936Y-5955472D01*
X11631283Y-7580125D01*
X10875720Y-7266388D01*
X9988174Y-7265613D01*
X9167891Y-7604547D01*
X8539753Y-8231590D01*
X8504464Y-8316575D01*
X8504464Y-8240000D01*
X8477897Y-8098810D01*
X8394454Y-7969135D01*
X8267134Y-7882141D01*
X8116000Y-7851536D01*
X7215056Y-7851536D01*
X8693988Y-6372604D01*
X9144000Y-6462117D01*
X9615083Y-6368413D01*
X10014448Y-6101565D01*
X10281296Y-5702200D01*
X10324574Y-5484627D01*
X10488817Y-5834358D01*
X10917076Y-6224645D01*
X11327110Y-6394476D01*
X11557000Y-6273155D01*
X11557000Y-5080000D01*
X11537000Y-5080000D01*
X11537000Y-4826000D01*
X11557000Y-4826000D01*
X11557000Y-3632845D01*
X11327110Y-3511524D01*
X10917076Y-3681355D01*
X10488817Y-4071642D01*
X10242514Y-4596108D01*
X10363180Y-4825998D01*
X10304011Y-4825998D01*
X10281296Y-4711800D01*
X10014448Y-4312435D01*
X9615083Y-4045587D01*
X9144000Y-3951883D01*
X8672917Y-4045587D01*
X8273552Y-4312435D01*
X8006704Y-4711800D01*
X7913000Y-5182883D01*
X7913000Y-5231117D01*
X7994510Y-5640898D01*
X6348000Y-7287408D01*
X6348000Y-7126673D01*
X6961796Y-6512877D01*
X6995713Y-6462117D01*
X7071483Y-6348719D01*
X7110000Y-6155081D01*
X7110000Y-6091082D01*
X7474448Y-5847565D01*
X7741296Y-5448200D01*
X7835000Y-4977117D01*
X7835000Y-4928883D01*
X7741296Y-4457800D01*
X7474448Y-4058435D01*
X7075083Y-3791587D01*
X6604000Y-3697883D01*
X6132917Y-3791587D01*
X5733552Y-4058435D01*
X5466704Y-4457800D01*
X5373000Y-4928883D01*
X5373000Y-4977117D01*
X5466704Y-5448200D01*
X5733552Y-5847565D01*
X6010723Y-6032766D01*
X5484204Y-6559285D01*
X5374517Y-6723443D01*
X5336000Y-6917081D01*
X5336000Y-7851536D01*
X3916000Y-7851536D01*
X3774810Y-7878103D01*
X3645135Y-7961546D01*
X3627005Y-7988081D01*
X3545134Y-7932141D01*
X3394000Y-7901536D01*
X2194000Y-7901536D01*
X2052810Y-7928103D01*
X1923135Y-8011546D01*
X1836141Y-8138866D01*
X1805536Y-8290000D01*
X1805536Y-9490000D01*
X1832103Y-9631190D01*
X1915546Y-9760865D01*
X2042866Y-9847859D01*
X2078130Y-9855000D01*
X2067690Y-9855000D01*
X1834301Y-9951673D01*
X1655673Y-10130302D01*
X1559000Y-10363691D01*
X1559000Y-10804250D01*
X1717750Y-10963000D01*
X2667000Y-10963000D01*
X2667000Y-10943000D01*
X2921000Y-10943000D01*
X2921000Y-10963000D01*
X3870250Y-10963000D01*
X4029000Y-10804250D01*
X4029000Y-10363691D01*
X3932327Y-10130302D01*
X3753699Y-9951673D01*
X3520310Y-9855000D01*
X3518699Y-9855000D01*
X3535190Y-9851897D01*
X3626246Y-9793304D01*
X3637546Y-9810865D01*
X3764866Y-9897859D01*
X3916000Y-9928464D01*
X5336000Y-9928464D01*
X5336000Y-20226000D01*
X5374517Y-20419638D01*
X5484204Y-20583796D01*
X5984408Y-21084000D01*
X2413000Y-21084000D01*
X2219362Y-21122517D01*
X2055204Y-21232204D01*
X1801204Y-21486204D01*
X1691517Y-21650362D01*
X1653000Y-21844000D01*
X1653000Y-23677002D01*
X1691517Y-23870640D01*
X1801204Y-24034798D01*
X2059203Y-24292797D01*
X2107660Y-24325175D01*
X2042000Y-24483691D01*
X2042000Y-25074250D01*
X2200750Y-25233000D01*
X3175000Y-25233000D01*
X3175000Y-25213000D01*
X3429000Y-25213000D01*
X3429000Y-25233000D01*
X5207000Y-25233000D01*
X5207000Y-25213000D01*
X5461000Y-25213000D01*
X5461000Y-25233000D01*
X6435250Y-25233000D01*
X6576329Y-25091921D01*
X6669500Y-25185092D01*
X6669500Y-27574908D01*
X5937872Y-28306536D01*
X5065000Y-28306536D01*
X4923810Y-28333103D01*
X4794135Y-28416546D01*
X4707141Y-28543866D01*
X4676536Y-28695000D01*
X4676536Y-30195000D01*
X4703103Y-30336190D01*
X4786546Y-30465865D01*
X4913866Y-30552859D01*
X5065000Y-30583464D01*
X6365000Y-30583464D01*
X6506190Y-30556897D01*
X6635865Y-30473454D01*
X6722859Y-30346134D01*
X6753464Y-30195000D01*
X6753464Y-28922128D01*
X7391500Y-28284092D01*
X8513125Y-29405717D01*
X8199388Y-30161280D01*
X8198613Y-31048826D01*
X8537547Y-31869109D01*
X9164590Y-32497247D01*
X9984280Y-32837612D01*
X10871826Y-32838387D01*
X11273266Y-32672516D01*
X11423750Y-32823000D01*
X12197000Y-32823000D01*
X12197000Y-33077000D01*
X11423750Y-33077000D01*
X11265000Y-33235750D01*
X11265000Y-33576310D01*
X11361673Y-33809699D01*
X11462975Y-33911000D01*
X7996592Y-33911000D01*
X6753464Y-32667872D01*
X6753464Y-31395000D01*
X6726897Y-31253810D01*
X6643454Y-31124135D01*
X6516134Y-31037141D01*
X6365000Y-31006536D01*
X5065000Y-31006536D01*
X4923810Y-31033103D01*
X4794135Y-31116546D01*
X4707141Y-31243866D01*
X4676536Y-31395000D01*
X4676536Y-32895000D01*
X4703103Y-33036190D01*
X4786546Y-33165865D01*
X4913866Y-33252859D01*
X5065000Y-33283464D01*
X5209000Y-33283464D01*
X5209000Y-34671000D01*
X5247517Y-34864638D01*
X5357204Y-35028796D01*
X5401724Y-35073316D01*
X5346196Y-35207043D01*
X5345804Y-35656983D01*
X5517625Y-36072823D01*
X5835503Y-36391256D01*
X6251043Y-36563804D01*
X6700983Y-36564196D01*
X7116823Y-36392375D01*
X7435256Y-36074497D01*
X7607804Y-35658957D01*
X7608196Y-35209017D01*
X7436375Y-34793177D01*
X7118497Y-34474744D01*
X6702957Y-34302196D01*
X6253017Y-34301804D01*
X6221000Y-34315033D01*
X6221000Y-33566592D01*
X7429204Y-34774796D01*
X7593362Y-34884483D01*
X7787000Y-34923000D01*
X8115000Y-34923000D01*
X8115000Y-35364250D01*
X8273750Y-35523000D01*
X9623000Y-35523000D01*
X9623000Y-35503000D01*
X9877000Y-35503000D01*
X9877000Y-35523000D01*
X11226250Y-35523000D01*
X11385000Y-35364250D01*
X11385000Y-34923000D01*
X14833000Y-34923000D01*
X15026638Y-34884483D01*
X15042790Y-34873690D01*
X17215000Y-34873690D01*
X17215000Y-35364250D01*
X17373750Y-35523000D01*
X18723000Y-35523000D01*
X18723000Y-34523750D01*
X18564250Y-34365000D01*
X17723691Y-34365000D01*
X17490302Y-34461673D01*
X17311673Y-34640301D01*
X17215000Y-34873690D01*
X15042790Y-34873690D01*
X15190796Y-34774796D01*
X15800000Y-34165592D01*
X16028204Y-34393796D01*
X16192362Y-34503483D01*
X16386000Y-34542000D01*
X17018000Y-34542000D01*
X17211638Y-34503483D01*
X17375796Y-34393796D01*
X17735592Y-34034000D01*
X19856408Y-34034000D01*
X20068000Y-34245592D01*
X20068000Y-34402980D01*
X19976309Y-34365000D01*
X19135750Y-34365000D01*
X18977000Y-34523750D01*
X18977000Y-35523000D01*
X18997000Y-35523000D01*
X18997000Y-35777000D01*
X18977000Y-35777000D01*
X18977000Y-35797000D01*
X18723000Y-35797000D01*
X18723000Y-35777000D01*
X17373750Y-35777000D01*
X17215000Y-35935750D01*
X17215000Y-36426310D01*
X17263749Y-36544000D01*
X11336251Y-36544000D01*
X11385000Y-36426310D01*
X11385000Y-35935750D01*
X11226250Y-35777000D01*
X9877000Y-35777000D01*
X9877000Y-35797000D01*
X9623000Y-35797000D01*
X9623000Y-35777000D01*
X8273750Y-35777000D01*
X8115000Y-35935750D01*
X8115000Y-36426310D01*
X8211673Y-36659699D01*
X8390302Y-36838327D01*
X8623691Y-36935000D01*
X9047996Y-36935000D01*
X8918216Y-37587445D01*
X8585456Y-38085456D01*
X8087445Y-38418216D01*
X7455088Y-38544000D01*
X3044911Y-38544000D01*
X2029872Y-38342096D01*
X1207438Y-37792562D01*
X657904Y-36970128D01*
X534739Y-36350936D01*
X722606Y-36350936D01*
X1068528Y-37188132D01*
X1708499Y-37829221D01*
X2545090Y-38176604D01*
X3450936Y-38177394D01*
X4288132Y-37831472D01*
X4929221Y-37191501D01*
X5276604Y-36354910D01*
X5277394Y-35449064D01*
X4931472Y-34611868D01*
X4291501Y-33970779D01*
X3454910Y-33623396D01*
X2549064Y-33622606D01*
X1711868Y-33968528D01*
X1070779Y-34608499D01*
X723396Y-35445090D01*
X722606Y-36350936D01*
X534739Y-36350936D01*
X456000Y-35955089D01*
X456000Y-25645750D01*
X2042000Y-25645750D01*
X2042000Y-26236309D01*
X2138673Y-26469698D01*
X2317301Y-26648327D01*
X2550690Y-26745000D01*
X3016250Y-26745000D01*
X3175000Y-26586250D01*
X3175000Y-25487000D01*
X3429000Y-25487000D01*
X3429000Y-26586250D01*
X3587750Y-26745000D01*
X4053310Y-26745000D01*
X4286699Y-26648327D01*
X4318000Y-26617026D01*
X4349301Y-26648327D01*
X4582690Y-26745000D01*
X5048250Y-26745000D01*
X5207000Y-26586250D01*
X5207000Y-25487000D01*
X5461000Y-25487000D01*
X5461000Y-26586250D01*
X5619750Y-26745000D01*
X6085310Y-26745000D01*
X6318699Y-26648327D01*
X6497327Y-26469698D01*
X6594000Y-26236309D01*
X6594000Y-25645750D01*
X6435250Y-25487000D01*
X5461000Y-25487000D01*
X5207000Y-25487000D01*
X3429000Y-25487000D01*
X3175000Y-25487000D01*
X2200750Y-25487000D01*
X2042000Y-25645750D01*
X456000Y-25645750D01*
X456000Y-14200000D01*
X1073000Y-14200000D01*
X1073000Y-19200000D01*
X1081685Y-19246159D01*
X1108965Y-19288553D01*
X1150590Y-19316994D01*
X1200000Y-19327000D01*
X4600000Y-19327000D01*
X4646159Y-19318315D01*
X4688553Y-19291035D01*
X4716994Y-19249410D01*
X4727000Y-19200000D01*
X4727000Y-14200000D01*
X4718315Y-14153841D01*
X4691035Y-14111447D01*
X4649410Y-14083006D01*
X4600000Y-14073000D01*
X1200000Y-14073000D01*
X1153841Y-14081685D01*
X1111447Y-14108965D01*
X1083006Y-14150590D01*
X1073000Y-14200000D01*
X456000Y-14200000D01*
X456000Y-11375750D01*
X1559000Y-11375750D01*
X1559000Y-11816309D01*
X1655673Y-12049698D01*
X1834301Y-12228327D01*
X2067690Y-12325000D01*
X2508250Y-12325000D01*
X2667000Y-12166250D01*
X2667000Y-11217000D01*
X2921000Y-11217000D01*
X2921000Y-12166250D01*
X3079750Y-12325000D01*
X3520310Y-12325000D01*
X3753699Y-12228327D01*
X3932327Y-12049698D01*
X4029000Y-11816309D01*
X4029000Y-11375750D01*
X3870250Y-11217000D01*
X2921000Y-11217000D01*
X2667000Y-11217000D01*
X1717750Y-11217000D01*
X1559000Y-11375750D01*
X456000Y-11375750D01*
X456000Y-3350936D01*
X722606Y-3350936D01*
X1068528Y-4188132D01*
X1708499Y-4829221D01*
X2545090Y-5176604D01*
X3450936Y-5177394D01*
X4288132Y-4831472D01*
X4929221Y-4191501D01*
X5276604Y-3354910D01*
X5276607Y-3350936D01*
X23322606Y-3350936D01*
X23668528Y-4188132D01*
X24308499Y-4829221D01*
X25145090Y-5176604D01*
X26050936Y-5177394D01*
X26888132Y-4831472D01*
X27529221Y-4191501D01*
X27876604Y-3354910D01*
X27877394Y-2449064D01*
X27531472Y-1611868D01*
X26891501Y-970779D01*
X26054910Y-623396D01*
X25149064Y-622606D01*
X24311868Y-968528D01*
X23670779Y-1608499D01*
X23323396Y-2445090D01*
X23322606Y-3350936D01*
X5276607Y-3350936D01*
X5277394Y-2449064D01*
X4931472Y-1611868D01*
X4291501Y-970779D01*
X3454910Y-623396D01*
X2549064Y-622606D01*
X1711868Y-968528D01*
X1070779Y-1608499D01*
X723396Y-2445090D01*
X722606Y-3350936D01*
X456000Y-3350936D01*
X456000Y-3044911D01*
X657904Y-2029872D01*
X1207438Y-1207438D01*
X2029872Y-657904D01*
X3044911Y-456000D01*
X7475560Y-456000D01*
X8087445Y-577712D01*
G36*
X9197536Y-24820000D02*
X9213000Y-24902183D01*
X9213000Y-25296250D01*
X9371750Y-25455000D01*
X9512310Y-25455000D01*
X9745699Y-25358327D01*
X9895561Y-25208464D01*
X10186000Y-25208464D01*
X10289670Y-25188957D01*
X10386000Y-25208464D01*
X10986000Y-25208464D01*
X11006765Y-25204557D01*
X11018517Y-25263638D01*
X11128204Y-25427796D01*
X11947203Y-26246795D01*
X12111361Y-26356482D01*
X12304999Y-26394999D01*
X12710000Y-26394999D01*
X12710000Y-26678250D01*
X12868750Y-26837000D01*
X13843000Y-26837000D01*
X13843000Y-26817000D01*
X14097000Y-26817000D01*
X14097000Y-26837000D01*
X15875000Y-26837000D01*
X15875000Y-26817000D01*
X16129000Y-26817000D01*
X16129000Y-26837000D01*
X17907000Y-26837000D01*
X17907000Y-26817000D01*
X18161000Y-26817000D01*
X18161000Y-26837000D01*
X19135250Y-26837000D01*
X19294000Y-26678250D01*
X19294000Y-26420686D01*
X21750814Y-28877500D01*
X21513850Y-28877500D01*
X21355100Y-29036250D01*
X21355100Y-30035500D01*
X21375100Y-30035500D01*
X21375100Y-30289500D01*
X21355100Y-30289500D01*
X21355100Y-31288750D01*
X21513850Y-31447500D01*
X21556498Y-31447500D01*
X21010008Y-31993990D01*
X17839562Y-31993990D01*
X17537582Y-31692010D01*
X17989592Y-31240000D01*
X19050000Y-31240000D01*
X19243638Y-31201483D01*
X19407796Y-31091796D01*
X19661796Y-30837796D01*
X19771483Y-30673638D01*
X19810000Y-30480000D01*
X19810000Y-30448250D01*
X19843100Y-30448250D01*
X19843100Y-30938810D01*
X19939773Y-31172199D01*
X20118402Y-31350827D01*
X20351791Y-31447500D01*
X20942350Y-31447500D01*
X21101100Y-31288750D01*
X21101100Y-30289500D01*
X20001850Y-30289500D01*
X19843100Y-30448250D01*
X19810000Y-30448250D01*
X19810000Y-29386190D01*
X19843100Y-29386190D01*
X19843100Y-29876750D01*
X20001850Y-30035500D01*
X21101100Y-30035500D01*
X21101100Y-29036250D01*
X20942350Y-28877500D01*
X20351791Y-28877500D01*
X20118402Y-28974173D01*
X19939773Y-29152801D01*
X19843100Y-29386190D01*
X19810000Y-29386190D01*
X19810000Y-28602999D01*
X19771483Y-28409361D01*
X19661796Y-28245203D01*
X19283134Y-27866541D01*
X19294000Y-27840309D01*
X19294000Y-27249750D01*
X19135250Y-27091000D01*
X18161000Y-27091000D01*
X18161000Y-27111000D01*
X17907000Y-27111000D01*
X17907000Y-27091000D01*
X16129000Y-27091000D01*
X16129000Y-27111000D01*
X15875000Y-27111000D01*
X15875000Y-27091000D01*
X14097000Y-27091000D01*
X14097000Y-27111000D01*
X13843000Y-27111000D01*
X13843000Y-27091000D01*
X12868750Y-27091000D01*
X12710000Y-27249750D01*
X12710000Y-27588999D01*
X8764001Y-27588999D01*
X8634000Y-27458998D01*
X8634000Y-25444359D01*
X8659690Y-25455000D01*
X8800250Y-25455000D01*
X8959000Y-25296250D01*
X8959000Y-24347000D01*
X8939000Y-24347000D01*
X8939000Y-24093000D01*
X8959000Y-24093000D01*
X8959000Y-24073000D01*
X9197536Y-24073000D01*
X9197536Y-24820000D01*
X9197536Y-24820000D01*
G37*
X9197536Y-24820000D02*
X9213000Y-24902183D01*
X9213000Y-25296250D01*
X9371750Y-25455000D01*
X9512310Y-25455000D01*
X9745699Y-25358327D01*
X9895561Y-25208464D01*
X10186000Y-25208464D01*
X10289670Y-25188957D01*
X10386000Y-25208464D01*
X10986000Y-25208464D01*
X11006765Y-25204557D01*
X11018517Y-25263638D01*
X11128204Y-25427796D01*
X11947203Y-26246795D01*
X12111361Y-26356482D01*
X12304999Y-26394999D01*
X12710000Y-26394999D01*
X12710000Y-26678250D01*
X12868750Y-26837000D01*
X13843000Y-26837000D01*
X13843000Y-26817000D01*
X14097000Y-26817000D01*
X14097000Y-26837000D01*
X15875000Y-26837000D01*
X15875000Y-26817000D01*
X16129000Y-26817000D01*
X16129000Y-26837000D01*
X17907000Y-26837000D01*
X17907000Y-26817000D01*
X18161000Y-26817000D01*
X18161000Y-26837000D01*
X19135250Y-26837000D01*
X19294000Y-26678250D01*
X19294000Y-26420686D01*
X21750814Y-28877500D01*
X21513850Y-28877500D01*
X21355100Y-29036250D01*
X21355100Y-30035500D01*
X21375100Y-30035500D01*
X21375100Y-30289500D01*
X21355100Y-30289500D01*
X21355100Y-31288750D01*
X21513850Y-31447500D01*
X21556498Y-31447500D01*
X21010008Y-31993990D01*
X17839562Y-31993990D01*
X17537582Y-31692010D01*
X17989592Y-31240000D01*
X19050000Y-31240000D01*
X19243638Y-31201483D01*
X19407796Y-31091796D01*
X19661796Y-30837796D01*
X19771483Y-30673638D01*
X19810000Y-30480000D01*
X19810000Y-30448250D01*
X19843100Y-30448250D01*
X19843100Y-30938810D01*
X19939773Y-31172199D01*
X20118402Y-31350827D01*
X20351791Y-31447500D01*
X20942350Y-31447500D01*
X21101100Y-31288750D01*
X21101100Y-30289500D01*
X20001850Y-30289500D01*
X19843100Y-30448250D01*
X19810000Y-30448250D01*
X19810000Y-29386190D01*
X19843100Y-29386190D01*
X19843100Y-29876750D01*
X20001850Y-30035500D01*
X21101100Y-30035500D01*
X21101100Y-29036250D01*
X20942350Y-28877500D01*
X20351791Y-28877500D01*
X20118402Y-28974173D01*
X19939773Y-29152801D01*
X19843100Y-29386190D01*
X19810000Y-29386190D01*
X19810000Y-28602999D01*
X19771483Y-28409361D01*
X19661796Y-28245203D01*
X19283134Y-27866541D01*
X19294000Y-27840309D01*
X19294000Y-27249750D01*
X19135250Y-27091000D01*
X18161000Y-27091000D01*
X18161000Y-27111000D01*
X17907000Y-27111000D01*
X17907000Y-27091000D01*
X16129000Y-27091000D01*
X16129000Y-27111000D01*
X15875000Y-27111000D01*
X15875000Y-27091000D01*
X14097000Y-27091000D01*
X14097000Y-27111000D01*
X13843000Y-27111000D01*
X13843000Y-27091000D01*
X12868750Y-27091000D01*
X12710000Y-27249750D01*
X12710000Y-27588999D01*
X8764001Y-27588999D01*
X8634000Y-27458998D01*
X8634000Y-25444359D01*
X8659690Y-25455000D01*
X8800250Y-25455000D01*
X8959000Y-25296250D01*
X8959000Y-24347000D01*
X8939000Y-24347000D01*
X8939000Y-24093000D01*
X8959000Y-24093000D01*
X8959000Y-24073000D01*
X9197536Y-24073000D01*
X9197536Y-24820000D01*
G36*
X19655408Y-22583335D02*
X19921376Y-22693774D01*
X20209361Y-22694025D01*
X20322000Y-22647484D01*
X20322000Y-23606000D01*
X20360517Y-23799638D01*
X20470204Y-23963796D01*
X20740204Y-24233796D01*
X20904362Y-24343483D01*
X20959536Y-24354458D01*
X20959536Y-24501000D01*
X20986103Y-24642190D01*
X21069546Y-24771865D01*
X21196866Y-24858859D01*
X21348000Y-24889464D01*
X21592000Y-24889464D01*
X21592000Y-24894536D01*
X21348000Y-24894536D01*
X21206810Y-24921103D01*
X21077135Y-25004546D01*
X20990141Y-25131866D01*
X20959536Y-25283000D01*
X20959536Y-26085944D01*
X19954786Y-25081194D01*
X19790628Y-24971507D01*
X19596990Y-24932990D01*
X16917337Y-24932990D01*
X16979774Y-24782624D01*
X16980025Y-24494639D01*
X16870050Y-24228479D01*
X16666592Y-24024665D01*
X16642000Y-24014454D01*
X16642000Y-23458464D01*
X16736000Y-23458464D01*
X16877190Y-23431897D01*
X17006865Y-23348454D01*
X17093859Y-23221134D01*
X17124464Y-23070000D01*
X17124464Y-22476000D01*
X19548260Y-22476000D01*
X19655408Y-22583335D01*
X19655408Y-22583335D01*
G37*
X19655408Y-22583335D02*
X19921376Y-22693774D01*
X20209361Y-22694025D01*
X20322000Y-22647484D01*
X20322000Y-23606000D01*
X20360517Y-23799638D01*
X20470204Y-23963796D01*
X20740204Y-24233796D01*
X20904362Y-24343483D01*
X20959536Y-24354458D01*
X20959536Y-24501000D01*
X20986103Y-24642190D01*
X21069546Y-24771865D01*
X21196866Y-24858859D01*
X21348000Y-24889464D01*
X21592000Y-24889464D01*
X21592000Y-24894536D01*
X21348000Y-24894536D01*
X21206810Y-24921103D01*
X21077135Y-25004546D01*
X20990141Y-25131866D01*
X20959536Y-25283000D01*
X20959536Y-26085944D01*
X19954786Y-25081194D01*
X19790628Y-24971507D01*
X19596990Y-24932990D01*
X16917337Y-24932990D01*
X16979774Y-24782624D01*
X16980025Y-24494639D01*
X16870050Y-24228479D01*
X16666592Y-24024665D01*
X16642000Y-24014454D01*
X16642000Y-23458464D01*
X16736000Y-23458464D01*
X16877190Y-23431897D01*
X17006865Y-23348454D01*
X17093859Y-23221134D01*
X17124464Y-23070000D01*
X17124464Y-22476000D01*
X19548260Y-22476000D01*
X19655408Y-22583335D01*
G36*
X23201000Y-14097000D02*
X23221000Y-14097000D01*
X23221000Y-14351000D01*
X23201000Y-14351000D01*
X23201000Y-15325250D01*
X23359750Y-15484000D01*
X23950309Y-15484000D01*
X24183698Y-15387327D01*
X24257000Y-15314025D01*
X24257000Y-17197975D01*
X24183698Y-17124673D01*
X23950309Y-17028000D01*
X23359750Y-17028000D01*
X23201000Y-17186750D01*
X23201000Y-18161000D01*
X23221000Y-18161000D01*
X23221000Y-18415000D01*
X23201000Y-18415000D01*
X23201000Y-18435000D01*
X22947000Y-18435000D01*
X22947000Y-18415000D01*
X22927000Y-18415000D01*
X22927000Y-18161000D01*
X22947000Y-18161000D01*
X22947000Y-17186750D01*
X22788250Y-17028000D01*
X22197691Y-17028000D01*
X21964302Y-17124673D01*
X21785673Y-17303301D01*
X21689000Y-17536690D01*
X21689000Y-17538301D01*
X21685897Y-17521810D01*
X21602454Y-17392135D01*
X21475134Y-17305141D01*
X21324000Y-17274536D01*
X19830464Y-17274536D01*
X19830464Y-17034000D01*
X19803897Y-16892810D01*
X19720454Y-16763135D01*
X19593134Y-16676141D01*
X19442000Y-16645536D01*
X17822999Y-16645536D01*
X17822999Y-16068593D01*
X17969128Y-15922464D01*
X19442000Y-15922464D01*
X19583190Y-15895897D01*
X19712865Y-15812454D01*
X19799859Y-15685134D01*
X19830464Y-15534000D01*
X19830464Y-15237464D01*
X21324000Y-15237464D01*
X21465190Y-15210897D01*
X21594865Y-15127454D01*
X21681859Y-15000134D01*
X21689000Y-14964870D01*
X21689000Y-14975310D01*
X21785673Y-15208699D01*
X21964302Y-15387327D01*
X22197691Y-15484000D01*
X22788250Y-15484000D01*
X22947000Y-15325250D01*
X22947000Y-14351000D01*
X22927000Y-14351000D01*
X22927000Y-14097000D01*
X22947000Y-14097000D01*
X22947000Y-14077000D01*
X23201000Y-14077000D01*
X23201000Y-14097000D01*
X23201000Y-14097000D01*
G37*
X23201000Y-14097000D02*
X23221000Y-14097000D01*
X23221000Y-14351000D01*
X23201000Y-14351000D01*
X23201000Y-15325250D01*
X23359750Y-15484000D01*
X23950309Y-15484000D01*
X24183698Y-15387327D01*
X24257000Y-15314025D01*
X24257000Y-17197975D01*
X24183698Y-17124673D01*
X23950309Y-17028000D01*
X23359750Y-17028000D01*
X23201000Y-17186750D01*
X23201000Y-18161000D01*
X23221000Y-18161000D01*
X23221000Y-18415000D01*
X23201000Y-18415000D01*
X23201000Y-18435000D01*
X22947000Y-18435000D01*
X22947000Y-18415000D01*
X22927000Y-18415000D01*
X22927000Y-18161000D01*
X22947000Y-18161000D01*
X22947000Y-17186750D01*
X22788250Y-17028000D01*
X22197691Y-17028000D01*
X21964302Y-17124673D01*
X21785673Y-17303301D01*
X21689000Y-17536690D01*
X21689000Y-17538301D01*
X21685897Y-17521810D01*
X21602454Y-17392135D01*
X21475134Y-17305141D01*
X21324000Y-17274536D01*
X19830464Y-17274536D01*
X19830464Y-17034000D01*
X19803897Y-16892810D01*
X19720454Y-16763135D01*
X19593134Y-16676141D01*
X19442000Y-16645536D01*
X17822999Y-16645536D01*
X17822999Y-16068593D01*
X17969128Y-15922464D01*
X19442000Y-15922464D01*
X19583190Y-15895897D01*
X19712865Y-15812454D01*
X19799859Y-15685134D01*
X19830464Y-15534000D01*
X19830464Y-15237464D01*
X21324000Y-15237464D01*
X21465190Y-15210897D01*
X21594865Y-15127454D01*
X21681859Y-15000134D01*
X21689000Y-14964870D01*
X21689000Y-14975310D01*
X21785673Y-15208699D01*
X21964302Y-15387327D01*
X22197691Y-15484000D01*
X22788250Y-15484000D01*
X22947000Y-15325250D01*
X22947000Y-14351000D01*
X22927000Y-14351000D01*
X22927000Y-14097000D01*
X22947000Y-14097000D01*
X22947000Y-14077000D01*
X23201000Y-14077000D01*
X23201000Y-14097000D01*
M02*
