G04 #@! TF.FileFunction,Copper,L1,Top,Signal*
%FSLAX46Y46*%
G04 Gerber Fmt 4.6, Leading zero omitted, Abs format (unit mm)*
G04 Created by KiCad (PCBNEW 4.0.5-e0-6337~49~ubuntu16.04.1) date Fri Feb 10 02:02:51 2017*
%MOMM*%
%LPD*%
G01*
G04 APERTURE LIST*
%ADD10C,0.100000*%
%ADD11C,1.500000*%
%ADD12C,1.700000*%
%ADD13O,1.700000X1.700000*%
%ADD14R,1.500000X1.300000*%
%ADD15R,1.300000X1.500000*%
%ADD16R,1.250000X1.500000*%
%ADD17R,1.500000X1.250000*%
%ADD18R,3.960000X3.960000*%
%ADD19R,0.900000X1.300000*%
%ADD20C,0.900000*%
%ADD21R,1.800000X0.750000*%
%ADD22R,1.800000X0.600000*%
%ADD23C,0.685800*%
%ADD24C,0.250000*%
%ADD25C,0.254000*%
G04 APERTURE END LIST*
D10*
D11*
X21971000Y-34163000D03*
X21590000Y-36322000D03*
X6477000Y-35433000D03*
D12*
X21844000Y-4953000D03*
D13*
X19304000Y-5207000D03*
X16764000Y-4953000D03*
X14224000Y-5207000D03*
X11684000Y-4953000D03*
X9144000Y-5207000D03*
X6604000Y-4953000D03*
D14*
X23368000Y-28448000D03*
X20668000Y-28448000D03*
D15*
X23368000Y-17686000D03*
X23368000Y-14986000D03*
D16*
X23368000Y-20828000D03*
X23368000Y-23328000D03*
D17*
X23368000Y-11430000D03*
X20868000Y-11430000D03*
D18*
X10430000Y-20052000D03*
D14*
X23368000Y-9652000D03*
X20668000Y-9652000D03*
D17*
X23368000Y-30464000D03*
X20868000Y-30464000D03*
D19*
X28000000Y-32150000D03*
X28000000Y-28450000D03*
D20*
X26550000Y-28175000D03*
X26550000Y-32425000D03*
D21*
X25650000Y-31525000D03*
D22*
X25650000Y-30300000D03*
D21*
X25650000Y-29075000D03*
D19*
X28004000Y-21344500D03*
X28004000Y-17644500D03*
D20*
X26554000Y-17369500D03*
X26554000Y-21619500D03*
D21*
X25654000Y-20719500D03*
D22*
X25654000Y-19494500D03*
D21*
X25654000Y-18269500D03*
D19*
X28004000Y-10486000D03*
X28004000Y-6786000D03*
D20*
X26554000Y-6511000D03*
X26554000Y-10761000D03*
D21*
X25654000Y-9861000D03*
D22*
X25654000Y-8636000D03*
D21*
X25654000Y-7411000D03*
D23*
X7620000Y-37592000D03*
X18034000Y-23368000D03*
X20447000Y-37592000D03*
X7620000Y-31242000D03*
X7620000Y-32766000D03*
X9144000Y-32766000D03*
X20320000Y-31750000D03*
X17780000Y-31750000D03*
X19050000Y-31750000D03*
X11430000Y-26924000D03*
X9906000Y-26924000D03*
X19304000Y-16256000D03*
X20320000Y-16256000D03*
X21336000Y-16256000D03*
X22352000Y-16256000D03*
X14732000Y-19050000D03*
X18034000Y-21082000D03*
X20066000Y-21970000D03*
X16256000Y-24638000D03*
D24*
X23368000Y-23328000D02*
X18074000Y-23328000D01*
X18074000Y-23328000D02*
X18034000Y-23368000D01*
X25654000Y-8636000D02*
X23484000Y-8636000D01*
X23484000Y-8636000D02*
X23368000Y-8752000D01*
X23368000Y-8752000D02*
X23368000Y-9652000D01*
X23550000Y-9470000D02*
X23368000Y-9652000D01*
X23368000Y-9652000D02*
X23368000Y-11430000D01*
X23368000Y-18542000D02*
X23368000Y-19558000D01*
X23368000Y-19558000D02*
X23368000Y-20828000D01*
X25654000Y-19558000D02*
X24240000Y-19558000D01*
X24240000Y-19558000D02*
X23368000Y-19558000D01*
X23368000Y-18542000D02*
X23368000Y-18686000D01*
X23368000Y-17686000D02*
X23368000Y-18542000D01*
X23368000Y-20828000D02*
X23368000Y-19828000D01*
X25650000Y-30300000D02*
X23532000Y-30300000D01*
X23532000Y-30300000D02*
X23368000Y-30464000D01*
X23368000Y-28448000D02*
X23368000Y-29464000D01*
X23368000Y-29464000D02*
X23368000Y-30464000D01*
X23876000Y-28432000D02*
X23876000Y-28164000D01*
X14732000Y-19050000D02*
X14732000Y-12065000D01*
X14732000Y-12065000D02*
X21844000Y-4953000D01*
X17018000Y-19641736D02*
X17018000Y-13716000D01*
X20668000Y-9652000D02*
X19668000Y-9652000D01*
X19668000Y-9652000D02*
X17018000Y-12302000D01*
X17018000Y-12302000D02*
X17018000Y-13716000D01*
X18034000Y-21082000D02*
X18034000Y-20657736D01*
X18034000Y-20657736D02*
X17018000Y-19641736D01*
X18288000Y-18034000D02*
X18542000Y-18288000D01*
X20066000Y-19812000D02*
X18542000Y-18288000D01*
X18542000Y-18288000D02*
X19050000Y-18796000D01*
X20066000Y-21970000D02*
X20066000Y-19812000D01*
X23368000Y-14986000D02*
X19050000Y-14986000D01*
X19050000Y-14986000D02*
X18288000Y-15748000D01*
X18288000Y-15748000D02*
X18288000Y-18034000D01*
X20668000Y-28448000D02*
X18796000Y-28448000D01*
X18796000Y-28448000D02*
X16256000Y-25908000D01*
X16256000Y-25908000D02*
X16256000Y-24638000D01*
D25*
G36*
X8087445Y-577712D02*
X8585456Y-910472D01*
X8918216Y-1408483D01*
X9052762Y-2084889D01*
X9068391Y-2122620D01*
X9078711Y-2174504D01*
X9108101Y-2218490D01*
X9120850Y-2249268D01*
X9144406Y-2272824D01*
X9177559Y-2322441D01*
X9227176Y-2355594D01*
X9246660Y-2375078D01*
X9272118Y-2385623D01*
X9325496Y-2421289D01*
X9388458Y-2433813D01*
X9411038Y-2443166D01*
X9435479Y-2443166D01*
X9500000Y-2456000D01*
X19000000Y-2456000D01*
X19064521Y-2443166D01*
X19088962Y-2443166D01*
X19111543Y-2433813D01*
X19174504Y-2421289D01*
X19227879Y-2385625D01*
X19253340Y-2375079D01*
X19272827Y-2355592D01*
X19322441Y-2322441D01*
X19355593Y-2272825D01*
X19379150Y-2249268D01*
X19391899Y-2218490D01*
X19421289Y-2174504D01*
X19431609Y-2122620D01*
X19447238Y-2084889D01*
X19581784Y-1408483D01*
X19914544Y-910472D01*
X20412555Y-577712D01*
X21024440Y-456000D01*
X25555089Y-456000D01*
X26570128Y-657904D01*
X27392562Y-1207438D01*
X27942096Y-2029872D01*
X28144000Y-3044911D01*
X28144000Y-5646750D01*
X28131000Y-5659750D01*
X28131000Y-6659000D01*
X28144000Y-6659000D01*
X28144000Y-6913000D01*
X28131000Y-6913000D01*
X28131000Y-7912250D01*
X28144000Y-7925250D01*
X28144000Y-9346750D01*
X28131000Y-9359750D01*
X28131000Y-10359000D01*
X28144000Y-10359000D01*
X28144000Y-10613000D01*
X28131000Y-10613000D01*
X28131000Y-11612250D01*
X28144000Y-11625250D01*
X28144000Y-16505250D01*
X28131000Y-16518250D01*
X28131000Y-17517500D01*
X28144000Y-17517500D01*
X28144000Y-17771500D01*
X28131000Y-17771500D01*
X28131000Y-18770750D01*
X28144000Y-18783750D01*
X28144000Y-20205250D01*
X28131000Y-20218250D01*
X28131000Y-21217500D01*
X28144000Y-21217500D01*
X28144000Y-21471500D01*
X28131000Y-21471500D01*
X28131000Y-22470750D01*
X28144000Y-22483750D01*
X28144000Y-27306750D01*
X28127000Y-27323750D01*
X28127000Y-28323000D01*
X28144000Y-28323000D01*
X28144000Y-28577000D01*
X28127000Y-28577000D01*
X28127000Y-29576250D01*
X28144000Y-29593250D01*
X28144000Y-31006750D01*
X28127000Y-31023750D01*
X28127000Y-32023000D01*
X28144000Y-32023000D01*
X28144000Y-32277000D01*
X28127000Y-32277000D01*
X28127000Y-33276250D01*
X28144000Y-33293250D01*
X28144000Y-35955089D01*
X27942096Y-36970128D01*
X27392562Y-37792562D01*
X26570128Y-38342096D01*
X25555089Y-38544000D01*
X21044911Y-38544000D01*
X20412555Y-38418216D01*
X19914544Y-38085456D01*
X19581784Y-37587445D01*
X19447238Y-36911039D01*
X19430051Y-36869546D01*
X19421289Y-36825496D01*
X19396336Y-36788152D01*
X19379150Y-36746660D01*
X19347394Y-36714903D01*
X19322441Y-36677559D01*
X19285098Y-36652607D01*
X19253340Y-36620849D01*
X19211845Y-36603661D01*
X19174504Y-36578711D01*
X19130456Y-36569949D01*
X19088962Y-36552762D01*
X19044050Y-36552762D01*
X19009970Y-36545983D01*
X20458804Y-36545983D01*
X20630625Y-36961823D01*
X20948503Y-37280256D01*
X21364043Y-37452804D01*
X21813983Y-37453196D01*
X22229823Y-37281375D01*
X22548256Y-36963497D01*
X22720804Y-36547957D01*
X22720975Y-36350936D01*
X23322606Y-36350936D01*
X23668528Y-37188132D01*
X24308499Y-37829221D01*
X25145090Y-38176604D01*
X26050936Y-38177394D01*
X26888132Y-37831472D01*
X27529221Y-37191501D01*
X27876604Y-36354910D01*
X27877394Y-35449064D01*
X27531472Y-34611868D01*
X26891501Y-33970779D01*
X26054910Y-33623396D01*
X25149064Y-33622606D01*
X24311868Y-33968528D01*
X23670779Y-34608499D01*
X23323396Y-35445090D01*
X23322606Y-36350936D01*
X22720975Y-36350936D01*
X22721196Y-36098017D01*
X22549375Y-35682177D01*
X22231497Y-35363744D01*
X22063732Y-35294082D01*
X22194983Y-35294196D01*
X22610823Y-35122375D01*
X22929256Y-34804497D01*
X23101804Y-34388957D01*
X23102196Y-33939017D01*
X22930375Y-33523177D01*
X22612497Y-33204744D01*
X22196957Y-33032196D01*
X21747017Y-33031804D01*
X21331177Y-33203625D01*
X21012744Y-33521503D01*
X20840196Y-33937043D01*
X20839804Y-34386983D01*
X21011625Y-34802823D01*
X21329503Y-35121256D01*
X21497268Y-35190918D01*
X21366017Y-35190804D01*
X20950177Y-35362625D01*
X20631744Y-35680503D01*
X20459196Y-36096043D01*
X20458804Y-36545983D01*
X19009970Y-36545983D01*
X19000000Y-36544000D01*
X9500000Y-36544000D01*
X9455950Y-36552762D01*
X9411038Y-36552762D01*
X9369545Y-36569949D01*
X9325496Y-36578711D01*
X9288152Y-36603663D01*
X9246660Y-36620850D01*
X9214904Y-36652606D01*
X9177559Y-36677559D01*
X9152606Y-36714904D01*
X9120850Y-36746660D01*
X9103664Y-36788152D01*
X9078711Y-36825496D01*
X9069949Y-36869546D01*
X9052762Y-36911039D01*
X8918216Y-37587445D01*
X8585456Y-38085456D01*
X8087445Y-38418216D01*
X7455088Y-38544000D01*
X3044911Y-38544000D01*
X2029872Y-38342096D01*
X1207438Y-37792562D01*
X657904Y-36970128D01*
X534739Y-36350936D01*
X722606Y-36350936D01*
X1068528Y-37188132D01*
X1708499Y-37829221D01*
X2545090Y-38176604D01*
X3450936Y-38177394D01*
X4288132Y-37831472D01*
X4929221Y-37191501D01*
X5276604Y-36354910D01*
X5277212Y-35656983D01*
X5345804Y-35656983D01*
X5517625Y-36072823D01*
X5835503Y-36391256D01*
X6251043Y-36563804D01*
X6700983Y-36564196D01*
X7116823Y-36392375D01*
X7435256Y-36074497D01*
X7607804Y-35658957D01*
X7608196Y-35209017D01*
X7436375Y-34793177D01*
X7118497Y-34474744D01*
X6702957Y-34302196D01*
X6253017Y-34301804D01*
X5837177Y-34473625D01*
X5518744Y-34791503D01*
X5346196Y-35207043D01*
X5345804Y-35656983D01*
X5277212Y-35656983D01*
X5277394Y-35449064D01*
X4931472Y-34611868D01*
X4291501Y-33970779D01*
X3454910Y-33623396D01*
X2549064Y-33622606D01*
X1711868Y-33968528D01*
X1070779Y-34608499D01*
X723396Y-35445090D01*
X722606Y-36350936D01*
X534739Y-36350936D01*
X456000Y-35955089D01*
X456000Y-30865640D01*
X9123774Y-30865640D01*
X9322182Y-31345823D01*
X9689245Y-31713527D01*
X10169081Y-31912773D01*
X10688640Y-31913226D01*
X10936650Y-31810750D01*
X24115000Y-31810750D01*
X24115000Y-32026310D01*
X24211673Y-32259699D01*
X24390302Y-32438327D01*
X24623691Y-32535000D01*
X25364250Y-32535000D01*
X25523000Y-32376250D01*
X25523000Y-31652000D01*
X24273750Y-31652000D01*
X24115000Y-31810750D01*
X10936650Y-31810750D01*
X11168823Y-31714818D01*
X11536527Y-31347755D01*
X11735773Y-30867919D01*
X11735876Y-30749750D01*
X19483000Y-30749750D01*
X19483000Y-31215310D01*
X19579673Y-31448699D01*
X19758302Y-31627327D01*
X19991691Y-31724000D01*
X20582250Y-31724000D01*
X20741000Y-31565250D01*
X20741000Y-30591000D01*
X19641750Y-30591000D01*
X19483000Y-30749750D01*
X11735876Y-30749750D01*
X11736226Y-30348360D01*
X11537818Y-29868177D01*
X11170755Y-29500473D01*
X10690919Y-29301227D01*
X10171360Y-29300774D01*
X9691177Y-29499182D01*
X9323473Y-29866245D01*
X9124227Y-30346081D01*
X9123774Y-30865640D01*
X456000Y-30865640D01*
X456000Y-24781361D01*
X15531975Y-24781361D01*
X15641950Y-25047521D01*
X15750000Y-25155760D01*
X15750000Y-25908000D01*
X15788517Y-26101638D01*
X15898204Y-26265796D01*
X18438204Y-28805796D01*
X18602362Y-28915483D01*
X18796000Y-28954000D01*
X19529536Y-28954000D01*
X19529536Y-29098000D01*
X19556103Y-29239190D01*
X19639546Y-29368865D01*
X19669585Y-29389390D01*
X19579673Y-29479301D01*
X19483000Y-29712690D01*
X19483000Y-30178250D01*
X19641750Y-30337000D01*
X20741000Y-30337000D01*
X20741000Y-30317000D01*
X20995000Y-30317000D01*
X20995000Y-30337000D01*
X21015000Y-30337000D01*
X21015000Y-30591000D01*
X20995000Y-30591000D01*
X20995000Y-31565250D01*
X21153750Y-31724000D01*
X21744309Y-31724000D01*
X21977698Y-31627327D01*
X22156327Y-31448699D01*
X22253000Y-31215310D01*
X22253000Y-31213699D01*
X22256103Y-31230190D01*
X22339546Y-31359865D01*
X22466866Y-31446859D01*
X22618000Y-31477464D01*
X24118000Y-31477464D01*
X24259190Y-31450897D01*
X24341395Y-31398000D01*
X25523000Y-31398000D01*
X25523000Y-31378000D01*
X25777000Y-31378000D01*
X25777000Y-31398000D01*
X25797000Y-31398000D01*
X25797000Y-31652000D01*
X25777000Y-31652000D01*
X25777000Y-32376250D01*
X25935750Y-32535000D01*
X26676309Y-32535000D01*
X26909698Y-32438327D01*
X27071024Y-32277002D01*
X27073748Y-32277002D01*
X26915000Y-32435750D01*
X26915000Y-32926309D01*
X27011673Y-33159698D01*
X27190301Y-33338327D01*
X27423690Y-33435000D01*
X27714250Y-33435000D01*
X27873000Y-33276250D01*
X27873000Y-32277000D01*
X27853000Y-32277000D01*
X27853000Y-32023000D01*
X27873000Y-32023000D01*
X27873000Y-31023750D01*
X27714250Y-30865000D01*
X27423690Y-30865000D01*
X27190301Y-30961673D01*
X27168388Y-30983586D01*
X27088327Y-30790301D01*
X26931654Y-30633629D01*
X26938464Y-30600000D01*
X26938464Y-30000000D01*
X26932060Y-29965965D01*
X27088327Y-29809699D01*
X27168388Y-29616414D01*
X27190301Y-29638327D01*
X27423690Y-29735000D01*
X27714250Y-29735000D01*
X27873000Y-29576250D01*
X27873000Y-28577000D01*
X27853000Y-28577000D01*
X27853000Y-28323000D01*
X27873000Y-28323000D01*
X27873000Y-27323750D01*
X27714250Y-27165000D01*
X27423690Y-27165000D01*
X27190301Y-27261673D01*
X27011673Y-27440302D01*
X26915000Y-27673691D01*
X26915000Y-28164250D01*
X27073748Y-28322998D01*
X27071024Y-28322998D01*
X26909698Y-28161673D01*
X26676309Y-28065000D01*
X25935750Y-28065000D01*
X25777000Y-28223750D01*
X25777000Y-28948000D01*
X25797000Y-28948000D01*
X25797000Y-29202000D01*
X25777000Y-29202000D01*
X25777000Y-29222000D01*
X25523000Y-29222000D01*
X25523000Y-29202000D01*
X25503000Y-29202000D01*
X25503000Y-28948000D01*
X25523000Y-28948000D01*
X25523000Y-28223750D01*
X25364250Y-28065000D01*
X24623691Y-28065000D01*
X24506464Y-28113557D01*
X24506464Y-27798000D01*
X24479897Y-27656810D01*
X24396454Y-27527135D01*
X24269134Y-27440141D01*
X24118000Y-27409536D01*
X22618000Y-27409536D01*
X22476810Y-27436103D01*
X22347135Y-27519546D01*
X22260141Y-27646866D01*
X22229536Y-27798000D01*
X22229536Y-29098000D01*
X22256103Y-29239190D01*
X22339546Y-29368865D01*
X22466866Y-29455859D01*
X22526034Y-29467841D01*
X22476810Y-29477103D01*
X22347135Y-29560546D01*
X22260141Y-29687866D01*
X22253000Y-29723130D01*
X22253000Y-29712690D01*
X22156327Y-29479301D01*
X21977698Y-29300673D01*
X21781850Y-29219550D01*
X21806464Y-29098000D01*
X21806464Y-27798000D01*
X21779897Y-27656810D01*
X21696454Y-27527135D01*
X21569134Y-27440141D01*
X21418000Y-27409536D01*
X19918000Y-27409536D01*
X19776810Y-27436103D01*
X19647135Y-27519546D01*
X19560141Y-27646866D01*
X19529536Y-27798000D01*
X19529536Y-27942000D01*
X19005592Y-27942000D01*
X16762000Y-25698408D01*
X16762000Y-25155740D01*
X16869335Y-25048592D01*
X16979774Y-24782624D01*
X16980025Y-24494639D01*
X16870050Y-24228479D01*
X16666592Y-24024665D01*
X16400624Y-23914226D01*
X16112639Y-23913975D01*
X15846479Y-24023950D01*
X15642665Y-24227408D01*
X15532226Y-24493376D01*
X15531975Y-24781361D01*
X456000Y-24781361D01*
X456000Y-23613750D01*
X22108000Y-23613750D01*
X22108000Y-24204309D01*
X22204673Y-24437698D01*
X22383301Y-24616327D01*
X22616690Y-24713000D01*
X23082250Y-24713000D01*
X23241000Y-24554250D01*
X23241000Y-23455000D01*
X23495000Y-23455000D01*
X23495000Y-24554250D01*
X23653750Y-24713000D01*
X24119310Y-24713000D01*
X24352699Y-24616327D01*
X24531327Y-24437698D01*
X24628000Y-24204309D01*
X24628000Y-23613750D01*
X24469250Y-23455000D01*
X23495000Y-23455000D01*
X23241000Y-23455000D01*
X22266750Y-23455000D01*
X22108000Y-23613750D01*
X456000Y-23613750D01*
X456000Y-20337750D01*
X7815000Y-20337750D01*
X7815000Y-22158309D01*
X7911673Y-22391698D01*
X8090301Y-22570327D01*
X8323690Y-22667000D01*
X10144250Y-22667000D01*
X10303000Y-22508250D01*
X10303000Y-20179000D01*
X10557000Y-20179000D01*
X10557000Y-22508250D01*
X10715750Y-22667000D01*
X12536310Y-22667000D01*
X12769699Y-22570327D01*
X12948327Y-22391698D01*
X13045000Y-22158309D01*
X13045000Y-20337750D01*
X12886250Y-20179000D01*
X10557000Y-20179000D01*
X10303000Y-20179000D01*
X7973750Y-20179000D01*
X7815000Y-20337750D01*
X456000Y-20337750D01*
X456000Y-17945691D01*
X7815000Y-17945691D01*
X7815000Y-19766250D01*
X7973750Y-19925000D01*
X10303000Y-19925000D01*
X10303000Y-17595750D01*
X10557000Y-17595750D01*
X10557000Y-19925000D01*
X12886250Y-19925000D01*
X13045000Y-19766250D01*
X13045000Y-19193361D01*
X14007975Y-19193361D01*
X14117950Y-19459521D01*
X14321408Y-19663335D01*
X14587376Y-19773774D01*
X14875361Y-19774025D01*
X15141521Y-19664050D01*
X15345335Y-19460592D01*
X15455774Y-19194624D01*
X15456025Y-18906639D01*
X15346050Y-18640479D01*
X15238000Y-18532240D01*
X15238000Y-12302000D01*
X16512000Y-12302000D01*
X16512000Y-19641736D01*
X16550517Y-19835374D01*
X16660204Y-19999532D01*
X17394674Y-20734002D01*
X17310226Y-20937376D01*
X17309975Y-21225361D01*
X17419950Y-21491521D01*
X17623408Y-21695335D01*
X17889376Y-21805774D01*
X18177361Y-21806025D01*
X18443521Y-21696050D01*
X18647335Y-21492592D01*
X18757774Y-21226624D01*
X18758025Y-20938639D01*
X18648050Y-20672479D01*
X18516775Y-20540974D01*
X18501483Y-20464098D01*
X18391796Y-20299940D01*
X17524000Y-19432144D01*
X17524000Y-15748000D01*
X17782000Y-15748000D01*
X17782000Y-18034000D01*
X17820517Y-18227638D01*
X17930204Y-18391796D01*
X19560000Y-20021592D01*
X19560000Y-21452260D01*
X19452665Y-21559408D01*
X19342226Y-21825376D01*
X19341975Y-22113361D01*
X19451950Y-22379521D01*
X19655408Y-22583335D01*
X19921376Y-22693774D01*
X20209361Y-22694025D01*
X20475521Y-22584050D01*
X20608111Y-22451691D01*
X22108000Y-22451691D01*
X22108000Y-23042250D01*
X22266750Y-23201000D01*
X23241000Y-23201000D01*
X23241000Y-23181000D01*
X23495000Y-23181000D01*
X23495000Y-23201000D01*
X24469250Y-23201000D01*
X24628000Y-23042250D01*
X24628000Y-22451691D01*
X24531327Y-22218302D01*
X24352699Y-22039673D01*
X24119310Y-21943000D01*
X24117699Y-21943000D01*
X24134190Y-21939897D01*
X24263865Y-21856454D01*
X24350859Y-21729134D01*
X24374393Y-21612918D01*
X24394302Y-21632827D01*
X24627691Y-21729500D01*
X25368250Y-21729500D01*
X25527000Y-21570750D01*
X25527000Y-20846500D01*
X25507000Y-20846500D01*
X25507000Y-20592500D01*
X25527000Y-20592500D01*
X25527000Y-20572500D01*
X25781000Y-20572500D01*
X25781000Y-20592500D01*
X25801000Y-20592500D01*
X25801000Y-20846500D01*
X25781000Y-20846500D01*
X25781000Y-21570750D01*
X25939750Y-21729500D01*
X26680309Y-21729500D01*
X26913698Y-21632827D01*
X27075024Y-21471502D01*
X27077748Y-21471502D01*
X26919000Y-21630250D01*
X26919000Y-22120809D01*
X27015673Y-22354198D01*
X27194301Y-22532827D01*
X27427690Y-22629500D01*
X27718250Y-22629500D01*
X27877000Y-22470750D01*
X27877000Y-21471500D01*
X27857000Y-21471500D01*
X27857000Y-21217500D01*
X27877000Y-21217500D01*
X27877000Y-20218250D01*
X27718250Y-20059500D01*
X27427690Y-20059500D01*
X27194301Y-20156173D01*
X27172388Y-20178086D01*
X27092327Y-19984801D01*
X26935654Y-19828129D01*
X26942464Y-19794500D01*
X26942464Y-19194500D01*
X26936060Y-19160465D01*
X27092327Y-19004199D01*
X27172388Y-18810914D01*
X27194301Y-18832827D01*
X27427690Y-18929500D01*
X27718250Y-18929500D01*
X27877000Y-18770750D01*
X27877000Y-17771500D01*
X27857000Y-17771500D01*
X27857000Y-17517500D01*
X27877000Y-17517500D01*
X27877000Y-16518250D01*
X27718250Y-16359500D01*
X27427690Y-16359500D01*
X27194301Y-16456173D01*
X27015673Y-16634802D01*
X26919000Y-16868191D01*
X26919000Y-17358750D01*
X27077748Y-17517498D01*
X27075024Y-17517498D01*
X26913698Y-17356173D01*
X26680309Y-17259500D01*
X25939750Y-17259500D01*
X25781000Y-17418250D01*
X25781000Y-18142500D01*
X25801000Y-18142500D01*
X25801000Y-18396500D01*
X25781000Y-18396500D01*
X25781000Y-18416500D01*
X25527000Y-18416500D01*
X25527000Y-18396500D01*
X25507000Y-18396500D01*
X25507000Y-18142500D01*
X25527000Y-18142500D01*
X25527000Y-17418250D01*
X25368250Y-17259500D01*
X24627691Y-17259500D01*
X24406464Y-17351135D01*
X24406464Y-16936000D01*
X24379897Y-16794810D01*
X24296454Y-16665135D01*
X24169134Y-16578141D01*
X24018000Y-16547536D01*
X22718000Y-16547536D01*
X22576810Y-16574103D01*
X22447135Y-16657546D01*
X22360141Y-16784866D01*
X22329536Y-16936000D01*
X22329536Y-18436000D01*
X22356103Y-18577190D01*
X22439546Y-18706865D01*
X22566866Y-18793859D01*
X22718000Y-18824464D01*
X22862000Y-18824464D01*
X22862000Y-19689536D01*
X22743000Y-19689536D01*
X22601810Y-19716103D01*
X22472135Y-19799546D01*
X22385141Y-19926866D01*
X22354536Y-20078000D01*
X22354536Y-21578000D01*
X22381103Y-21719190D01*
X22464546Y-21848865D01*
X22591866Y-21935859D01*
X22627130Y-21943000D01*
X22616690Y-21943000D01*
X22383301Y-22039673D01*
X22204673Y-22218302D01*
X22108000Y-22451691D01*
X20608111Y-22451691D01*
X20679335Y-22380592D01*
X20789774Y-22114624D01*
X20790025Y-21826639D01*
X20680050Y-21560479D01*
X20572000Y-21452240D01*
X20572000Y-19812000D01*
X20533483Y-19618362D01*
X20423796Y-19454204D01*
X18794000Y-17824408D01*
X18794000Y-15957592D01*
X19259592Y-15492000D01*
X22329536Y-15492000D01*
X22329536Y-15736000D01*
X22356103Y-15877190D01*
X22439546Y-16006865D01*
X22566866Y-16093859D01*
X22718000Y-16124464D01*
X24018000Y-16124464D01*
X24159190Y-16097897D01*
X24288865Y-16014454D01*
X24375859Y-15887134D01*
X24406464Y-15736000D01*
X24406464Y-14236000D01*
X24379897Y-14094810D01*
X24296454Y-13965135D01*
X24169134Y-13878141D01*
X24018000Y-13847536D01*
X22718000Y-13847536D01*
X22576810Y-13874103D01*
X22447135Y-13957546D01*
X22360141Y-14084866D01*
X22329536Y-14236000D01*
X22329536Y-14480000D01*
X19050000Y-14480000D01*
X18856362Y-14518517D01*
X18692204Y-14628204D01*
X17930204Y-15390204D01*
X17820517Y-15554362D01*
X17782000Y-15748000D01*
X17524000Y-15748000D01*
X17524000Y-12511592D01*
X18319842Y-11715750D01*
X19483000Y-11715750D01*
X19483000Y-12181310D01*
X19579673Y-12414699D01*
X19758302Y-12593327D01*
X19991691Y-12690000D01*
X20582250Y-12690000D01*
X20741000Y-12531250D01*
X20741000Y-11557000D01*
X19641750Y-11557000D01*
X19483000Y-11715750D01*
X18319842Y-11715750D01*
X19570315Y-10465277D01*
X19570974Y-10466301D01*
X19483000Y-10678690D01*
X19483000Y-11144250D01*
X19641750Y-11303000D01*
X20741000Y-11303000D01*
X20741000Y-11283000D01*
X20995000Y-11283000D01*
X20995000Y-11303000D01*
X21015000Y-11303000D01*
X21015000Y-11557000D01*
X20995000Y-11557000D01*
X20995000Y-12531250D01*
X21153750Y-12690000D01*
X21744309Y-12690000D01*
X21977698Y-12593327D01*
X22156327Y-12414699D01*
X22253000Y-12181310D01*
X22253000Y-12179699D01*
X22256103Y-12196190D01*
X22339546Y-12325865D01*
X22466866Y-12412859D01*
X22618000Y-12443464D01*
X24118000Y-12443464D01*
X24259190Y-12416897D01*
X24388865Y-12333454D01*
X24475859Y-12206134D01*
X24506464Y-12055000D01*
X24506464Y-10820786D01*
X24627691Y-10871000D01*
X25368250Y-10871000D01*
X25527000Y-10712250D01*
X25527000Y-9988000D01*
X25507000Y-9988000D01*
X25507000Y-9734000D01*
X25527000Y-9734000D01*
X25527000Y-9714000D01*
X25781000Y-9714000D01*
X25781000Y-9734000D01*
X25801000Y-9734000D01*
X25801000Y-9988000D01*
X25781000Y-9988000D01*
X25781000Y-10712250D01*
X25939750Y-10871000D01*
X26680309Y-10871000D01*
X26913698Y-10774327D01*
X27075024Y-10613002D01*
X27077748Y-10613002D01*
X26919000Y-10771750D01*
X26919000Y-11262309D01*
X27015673Y-11495698D01*
X27194301Y-11674327D01*
X27427690Y-11771000D01*
X27718250Y-11771000D01*
X27877000Y-11612250D01*
X27877000Y-10613000D01*
X27857000Y-10613000D01*
X27857000Y-10359000D01*
X27877000Y-10359000D01*
X27877000Y-9359750D01*
X27718250Y-9201000D01*
X27427690Y-9201000D01*
X27194301Y-9297673D01*
X27172388Y-9319586D01*
X27092327Y-9126301D01*
X26935654Y-8969629D01*
X26942464Y-8936000D01*
X26942464Y-8336000D01*
X26936060Y-8301965D01*
X27092327Y-8145699D01*
X27172388Y-7952414D01*
X27194301Y-7974327D01*
X27427690Y-8071000D01*
X27718250Y-8071000D01*
X27877000Y-7912250D01*
X27877000Y-6913000D01*
X27857000Y-6913000D01*
X27857000Y-6659000D01*
X27877000Y-6659000D01*
X27877000Y-5659750D01*
X27718250Y-5501000D01*
X27427690Y-5501000D01*
X27194301Y-5597673D01*
X27015673Y-5776302D01*
X26919000Y-6009691D01*
X26919000Y-6500250D01*
X27077748Y-6658998D01*
X27075024Y-6658998D01*
X26913698Y-6497673D01*
X26680309Y-6401000D01*
X25939750Y-6401000D01*
X25781000Y-6559750D01*
X25781000Y-7284000D01*
X25801000Y-7284000D01*
X25801000Y-7538000D01*
X25781000Y-7538000D01*
X25781000Y-7558000D01*
X25527000Y-7558000D01*
X25527000Y-7538000D01*
X24277750Y-7538000D01*
X24119000Y-7696750D01*
X24119000Y-7912310D01*
X24209170Y-8130000D01*
X23484000Y-8130000D01*
X23290362Y-8168517D01*
X23174401Y-8246000D01*
X23126204Y-8278204D01*
X23010204Y-8394204D01*
X22900517Y-8558362D01*
X22889542Y-8613536D01*
X22618000Y-8613536D01*
X22476810Y-8640103D01*
X22347135Y-8723546D01*
X22260141Y-8850866D01*
X22229536Y-9002000D01*
X22229536Y-10302000D01*
X22256103Y-10443190D01*
X22327877Y-10554731D01*
X22260141Y-10653866D01*
X22253000Y-10689130D01*
X22253000Y-10678690D01*
X22156327Y-10445301D01*
X21977698Y-10266673D01*
X21806464Y-10195745D01*
X21806464Y-9002000D01*
X21779897Y-8860810D01*
X21696454Y-8731135D01*
X21569134Y-8644141D01*
X21418000Y-8613536D01*
X19918000Y-8613536D01*
X19776810Y-8640103D01*
X19647135Y-8723546D01*
X19560141Y-8850866D01*
X19529536Y-9002000D01*
X19529536Y-9173542D01*
X19474362Y-9184517D01*
X19310204Y-9294204D01*
X16660204Y-11944204D01*
X16550517Y-12108362D01*
X16512000Y-12302000D01*
X15238000Y-12302000D01*
X15238000Y-12274592D01*
X20602902Y-6909690D01*
X24119000Y-6909690D01*
X24119000Y-7125250D01*
X24277750Y-7284000D01*
X25527000Y-7284000D01*
X25527000Y-6559750D01*
X25368250Y-6401000D01*
X24627691Y-6401000D01*
X24394302Y-6497673D01*
X24215673Y-6676301D01*
X24119000Y-6909690D01*
X20602902Y-6909690D01*
X21407808Y-6104784D01*
X21598065Y-6183786D01*
X22087787Y-6184213D01*
X22540395Y-5997200D01*
X22886983Y-5651216D01*
X23074786Y-5198935D01*
X23075213Y-4709213D01*
X22888200Y-4256605D01*
X22542216Y-3910017D01*
X22089935Y-3722214D01*
X21600213Y-3721787D01*
X21147605Y-3908800D01*
X20801017Y-4254784D01*
X20613214Y-4707065D01*
X20612787Y-5196787D01*
X20692266Y-5389142D01*
X20456713Y-5624695D01*
X20535000Y-5231117D01*
X20535000Y-5182883D01*
X20441296Y-4711800D01*
X20174448Y-4312435D01*
X19775083Y-4045587D01*
X19304000Y-3951883D01*
X18832917Y-4045587D01*
X18433552Y-4312435D01*
X18166704Y-4711800D01*
X18073000Y-5182883D01*
X18073000Y-5231117D01*
X18166704Y-5702200D01*
X18433552Y-6101565D01*
X18832917Y-6368413D01*
X19304000Y-6462117D01*
X19697578Y-6383830D01*
X14374204Y-11707204D01*
X14264517Y-11871362D01*
X14226000Y-12065000D01*
X14226000Y-18532260D01*
X14118665Y-18639408D01*
X14008226Y-18905376D01*
X14007975Y-19193361D01*
X13045000Y-19193361D01*
X13045000Y-17945691D01*
X12948327Y-17712302D01*
X12769699Y-17533673D01*
X12536310Y-17437000D01*
X10715750Y-17437000D01*
X10557000Y-17595750D01*
X10303000Y-17595750D01*
X10144250Y-17437000D01*
X8323690Y-17437000D01*
X8090301Y-17533673D01*
X7911673Y-17712302D01*
X7815000Y-17945691D01*
X456000Y-17945691D01*
X456000Y-9755640D01*
X9123774Y-9755640D01*
X9322182Y-10235823D01*
X9689245Y-10603527D01*
X10169081Y-10802773D01*
X10688640Y-10803226D01*
X11168823Y-10604818D01*
X11536527Y-10237755D01*
X11735773Y-9757919D01*
X11736226Y-9238360D01*
X11537818Y-8758177D01*
X11170755Y-8390473D01*
X10690919Y-8191227D01*
X10171360Y-8190774D01*
X9691177Y-8389182D01*
X9323473Y-8756245D01*
X9124227Y-9236081D01*
X9123774Y-9755640D01*
X456000Y-9755640D01*
X456000Y-3350936D01*
X722606Y-3350936D01*
X1068528Y-4188132D01*
X1708499Y-4829221D01*
X2545090Y-5176604D01*
X3450936Y-5177394D01*
X4052379Y-4928883D01*
X5373000Y-4928883D01*
X5373000Y-4977117D01*
X5466704Y-5448200D01*
X5733552Y-5847565D01*
X6132917Y-6114413D01*
X6604000Y-6208117D01*
X7075083Y-6114413D01*
X7474448Y-5847565D01*
X7741296Y-5448200D01*
X7794070Y-5182883D01*
X7913000Y-5182883D01*
X7913000Y-5231117D01*
X8006704Y-5702200D01*
X8273552Y-6101565D01*
X8672917Y-6368413D01*
X9144000Y-6462117D01*
X9615083Y-6368413D01*
X10014448Y-6101565D01*
X10281296Y-5702200D01*
X10324574Y-5484627D01*
X10488817Y-5834358D01*
X10917076Y-6224645D01*
X11327110Y-6394476D01*
X11557000Y-6273155D01*
X11557000Y-5080000D01*
X11537000Y-5080000D01*
X11537000Y-4826000D01*
X11557000Y-4826000D01*
X11557000Y-3632845D01*
X11811000Y-3632845D01*
X11811000Y-4826000D01*
X11831000Y-4826000D01*
X11831000Y-5080000D01*
X11811000Y-5080000D01*
X11811000Y-6273155D01*
X12040890Y-6394476D01*
X12450924Y-6224645D01*
X12879183Y-5834358D01*
X13043426Y-5484627D01*
X13086704Y-5702200D01*
X13353552Y-6101565D01*
X13752917Y-6368413D01*
X14224000Y-6462117D01*
X14695083Y-6368413D01*
X15094448Y-6101565D01*
X15361296Y-5702200D01*
X15455000Y-5231117D01*
X15455000Y-5182883D01*
X15404477Y-4928883D01*
X15533000Y-4928883D01*
X15533000Y-4977117D01*
X15626704Y-5448200D01*
X15893552Y-5847565D01*
X16292917Y-6114413D01*
X16764000Y-6208117D01*
X17235083Y-6114413D01*
X17634448Y-5847565D01*
X17901296Y-5448200D01*
X17995000Y-4977117D01*
X17995000Y-4928883D01*
X17901296Y-4457800D01*
X17634448Y-4058435D01*
X17235083Y-3791587D01*
X16764000Y-3697883D01*
X16292917Y-3791587D01*
X15893552Y-4058435D01*
X15626704Y-4457800D01*
X15533000Y-4928883D01*
X15404477Y-4928883D01*
X15361296Y-4711800D01*
X15094448Y-4312435D01*
X14695083Y-4045587D01*
X14224000Y-3951883D01*
X13752917Y-4045587D01*
X13353552Y-4312435D01*
X13086704Y-4711800D01*
X13063989Y-4825998D01*
X13004820Y-4825998D01*
X13125486Y-4596108D01*
X12879183Y-4071642D01*
X12450924Y-3681355D01*
X12040890Y-3511524D01*
X11811000Y-3632845D01*
X11557000Y-3632845D01*
X11327110Y-3511524D01*
X10917076Y-3681355D01*
X10488817Y-4071642D01*
X10242514Y-4596108D01*
X10363180Y-4825998D01*
X10304011Y-4825998D01*
X10281296Y-4711800D01*
X10014448Y-4312435D01*
X9615083Y-4045587D01*
X9144000Y-3951883D01*
X8672917Y-4045587D01*
X8273552Y-4312435D01*
X8006704Y-4711800D01*
X7913000Y-5182883D01*
X7794070Y-5182883D01*
X7835000Y-4977117D01*
X7835000Y-4928883D01*
X7741296Y-4457800D01*
X7474448Y-4058435D01*
X7075083Y-3791587D01*
X6604000Y-3697883D01*
X6132917Y-3791587D01*
X5733552Y-4058435D01*
X5466704Y-4457800D01*
X5373000Y-4928883D01*
X4052379Y-4928883D01*
X4288132Y-4831472D01*
X4929221Y-4191501D01*
X5276604Y-3354910D01*
X5276607Y-3350936D01*
X23322606Y-3350936D01*
X23668528Y-4188132D01*
X24308499Y-4829221D01*
X25145090Y-5176604D01*
X26050936Y-5177394D01*
X26888132Y-4831472D01*
X27529221Y-4191501D01*
X27876604Y-3354910D01*
X27877394Y-2449064D01*
X27531472Y-1611868D01*
X26891501Y-970779D01*
X26054910Y-623396D01*
X25149064Y-622606D01*
X24311868Y-968528D01*
X23670779Y-1608499D01*
X23323396Y-2445090D01*
X23322606Y-3350936D01*
X5276607Y-3350936D01*
X5277394Y-2449064D01*
X4931472Y-1611868D01*
X4291501Y-970779D01*
X3454910Y-623396D01*
X2549064Y-622606D01*
X1711868Y-968528D01*
X1070779Y-1608499D01*
X723396Y-2445090D01*
X722606Y-3350936D01*
X456000Y-3350936D01*
X456000Y-3044911D01*
X657904Y-2029872D01*
X1207438Y-1207438D01*
X2029872Y-657904D01*
X3044911Y-456000D01*
X7475560Y-456000D01*
X8087445Y-577712D01*
X8087445Y-577712D01*
G37*
X8087445Y-577712D02*
X8585456Y-910472D01*
X8918216Y-1408483D01*
X9052762Y-2084889D01*
X9068391Y-2122620D01*
X9078711Y-2174504D01*
X9108101Y-2218490D01*
X9120850Y-2249268D01*
X9144406Y-2272824D01*
X9177559Y-2322441D01*
X9227176Y-2355594D01*
X9246660Y-2375078D01*
X9272118Y-2385623D01*
X9325496Y-2421289D01*
X9388458Y-2433813D01*
X9411038Y-2443166D01*
X9435479Y-2443166D01*
X9500000Y-2456000D01*
X19000000Y-2456000D01*
X19064521Y-2443166D01*
X19088962Y-2443166D01*
X19111543Y-2433813D01*
X19174504Y-2421289D01*
X19227879Y-2385625D01*
X19253340Y-2375079D01*
X19272827Y-2355592D01*
X19322441Y-2322441D01*
X19355593Y-2272825D01*
X19379150Y-2249268D01*
X19391899Y-2218490D01*
X19421289Y-2174504D01*
X19431609Y-2122620D01*
X19447238Y-2084889D01*
X19581784Y-1408483D01*
X19914544Y-910472D01*
X20412555Y-577712D01*
X21024440Y-456000D01*
X25555089Y-456000D01*
X26570128Y-657904D01*
X27392562Y-1207438D01*
X27942096Y-2029872D01*
X28144000Y-3044911D01*
X28144000Y-5646750D01*
X28131000Y-5659750D01*
X28131000Y-6659000D01*
X28144000Y-6659000D01*
X28144000Y-6913000D01*
X28131000Y-6913000D01*
X28131000Y-7912250D01*
X28144000Y-7925250D01*
X28144000Y-9346750D01*
X28131000Y-9359750D01*
X28131000Y-10359000D01*
X28144000Y-10359000D01*
X28144000Y-10613000D01*
X28131000Y-10613000D01*
X28131000Y-11612250D01*
X28144000Y-11625250D01*
X28144000Y-16505250D01*
X28131000Y-16518250D01*
X28131000Y-17517500D01*
X28144000Y-17517500D01*
X28144000Y-17771500D01*
X28131000Y-17771500D01*
X28131000Y-18770750D01*
X28144000Y-18783750D01*
X28144000Y-20205250D01*
X28131000Y-20218250D01*
X28131000Y-21217500D01*
X28144000Y-21217500D01*
X28144000Y-21471500D01*
X28131000Y-21471500D01*
X28131000Y-22470750D01*
X28144000Y-22483750D01*
X28144000Y-27306750D01*
X28127000Y-27323750D01*
X28127000Y-28323000D01*
X28144000Y-28323000D01*
X28144000Y-28577000D01*
X28127000Y-28577000D01*
X28127000Y-29576250D01*
X28144000Y-29593250D01*
X28144000Y-31006750D01*
X28127000Y-31023750D01*
X28127000Y-32023000D01*
X28144000Y-32023000D01*
X28144000Y-32277000D01*
X28127000Y-32277000D01*
X28127000Y-33276250D01*
X28144000Y-33293250D01*
X28144000Y-35955089D01*
X27942096Y-36970128D01*
X27392562Y-37792562D01*
X26570128Y-38342096D01*
X25555089Y-38544000D01*
X21044911Y-38544000D01*
X20412555Y-38418216D01*
X19914544Y-38085456D01*
X19581784Y-37587445D01*
X19447238Y-36911039D01*
X19430051Y-36869546D01*
X19421289Y-36825496D01*
X19396336Y-36788152D01*
X19379150Y-36746660D01*
X19347394Y-36714903D01*
X19322441Y-36677559D01*
X19285098Y-36652607D01*
X19253340Y-36620849D01*
X19211845Y-36603661D01*
X19174504Y-36578711D01*
X19130456Y-36569949D01*
X19088962Y-36552762D01*
X19044050Y-36552762D01*
X19009970Y-36545983D01*
X20458804Y-36545983D01*
X20630625Y-36961823D01*
X20948503Y-37280256D01*
X21364043Y-37452804D01*
X21813983Y-37453196D01*
X22229823Y-37281375D01*
X22548256Y-36963497D01*
X22720804Y-36547957D01*
X22720975Y-36350936D01*
X23322606Y-36350936D01*
X23668528Y-37188132D01*
X24308499Y-37829221D01*
X25145090Y-38176604D01*
X26050936Y-38177394D01*
X26888132Y-37831472D01*
X27529221Y-37191501D01*
X27876604Y-36354910D01*
X27877394Y-35449064D01*
X27531472Y-34611868D01*
X26891501Y-33970779D01*
X26054910Y-33623396D01*
X25149064Y-33622606D01*
X24311868Y-33968528D01*
X23670779Y-34608499D01*
X23323396Y-35445090D01*
X23322606Y-36350936D01*
X22720975Y-36350936D01*
X22721196Y-36098017D01*
X22549375Y-35682177D01*
X22231497Y-35363744D01*
X22063732Y-35294082D01*
X22194983Y-35294196D01*
X22610823Y-35122375D01*
X22929256Y-34804497D01*
X23101804Y-34388957D01*
X23102196Y-33939017D01*
X22930375Y-33523177D01*
X22612497Y-33204744D01*
X22196957Y-33032196D01*
X21747017Y-33031804D01*
X21331177Y-33203625D01*
X21012744Y-33521503D01*
X20840196Y-33937043D01*
X20839804Y-34386983D01*
X21011625Y-34802823D01*
X21329503Y-35121256D01*
X21497268Y-35190918D01*
X21366017Y-35190804D01*
X20950177Y-35362625D01*
X20631744Y-35680503D01*
X20459196Y-36096043D01*
X20458804Y-36545983D01*
X19009970Y-36545983D01*
X19000000Y-36544000D01*
X9500000Y-36544000D01*
X9455950Y-36552762D01*
X9411038Y-36552762D01*
X9369545Y-36569949D01*
X9325496Y-36578711D01*
X9288152Y-36603663D01*
X9246660Y-36620850D01*
X9214904Y-36652606D01*
X9177559Y-36677559D01*
X9152606Y-36714904D01*
X9120850Y-36746660D01*
X9103664Y-36788152D01*
X9078711Y-36825496D01*
X9069949Y-36869546D01*
X9052762Y-36911039D01*
X8918216Y-37587445D01*
X8585456Y-38085456D01*
X8087445Y-38418216D01*
X7455088Y-38544000D01*
X3044911Y-38544000D01*
X2029872Y-38342096D01*
X1207438Y-37792562D01*
X657904Y-36970128D01*
X534739Y-36350936D01*
X722606Y-36350936D01*
X1068528Y-37188132D01*
X1708499Y-37829221D01*
X2545090Y-38176604D01*
X3450936Y-38177394D01*
X4288132Y-37831472D01*
X4929221Y-37191501D01*
X5276604Y-36354910D01*
X5277212Y-35656983D01*
X5345804Y-35656983D01*
X5517625Y-36072823D01*
X5835503Y-36391256D01*
X6251043Y-36563804D01*
X6700983Y-36564196D01*
X7116823Y-36392375D01*
X7435256Y-36074497D01*
X7607804Y-35658957D01*
X7608196Y-35209017D01*
X7436375Y-34793177D01*
X7118497Y-34474744D01*
X6702957Y-34302196D01*
X6253017Y-34301804D01*
X5837177Y-34473625D01*
X5518744Y-34791503D01*
X5346196Y-35207043D01*
X5345804Y-35656983D01*
X5277212Y-35656983D01*
X5277394Y-35449064D01*
X4931472Y-34611868D01*
X4291501Y-33970779D01*
X3454910Y-33623396D01*
X2549064Y-33622606D01*
X1711868Y-33968528D01*
X1070779Y-34608499D01*
X723396Y-35445090D01*
X722606Y-36350936D01*
X534739Y-36350936D01*
X456000Y-35955089D01*
X456000Y-30865640D01*
X9123774Y-30865640D01*
X9322182Y-31345823D01*
X9689245Y-31713527D01*
X10169081Y-31912773D01*
X10688640Y-31913226D01*
X10936650Y-31810750D01*
X24115000Y-31810750D01*
X24115000Y-32026310D01*
X24211673Y-32259699D01*
X24390302Y-32438327D01*
X24623691Y-32535000D01*
X25364250Y-32535000D01*
X25523000Y-32376250D01*
X25523000Y-31652000D01*
X24273750Y-31652000D01*
X24115000Y-31810750D01*
X10936650Y-31810750D01*
X11168823Y-31714818D01*
X11536527Y-31347755D01*
X11735773Y-30867919D01*
X11735876Y-30749750D01*
X19483000Y-30749750D01*
X19483000Y-31215310D01*
X19579673Y-31448699D01*
X19758302Y-31627327D01*
X19991691Y-31724000D01*
X20582250Y-31724000D01*
X20741000Y-31565250D01*
X20741000Y-30591000D01*
X19641750Y-30591000D01*
X19483000Y-30749750D01*
X11735876Y-30749750D01*
X11736226Y-30348360D01*
X11537818Y-29868177D01*
X11170755Y-29500473D01*
X10690919Y-29301227D01*
X10171360Y-29300774D01*
X9691177Y-29499182D01*
X9323473Y-29866245D01*
X9124227Y-30346081D01*
X9123774Y-30865640D01*
X456000Y-30865640D01*
X456000Y-24781361D01*
X15531975Y-24781361D01*
X15641950Y-25047521D01*
X15750000Y-25155760D01*
X15750000Y-25908000D01*
X15788517Y-26101638D01*
X15898204Y-26265796D01*
X18438204Y-28805796D01*
X18602362Y-28915483D01*
X18796000Y-28954000D01*
X19529536Y-28954000D01*
X19529536Y-29098000D01*
X19556103Y-29239190D01*
X19639546Y-29368865D01*
X19669585Y-29389390D01*
X19579673Y-29479301D01*
X19483000Y-29712690D01*
X19483000Y-30178250D01*
X19641750Y-30337000D01*
X20741000Y-30337000D01*
X20741000Y-30317000D01*
X20995000Y-30317000D01*
X20995000Y-30337000D01*
X21015000Y-30337000D01*
X21015000Y-30591000D01*
X20995000Y-30591000D01*
X20995000Y-31565250D01*
X21153750Y-31724000D01*
X21744309Y-31724000D01*
X21977698Y-31627327D01*
X22156327Y-31448699D01*
X22253000Y-31215310D01*
X22253000Y-31213699D01*
X22256103Y-31230190D01*
X22339546Y-31359865D01*
X22466866Y-31446859D01*
X22618000Y-31477464D01*
X24118000Y-31477464D01*
X24259190Y-31450897D01*
X24341395Y-31398000D01*
X25523000Y-31398000D01*
X25523000Y-31378000D01*
X25777000Y-31378000D01*
X25777000Y-31398000D01*
X25797000Y-31398000D01*
X25797000Y-31652000D01*
X25777000Y-31652000D01*
X25777000Y-32376250D01*
X25935750Y-32535000D01*
X26676309Y-32535000D01*
X26909698Y-32438327D01*
X27071024Y-32277002D01*
X27073748Y-32277002D01*
X26915000Y-32435750D01*
X26915000Y-32926309D01*
X27011673Y-33159698D01*
X27190301Y-33338327D01*
X27423690Y-33435000D01*
X27714250Y-33435000D01*
X27873000Y-33276250D01*
X27873000Y-32277000D01*
X27853000Y-32277000D01*
X27853000Y-32023000D01*
X27873000Y-32023000D01*
X27873000Y-31023750D01*
X27714250Y-30865000D01*
X27423690Y-30865000D01*
X27190301Y-30961673D01*
X27168388Y-30983586D01*
X27088327Y-30790301D01*
X26931654Y-30633629D01*
X26938464Y-30600000D01*
X26938464Y-30000000D01*
X26932060Y-29965965D01*
X27088327Y-29809699D01*
X27168388Y-29616414D01*
X27190301Y-29638327D01*
X27423690Y-29735000D01*
X27714250Y-29735000D01*
X27873000Y-29576250D01*
X27873000Y-28577000D01*
X27853000Y-28577000D01*
X27853000Y-28323000D01*
X27873000Y-28323000D01*
X27873000Y-27323750D01*
X27714250Y-27165000D01*
X27423690Y-27165000D01*
X27190301Y-27261673D01*
X27011673Y-27440302D01*
X26915000Y-27673691D01*
X26915000Y-28164250D01*
X27073748Y-28322998D01*
X27071024Y-28322998D01*
X26909698Y-28161673D01*
X26676309Y-28065000D01*
X25935750Y-28065000D01*
X25777000Y-28223750D01*
X25777000Y-28948000D01*
X25797000Y-28948000D01*
X25797000Y-29202000D01*
X25777000Y-29202000D01*
X25777000Y-29222000D01*
X25523000Y-29222000D01*
X25523000Y-29202000D01*
X25503000Y-29202000D01*
X25503000Y-28948000D01*
X25523000Y-28948000D01*
X25523000Y-28223750D01*
X25364250Y-28065000D01*
X24623691Y-28065000D01*
X24506464Y-28113557D01*
X24506464Y-27798000D01*
X24479897Y-27656810D01*
X24396454Y-27527135D01*
X24269134Y-27440141D01*
X24118000Y-27409536D01*
X22618000Y-27409536D01*
X22476810Y-27436103D01*
X22347135Y-27519546D01*
X22260141Y-27646866D01*
X22229536Y-27798000D01*
X22229536Y-29098000D01*
X22256103Y-29239190D01*
X22339546Y-29368865D01*
X22466866Y-29455859D01*
X22526034Y-29467841D01*
X22476810Y-29477103D01*
X22347135Y-29560546D01*
X22260141Y-29687866D01*
X22253000Y-29723130D01*
X22253000Y-29712690D01*
X22156327Y-29479301D01*
X21977698Y-29300673D01*
X21781850Y-29219550D01*
X21806464Y-29098000D01*
X21806464Y-27798000D01*
X21779897Y-27656810D01*
X21696454Y-27527135D01*
X21569134Y-27440141D01*
X21418000Y-27409536D01*
X19918000Y-27409536D01*
X19776810Y-27436103D01*
X19647135Y-27519546D01*
X19560141Y-27646866D01*
X19529536Y-27798000D01*
X19529536Y-27942000D01*
X19005592Y-27942000D01*
X16762000Y-25698408D01*
X16762000Y-25155740D01*
X16869335Y-25048592D01*
X16979774Y-24782624D01*
X16980025Y-24494639D01*
X16870050Y-24228479D01*
X16666592Y-24024665D01*
X16400624Y-23914226D01*
X16112639Y-23913975D01*
X15846479Y-24023950D01*
X15642665Y-24227408D01*
X15532226Y-24493376D01*
X15531975Y-24781361D01*
X456000Y-24781361D01*
X456000Y-23613750D01*
X22108000Y-23613750D01*
X22108000Y-24204309D01*
X22204673Y-24437698D01*
X22383301Y-24616327D01*
X22616690Y-24713000D01*
X23082250Y-24713000D01*
X23241000Y-24554250D01*
X23241000Y-23455000D01*
X23495000Y-23455000D01*
X23495000Y-24554250D01*
X23653750Y-24713000D01*
X24119310Y-24713000D01*
X24352699Y-24616327D01*
X24531327Y-24437698D01*
X24628000Y-24204309D01*
X24628000Y-23613750D01*
X24469250Y-23455000D01*
X23495000Y-23455000D01*
X23241000Y-23455000D01*
X22266750Y-23455000D01*
X22108000Y-23613750D01*
X456000Y-23613750D01*
X456000Y-20337750D01*
X7815000Y-20337750D01*
X7815000Y-22158309D01*
X7911673Y-22391698D01*
X8090301Y-22570327D01*
X8323690Y-22667000D01*
X10144250Y-22667000D01*
X10303000Y-22508250D01*
X10303000Y-20179000D01*
X10557000Y-20179000D01*
X10557000Y-22508250D01*
X10715750Y-22667000D01*
X12536310Y-22667000D01*
X12769699Y-22570327D01*
X12948327Y-22391698D01*
X13045000Y-22158309D01*
X13045000Y-20337750D01*
X12886250Y-20179000D01*
X10557000Y-20179000D01*
X10303000Y-20179000D01*
X7973750Y-20179000D01*
X7815000Y-20337750D01*
X456000Y-20337750D01*
X456000Y-17945691D01*
X7815000Y-17945691D01*
X7815000Y-19766250D01*
X7973750Y-19925000D01*
X10303000Y-19925000D01*
X10303000Y-17595750D01*
X10557000Y-17595750D01*
X10557000Y-19925000D01*
X12886250Y-19925000D01*
X13045000Y-19766250D01*
X13045000Y-19193361D01*
X14007975Y-19193361D01*
X14117950Y-19459521D01*
X14321408Y-19663335D01*
X14587376Y-19773774D01*
X14875361Y-19774025D01*
X15141521Y-19664050D01*
X15345335Y-19460592D01*
X15455774Y-19194624D01*
X15456025Y-18906639D01*
X15346050Y-18640479D01*
X15238000Y-18532240D01*
X15238000Y-12302000D01*
X16512000Y-12302000D01*
X16512000Y-19641736D01*
X16550517Y-19835374D01*
X16660204Y-19999532D01*
X17394674Y-20734002D01*
X17310226Y-20937376D01*
X17309975Y-21225361D01*
X17419950Y-21491521D01*
X17623408Y-21695335D01*
X17889376Y-21805774D01*
X18177361Y-21806025D01*
X18443521Y-21696050D01*
X18647335Y-21492592D01*
X18757774Y-21226624D01*
X18758025Y-20938639D01*
X18648050Y-20672479D01*
X18516775Y-20540974D01*
X18501483Y-20464098D01*
X18391796Y-20299940D01*
X17524000Y-19432144D01*
X17524000Y-15748000D01*
X17782000Y-15748000D01*
X17782000Y-18034000D01*
X17820517Y-18227638D01*
X17930204Y-18391796D01*
X19560000Y-20021592D01*
X19560000Y-21452260D01*
X19452665Y-21559408D01*
X19342226Y-21825376D01*
X19341975Y-22113361D01*
X19451950Y-22379521D01*
X19655408Y-22583335D01*
X19921376Y-22693774D01*
X20209361Y-22694025D01*
X20475521Y-22584050D01*
X20608111Y-22451691D01*
X22108000Y-22451691D01*
X22108000Y-23042250D01*
X22266750Y-23201000D01*
X23241000Y-23201000D01*
X23241000Y-23181000D01*
X23495000Y-23181000D01*
X23495000Y-23201000D01*
X24469250Y-23201000D01*
X24628000Y-23042250D01*
X24628000Y-22451691D01*
X24531327Y-22218302D01*
X24352699Y-22039673D01*
X24119310Y-21943000D01*
X24117699Y-21943000D01*
X24134190Y-21939897D01*
X24263865Y-21856454D01*
X24350859Y-21729134D01*
X24374393Y-21612918D01*
X24394302Y-21632827D01*
X24627691Y-21729500D01*
X25368250Y-21729500D01*
X25527000Y-21570750D01*
X25527000Y-20846500D01*
X25507000Y-20846500D01*
X25507000Y-20592500D01*
X25527000Y-20592500D01*
X25527000Y-20572500D01*
X25781000Y-20572500D01*
X25781000Y-20592500D01*
X25801000Y-20592500D01*
X25801000Y-20846500D01*
X25781000Y-20846500D01*
X25781000Y-21570750D01*
X25939750Y-21729500D01*
X26680309Y-21729500D01*
X26913698Y-21632827D01*
X27075024Y-21471502D01*
X27077748Y-21471502D01*
X26919000Y-21630250D01*
X26919000Y-22120809D01*
X27015673Y-22354198D01*
X27194301Y-22532827D01*
X27427690Y-22629500D01*
X27718250Y-22629500D01*
X27877000Y-22470750D01*
X27877000Y-21471500D01*
X27857000Y-21471500D01*
X27857000Y-21217500D01*
X27877000Y-21217500D01*
X27877000Y-20218250D01*
X27718250Y-20059500D01*
X27427690Y-20059500D01*
X27194301Y-20156173D01*
X27172388Y-20178086D01*
X27092327Y-19984801D01*
X26935654Y-19828129D01*
X26942464Y-19794500D01*
X26942464Y-19194500D01*
X26936060Y-19160465D01*
X27092327Y-19004199D01*
X27172388Y-18810914D01*
X27194301Y-18832827D01*
X27427690Y-18929500D01*
X27718250Y-18929500D01*
X27877000Y-18770750D01*
X27877000Y-17771500D01*
X27857000Y-17771500D01*
X27857000Y-17517500D01*
X27877000Y-17517500D01*
X27877000Y-16518250D01*
X27718250Y-16359500D01*
X27427690Y-16359500D01*
X27194301Y-16456173D01*
X27015673Y-16634802D01*
X26919000Y-16868191D01*
X26919000Y-17358750D01*
X27077748Y-17517498D01*
X27075024Y-17517498D01*
X26913698Y-17356173D01*
X26680309Y-17259500D01*
X25939750Y-17259500D01*
X25781000Y-17418250D01*
X25781000Y-18142500D01*
X25801000Y-18142500D01*
X25801000Y-18396500D01*
X25781000Y-18396500D01*
X25781000Y-18416500D01*
X25527000Y-18416500D01*
X25527000Y-18396500D01*
X25507000Y-18396500D01*
X25507000Y-18142500D01*
X25527000Y-18142500D01*
X25527000Y-17418250D01*
X25368250Y-17259500D01*
X24627691Y-17259500D01*
X24406464Y-17351135D01*
X24406464Y-16936000D01*
X24379897Y-16794810D01*
X24296454Y-16665135D01*
X24169134Y-16578141D01*
X24018000Y-16547536D01*
X22718000Y-16547536D01*
X22576810Y-16574103D01*
X22447135Y-16657546D01*
X22360141Y-16784866D01*
X22329536Y-16936000D01*
X22329536Y-18436000D01*
X22356103Y-18577190D01*
X22439546Y-18706865D01*
X22566866Y-18793859D01*
X22718000Y-18824464D01*
X22862000Y-18824464D01*
X22862000Y-19689536D01*
X22743000Y-19689536D01*
X22601810Y-19716103D01*
X22472135Y-19799546D01*
X22385141Y-19926866D01*
X22354536Y-20078000D01*
X22354536Y-21578000D01*
X22381103Y-21719190D01*
X22464546Y-21848865D01*
X22591866Y-21935859D01*
X22627130Y-21943000D01*
X22616690Y-21943000D01*
X22383301Y-22039673D01*
X22204673Y-22218302D01*
X22108000Y-22451691D01*
X20608111Y-22451691D01*
X20679335Y-22380592D01*
X20789774Y-22114624D01*
X20790025Y-21826639D01*
X20680050Y-21560479D01*
X20572000Y-21452240D01*
X20572000Y-19812000D01*
X20533483Y-19618362D01*
X20423796Y-19454204D01*
X18794000Y-17824408D01*
X18794000Y-15957592D01*
X19259592Y-15492000D01*
X22329536Y-15492000D01*
X22329536Y-15736000D01*
X22356103Y-15877190D01*
X22439546Y-16006865D01*
X22566866Y-16093859D01*
X22718000Y-16124464D01*
X24018000Y-16124464D01*
X24159190Y-16097897D01*
X24288865Y-16014454D01*
X24375859Y-15887134D01*
X24406464Y-15736000D01*
X24406464Y-14236000D01*
X24379897Y-14094810D01*
X24296454Y-13965135D01*
X24169134Y-13878141D01*
X24018000Y-13847536D01*
X22718000Y-13847536D01*
X22576810Y-13874103D01*
X22447135Y-13957546D01*
X22360141Y-14084866D01*
X22329536Y-14236000D01*
X22329536Y-14480000D01*
X19050000Y-14480000D01*
X18856362Y-14518517D01*
X18692204Y-14628204D01*
X17930204Y-15390204D01*
X17820517Y-15554362D01*
X17782000Y-15748000D01*
X17524000Y-15748000D01*
X17524000Y-12511592D01*
X18319842Y-11715750D01*
X19483000Y-11715750D01*
X19483000Y-12181310D01*
X19579673Y-12414699D01*
X19758302Y-12593327D01*
X19991691Y-12690000D01*
X20582250Y-12690000D01*
X20741000Y-12531250D01*
X20741000Y-11557000D01*
X19641750Y-11557000D01*
X19483000Y-11715750D01*
X18319842Y-11715750D01*
X19570315Y-10465277D01*
X19570974Y-10466301D01*
X19483000Y-10678690D01*
X19483000Y-11144250D01*
X19641750Y-11303000D01*
X20741000Y-11303000D01*
X20741000Y-11283000D01*
X20995000Y-11283000D01*
X20995000Y-11303000D01*
X21015000Y-11303000D01*
X21015000Y-11557000D01*
X20995000Y-11557000D01*
X20995000Y-12531250D01*
X21153750Y-12690000D01*
X21744309Y-12690000D01*
X21977698Y-12593327D01*
X22156327Y-12414699D01*
X22253000Y-12181310D01*
X22253000Y-12179699D01*
X22256103Y-12196190D01*
X22339546Y-12325865D01*
X22466866Y-12412859D01*
X22618000Y-12443464D01*
X24118000Y-12443464D01*
X24259190Y-12416897D01*
X24388865Y-12333454D01*
X24475859Y-12206134D01*
X24506464Y-12055000D01*
X24506464Y-10820786D01*
X24627691Y-10871000D01*
X25368250Y-10871000D01*
X25527000Y-10712250D01*
X25527000Y-9988000D01*
X25507000Y-9988000D01*
X25507000Y-9734000D01*
X25527000Y-9734000D01*
X25527000Y-9714000D01*
X25781000Y-9714000D01*
X25781000Y-9734000D01*
X25801000Y-9734000D01*
X25801000Y-9988000D01*
X25781000Y-9988000D01*
X25781000Y-10712250D01*
X25939750Y-10871000D01*
X26680309Y-10871000D01*
X26913698Y-10774327D01*
X27075024Y-10613002D01*
X27077748Y-10613002D01*
X26919000Y-10771750D01*
X26919000Y-11262309D01*
X27015673Y-11495698D01*
X27194301Y-11674327D01*
X27427690Y-11771000D01*
X27718250Y-11771000D01*
X27877000Y-11612250D01*
X27877000Y-10613000D01*
X27857000Y-10613000D01*
X27857000Y-10359000D01*
X27877000Y-10359000D01*
X27877000Y-9359750D01*
X27718250Y-9201000D01*
X27427690Y-9201000D01*
X27194301Y-9297673D01*
X27172388Y-9319586D01*
X27092327Y-9126301D01*
X26935654Y-8969629D01*
X26942464Y-8936000D01*
X26942464Y-8336000D01*
X26936060Y-8301965D01*
X27092327Y-8145699D01*
X27172388Y-7952414D01*
X27194301Y-7974327D01*
X27427690Y-8071000D01*
X27718250Y-8071000D01*
X27877000Y-7912250D01*
X27877000Y-6913000D01*
X27857000Y-6913000D01*
X27857000Y-6659000D01*
X27877000Y-6659000D01*
X27877000Y-5659750D01*
X27718250Y-5501000D01*
X27427690Y-5501000D01*
X27194301Y-5597673D01*
X27015673Y-5776302D01*
X26919000Y-6009691D01*
X26919000Y-6500250D01*
X27077748Y-6658998D01*
X27075024Y-6658998D01*
X26913698Y-6497673D01*
X26680309Y-6401000D01*
X25939750Y-6401000D01*
X25781000Y-6559750D01*
X25781000Y-7284000D01*
X25801000Y-7284000D01*
X25801000Y-7538000D01*
X25781000Y-7538000D01*
X25781000Y-7558000D01*
X25527000Y-7558000D01*
X25527000Y-7538000D01*
X24277750Y-7538000D01*
X24119000Y-7696750D01*
X24119000Y-7912310D01*
X24209170Y-8130000D01*
X23484000Y-8130000D01*
X23290362Y-8168517D01*
X23174401Y-8246000D01*
X23126204Y-8278204D01*
X23010204Y-8394204D01*
X22900517Y-8558362D01*
X22889542Y-8613536D01*
X22618000Y-8613536D01*
X22476810Y-8640103D01*
X22347135Y-8723546D01*
X22260141Y-8850866D01*
X22229536Y-9002000D01*
X22229536Y-10302000D01*
X22256103Y-10443190D01*
X22327877Y-10554731D01*
X22260141Y-10653866D01*
X22253000Y-10689130D01*
X22253000Y-10678690D01*
X22156327Y-10445301D01*
X21977698Y-10266673D01*
X21806464Y-10195745D01*
X21806464Y-9002000D01*
X21779897Y-8860810D01*
X21696454Y-8731135D01*
X21569134Y-8644141D01*
X21418000Y-8613536D01*
X19918000Y-8613536D01*
X19776810Y-8640103D01*
X19647135Y-8723546D01*
X19560141Y-8850866D01*
X19529536Y-9002000D01*
X19529536Y-9173542D01*
X19474362Y-9184517D01*
X19310204Y-9294204D01*
X16660204Y-11944204D01*
X16550517Y-12108362D01*
X16512000Y-12302000D01*
X15238000Y-12302000D01*
X15238000Y-12274592D01*
X20602902Y-6909690D01*
X24119000Y-6909690D01*
X24119000Y-7125250D01*
X24277750Y-7284000D01*
X25527000Y-7284000D01*
X25527000Y-6559750D01*
X25368250Y-6401000D01*
X24627691Y-6401000D01*
X24394302Y-6497673D01*
X24215673Y-6676301D01*
X24119000Y-6909690D01*
X20602902Y-6909690D01*
X21407808Y-6104784D01*
X21598065Y-6183786D01*
X22087787Y-6184213D01*
X22540395Y-5997200D01*
X22886983Y-5651216D01*
X23074786Y-5198935D01*
X23075213Y-4709213D01*
X22888200Y-4256605D01*
X22542216Y-3910017D01*
X22089935Y-3722214D01*
X21600213Y-3721787D01*
X21147605Y-3908800D01*
X20801017Y-4254784D01*
X20613214Y-4707065D01*
X20612787Y-5196787D01*
X20692266Y-5389142D01*
X20456713Y-5624695D01*
X20535000Y-5231117D01*
X20535000Y-5182883D01*
X20441296Y-4711800D01*
X20174448Y-4312435D01*
X19775083Y-4045587D01*
X19304000Y-3951883D01*
X18832917Y-4045587D01*
X18433552Y-4312435D01*
X18166704Y-4711800D01*
X18073000Y-5182883D01*
X18073000Y-5231117D01*
X18166704Y-5702200D01*
X18433552Y-6101565D01*
X18832917Y-6368413D01*
X19304000Y-6462117D01*
X19697578Y-6383830D01*
X14374204Y-11707204D01*
X14264517Y-11871362D01*
X14226000Y-12065000D01*
X14226000Y-18532260D01*
X14118665Y-18639408D01*
X14008226Y-18905376D01*
X14007975Y-19193361D01*
X13045000Y-19193361D01*
X13045000Y-17945691D01*
X12948327Y-17712302D01*
X12769699Y-17533673D01*
X12536310Y-17437000D01*
X10715750Y-17437000D01*
X10557000Y-17595750D01*
X10303000Y-17595750D01*
X10144250Y-17437000D01*
X8323690Y-17437000D01*
X8090301Y-17533673D01*
X7911673Y-17712302D01*
X7815000Y-17945691D01*
X456000Y-17945691D01*
X456000Y-9755640D01*
X9123774Y-9755640D01*
X9322182Y-10235823D01*
X9689245Y-10603527D01*
X10169081Y-10802773D01*
X10688640Y-10803226D01*
X11168823Y-10604818D01*
X11536527Y-10237755D01*
X11735773Y-9757919D01*
X11736226Y-9238360D01*
X11537818Y-8758177D01*
X11170755Y-8390473D01*
X10690919Y-8191227D01*
X10171360Y-8190774D01*
X9691177Y-8389182D01*
X9323473Y-8756245D01*
X9124227Y-9236081D01*
X9123774Y-9755640D01*
X456000Y-9755640D01*
X456000Y-3350936D01*
X722606Y-3350936D01*
X1068528Y-4188132D01*
X1708499Y-4829221D01*
X2545090Y-5176604D01*
X3450936Y-5177394D01*
X4052379Y-4928883D01*
X5373000Y-4928883D01*
X5373000Y-4977117D01*
X5466704Y-5448200D01*
X5733552Y-5847565D01*
X6132917Y-6114413D01*
X6604000Y-6208117D01*
X7075083Y-6114413D01*
X7474448Y-5847565D01*
X7741296Y-5448200D01*
X7794070Y-5182883D01*
X7913000Y-5182883D01*
X7913000Y-5231117D01*
X8006704Y-5702200D01*
X8273552Y-6101565D01*
X8672917Y-6368413D01*
X9144000Y-6462117D01*
X9615083Y-6368413D01*
X10014448Y-6101565D01*
X10281296Y-5702200D01*
X10324574Y-5484627D01*
X10488817Y-5834358D01*
X10917076Y-6224645D01*
X11327110Y-6394476D01*
X11557000Y-6273155D01*
X11557000Y-5080000D01*
X11537000Y-5080000D01*
X11537000Y-4826000D01*
X11557000Y-4826000D01*
X11557000Y-3632845D01*
X11811000Y-3632845D01*
X11811000Y-4826000D01*
X11831000Y-4826000D01*
X11831000Y-5080000D01*
X11811000Y-5080000D01*
X11811000Y-6273155D01*
X12040890Y-6394476D01*
X12450924Y-6224645D01*
X12879183Y-5834358D01*
X13043426Y-5484627D01*
X13086704Y-5702200D01*
X13353552Y-6101565D01*
X13752917Y-6368413D01*
X14224000Y-6462117D01*
X14695083Y-6368413D01*
X15094448Y-6101565D01*
X15361296Y-5702200D01*
X15455000Y-5231117D01*
X15455000Y-5182883D01*
X15404477Y-4928883D01*
X15533000Y-4928883D01*
X15533000Y-4977117D01*
X15626704Y-5448200D01*
X15893552Y-5847565D01*
X16292917Y-6114413D01*
X16764000Y-6208117D01*
X17235083Y-6114413D01*
X17634448Y-5847565D01*
X17901296Y-5448200D01*
X17995000Y-4977117D01*
X17995000Y-4928883D01*
X17901296Y-4457800D01*
X17634448Y-4058435D01*
X17235083Y-3791587D01*
X16764000Y-3697883D01*
X16292917Y-3791587D01*
X15893552Y-4058435D01*
X15626704Y-4457800D01*
X15533000Y-4928883D01*
X15404477Y-4928883D01*
X15361296Y-4711800D01*
X15094448Y-4312435D01*
X14695083Y-4045587D01*
X14224000Y-3951883D01*
X13752917Y-4045587D01*
X13353552Y-4312435D01*
X13086704Y-4711800D01*
X13063989Y-4825998D01*
X13004820Y-4825998D01*
X13125486Y-4596108D01*
X12879183Y-4071642D01*
X12450924Y-3681355D01*
X12040890Y-3511524D01*
X11811000Y-3632845D01*
X11557000Y-3632845D01*
X11327110Y-3511524D01*
X10917076Y-3681355D01*
X10488817Y-4071642D01*
X10242514Y-4596108D01*
X10363180Y-4825998D01*
X10304011Y-4825998D01*
X10281296Y-4711800D01*
X10014448Y-4312435D01*
X9615083Y-4045587D01*
X9144000Y-3951883D01*
X8672917Y-4045587D01*
X8273552Y-4312435D01*
X8006704Y-4711800D01*
X7913000Y-5182883D01*
X7794070Y-5182883D01*
X7835000Y-4977117D01*
X7835000Y-4928883D01*
X7741296Y-4457800D01*
X7474448Y-4058435D01*
X7075083Y-3791587D01*
X6604000Y-3697883D01*
X6132917Y-3791587D01*
X5733552Y-4058435D01*
X5466704Y-4457800D01*
X5373000Y-4928883D01*
X4052379Y-4928883D01*
X4288132Y-4831472D01*
X4929221Y-4191501D01*
X5276604Y-3354910D01*
X5276607Y-3350936D01*
X23322606Y-3350936D01*
X23668528Y-4188132D01*
X24308499Y-4829221D01*
X25145090Y-5176604D01*
X26050936Y-5177394D01*
X26888132Y-4831472D01*
X27529221Y-4191501D01*
X27876604Y-3354910D01*
X27877394Y-2449064D01*
X27531472Y-1611868D01*
X26891501Y-970779D01*
X26054910Y-623396D01*
X25149064Y-622606D01*
X24311868Y-968528D01*
X23670779Y-1608499D01*
X23323396Y-2445090D01*
X23322606Y-3350936D01*
X5276607Y-3350936D01*
X5277394Y-2449064D01*
X4931472Y-1611868D01*
X4291501Y-970779D01*
X3454910Y-623396D01*
X2549064Y-622606D01*
X1711868Y-968528D01*
X1070779Y-1608499D01*
X723396Y-2445090D01*
X722606Y-3350936D01*
X456000Y-3350936D01*
X456000Y-3044911D01*
X657904Y-2029872D01*
X1207438Y-1207438D01*
X2029872Y-657904D01*
X3044911Y-456000D01*
X7475560Y-456000D01*
X8087445Y-577712D01*
M02*
