G04 #@! TF.FileFunction,Legend,Bot*
%FSLAX46Y46*%
G04 Gerber Fmt 4.6, Leading zero omitted, Abs format (unit mm)*
G04 Created by KiCad (PCBNEW 4.0.5-e0-6337~49~ubuntu16.04.1) date Fri Feb 10 02:02:51 2017*
%MOMM*%
%LPD*%
G01*
G04 APERTURE LIST*
%ADD10C,0.100000*%
%ADD11C,0.150000*%
%ADD12C,0.400000*%
%ADD13C,0.120000*%
G04 APERTURE END LIST*
D10*
D11*
X24244143Y-38207905D02*
X24244143Y-37407905D01*
X23977476Y-37979333D01*
X23710809Y-37407905D01*
X23710809Y-38207905D01*
X23177476Y-37407905D02*
X23025095Y-37407905D01*
X22948904Y-37446000D01*
X22872714Y-37522190D01*
X22834619Y-37674571D01*
X22834619Y-37941238D01*
X22872714Y-38093619D01*
X22948904Y-38169810D01*
X23025095Y-38207905D01*
X23177476Y-38207905D01*
X23253666Y-38169810D01*
X23329857Y-38093619D01*
X23367952Y-37941238D01*
X23367952Y-37674571D01*
X23329857Y-37522190D01*
X23253666Y-37446000D01*
X23177476Y-37407905D01*
X22529857Y-38169810D02*
X22415571Y-38207905D01*
X22225095Y-38207905D01*
X22148905Y-38169810D01*
X22110809Y-38131714D01*
X22072714Y-38055524D01*
X22072714Y-37979333D01*
X22110809Y-37903143D01*
X22148905Y-37865048D01*
X22225095Y-37826952D01*
X22377476Y-37788857D01*
X22453667Y-37750762D01*
X22491762Y-37712667D01*
X22529857Y-37636476D01*
X22529857Y-37560286D01*
X22491762Y-37484095D01*
X22453667Y-37446000D01*
X22377476Y-37407905D01*
X22187000Y-37407905D01*
X22072714Y-37446000D01*
X21729857Y-38207905D02*
X21729857Y-37407905D01*
X25736381Y-33851810D02*
X25622095Y-33889905D01*
X25431619Y-33889905D01*
X25355429Y-33851810D01*
X25317333Y-33813714D01*
X25279238Y-33737524D01*
X25279238Y-33661333D01*
X25317333Y-33585143D01*
X25355429Y-33547048D01*
X25431619Y-33508952D01*
X25584000Y-33470857D01*
X25660191Y-33432762D01*
X25698286Y-33394667D01*
X25736381Y-33318476D01*
X25736381Y-33242286D01*
X25698286Y-33166095D01*
X25660191Y-33128000D01*
X25584000Y-33089905D01*
X25393524Y-33089905D01*
X25279238Y-33128000D01*
X24479238Y-33813714D02*
X24517333Y-33851810D01*
X24631619Y-33889905D01*
X24707809Y-33889905D01*
X24822095Y-33851810D01*
X24898286Y-33775619D01*
X24936381Y-33699429D01*
X24974476Y-33547048D01*
X24974476Y-33432762D01*
X24936381Y-33280381D01*
X24898286Y-33204190D01*
X24822095Y-33128000D01*
X24707809Y-33089905D01*
X24631619Y-33089905D01*
X24517333Y-33128000D01*
X24479238Y-33166095D01*
X23755428Y-33889905D02*
X24136381Y-33889905D01*
X24136381Y-33089905D01*
X23488762Y-33889905D02*
X23488762Y-33089905D01*
X23031619Y-33889905D02*
X23374476Y-33432762D01*
X23031619Y-33089905D02*
X23488762Y-33547048D01*
X6610333Y-37369714D02*
X6648428Y-37407810D01*
X6762714Y-37445905D01*
X6838904Y-37445905D01*
X6953190Y-37407810D01*
X7029381Y-37331619D01*
X7067476Y-37255429D01*
X7105571Y-37103048D01*
X7105571Y-36988762D01*
X7067476Y-36836381D01*
X7029381Y-36760190D01*
X6953190Y-36684000D01*
X6838904Y-36645905D01*
X6762714Y-36645905D01*
X6648428Y-36684000D01*
X6610333Y-36722095D01*
X6305571Y-37407810D02*
X6191285Y-37445905D01*
X6000809Y-37445905D01*
X5924619Y-37407810D01*
X5886523Y-37369714D01*
X5848428Y-37293524D01*
X5848428Y-37217333D01*
X5886523Y-37141143D01*
X5924619Y-37103048D01*
X6000809Y-37064952D01*
X6153190Y-37026857D01*
X6229381Y-36988762D01*
X6267476Y-36950667D01*
X6305571Y-36874476D01*
X6305571Y-36798286D01*
X6267476Y-36722095D01*
X6229381Y-36684000D01*
X6153190Y-36645905D01*
X5962714Y-36645905D01*
X5848428Y-36684000D01*
X3048000Y-9779000D02*
X2794000Y-10160000D01*
X2540000Y-9779000D02*
X3048000Y-9779000D01*
X2794000Y-10160000D02*
X2540000Y-9779000D01*
X2540000Y-10160000D02*
X3048000Y-10160000D01*
X6718798Y-3496878D02*
X6421875Y-3325449D01*
X6270337Y-3930779D02*
X6570337Y-3411164D01*
X6298158Y-3254021D02*
X5651747Y-3573636D01*
X5951747Y-3054021D02*
X5998158Y-3773636D01*
X8587645Y-4056207D02*
X8903707Y-3908771D01*
X8884568Y-4227636D02*
X9184568Y-3708021D01*
X8986619Y-3593735D01*
X8922847Y-3589907D01*
X8883817Y-3600364D01*
X8830502Y-3635566D01*
X8787645Y-3709797D01*
X8783817Y-3773569D01*
X8794275Y-3812599D01*
X8829476Y-3865913D01*
X9027425Y-3980199D01*
X8714440Y-3436592D02*
X8068030Y-3756207D01*
X8368030Y-3236592D02*
X8414440Y-3956207D01*
D12*
X16290476Y-15552381D02*
X16290476Y-15933333D01*
X16195238Y-15933333D02*
X16195238Y-15552381D01*
X16100000Y-15457143D02*
X16100000Y-16028571D01*
X16004762Y-15933333D02*
X16004762Y-15552381D01*
X15909524Y-15552381D02*
X15909524Y-15933333D01*
X16290476Y-15838095D02*
X16100000Y-16028571D01*
X15909524Y-15838095D01*
X16290476Y-15647619D02*
X16100000Y-15457143D01*
X15909524Y-15647619D01*
X16290476Y-15552381D02*
X16100000Y-15457143D01*
X15909524Y-15552381D01*
X15814285Y-15742857D01*
X15909524Y-15933333D01*
X16100000Y-16028571D01*
X16290476Y-15933333D01*
X16385714Y-15742857D01*
X16290476Y-15552381D01*
D11*
X21584568Y-3973636D02*
X21884568Y-3454021D01*
X21287645Y-3802207D01*
X21587645Y-3282592D01*
X20743286Y-3487922D02*
X21059349Y-3340485D01*
X21040209Y-3659350D02*
X21340209Y-3139735D01*
X21142260Y-3025449D01*
X21078488Y-3021621D01*
X21039459Y-3032079D01*
X20986144Y-3067280D01*
X20943286Y-3141512D01*
X20939459Y-3205284D01*
X20949917Y-3244314D01*
X20985118Y-3297628D01*
X21183067Y-3411914D01*
X20559623Y-3348892D02*
X20471107Y-3330779D01*
X20347389Y-3259350D01*
X20312188Y-3206035D01*
X20301730Y-3167006D01*
X20305557Y-3103233D01*
X20334129Y-3053746D01*
X20387444Y-3018544D01*
X20426473Y-3008087D01*
X20490246Y-3011914D01*
X20603507Y-3044314D01*
X20667279Y-3048141D01*
X20706309Y-3037683D01*
X20759623Y-3002482D01*
X20788195Y-2952994D01*
X20792023Y-2889222D01*
X20781564Y-2850192D01*
X20746364Y-2796878D01*
X20622645Y-2725449D01*
X20534129Y-2707335D01*
X20399952Y-2596878D02*
X20103030Y-2425449D01*
X19951491Y-3030779D02*
X20251491Y-2511164D01*
X14338798Y-3750878D02*
X13865593Y-4170493D01*
X13992388Y-3550878D01*
X13519183Y-3970493D02*
X13819183Y-3450878D01*
X13695465Y-3379449D01*
X13606948Y-3361335D01*
X13528890Y-3382251D01*
X13475575Y-3417452D01*
X13393689Y-3502141D01*
X13350832Y-3576372D01*
X13318432Y-3689631D01*
X13314605Y-3753405D01*
X13335520Y-3831463D01*
X13395465Y-3899064D01*
X13519183Y-3970493D01*
X12999568Y-3670493D02*
X13299568Y-3150878D01*
X13175850Y-3079449D01*
X13087333Y-3061335D01*
X13009275Y-3082251D01*
X12955960Y-3117452D01*
X12874074Y-3202141D01*
X12831216Y-3276372D01*
X12798817Y-3389631D01*
X12794990Y-3453405D01*
X12815905Y-3531463D01*
X12875850Y-3599064D01*
X12999568Y-3670493D01*
X11438103Y-3321621D02*
X11501875Y-3325449D01*
X11576106Y-3368306D01*
X11636052Y-3435907D01*
X11656967Y-3513965D01*
X11653139Y-3577738D01*
X11620740Y-3690998D01*
X11577882Y-3765229D01*
X11495997Y-3849917D01*
X11442681Y-3885119D01*
X11364623Y-3906035D01*
X11276106Y-3887921D01*
X11226619Y-3859350D01*
X11166674Y-3791749D01*
X11156216Y-3752720D01*
X11256216Y-3579515D01*
X11355190Y-3636658D01*
X10904952Y-3673636D02*
X11204952Y-3154021D01*
X10608030Y-3502207D01*
X10908030Y-2982592D01*
X10360594Y-3359350D02*
X10660594Y-2839735D01*
X10536876Y-2768307D01*
X10448359Y-2750192D01*
X10370301Y-2771109D01*
X10316986Y-2806310D01*
X10235100Y-2890998D01*
X10192243Y-2965230D01*
X10159843Y-3078489D01*
X10156016Y-3142262D01*
X10176931Y-3220320D01*
X10236876Y-3287922D01*
X10360594Y-3359350D01*
X16543597Y-3963177D02*
X16455080Y-3945064D01*
X16331363Y-3873636D01*
X16296161Y-3820320D01*
X16285704Y-3781292D01*
X16289531Y-3717518D01*
X16318103Y-3668031D01*
X16371418Y-3632830D01*
X16410447Y-3622372D01*
X16474220Y-3626199D01*
X16587480Y-3658599D01*
X16651253Y-3662426D01*
X16690282Y-3651969D01*
X16743597Y-3616767D01*
X16772168Y-3567280D01*
X16775997Y-3503507D01*
X16765538Y-3464478D01*
X16730337Y-3411164D01*
X16606619Y-3339735D01*
X16518103Y-3321621D01*
X16359183Y-3196878D02*
X15935465Y-3645064D01*
X16050777Y-3216767D01*
X15737516Y-3530778D01*
X15913798Y-2939735D01*
X15147499Y-3124149D02*
X15157956Y-3163177D01*
X15217901Y-3230778D01*
X15267388Y-3259350D01*
X15355905Y-3277463D01*
X15433963Y-3256547D01*
X15487279Y-3221346D01*
X15569165Y-3136658D01*
X15612022Y-3062426D01*
X15644421Y-2949167D01*
X15648249Y-2885394D01*
X15627334Y-2807335D01*
X15567388Y-2739735D01*
X15517901Y-2711163D01*
X15429385Y-2693049D01*
X15390356Y-2703507D01*
X14648799Y-2902207D02*
X14896235Y-3045064D01*
X15196235Y-2525449D01*
X14475594Y-2802207D02*
X14775594Y-2282592D01*
X14178671Y-2630779D02*
X14572793Y-2462427D01*
X14478671Y-2111164D02*
X14604166Y-2579515D01*
X19083597Y-4217177D02*
X18995080Y-4199064D01*
X18871363Y-4127636D01*
X18836161Y-4074320D01*
X18825704Y-4035292D01*
X18829531Y-3971518D01*
X18858103Y-3922031D01*
X18911418Y-3886830D01*
X18950447Y-3876372D01*
X19014220Y-3880199D01*
X19127480Y-3912599D01*
X19191253Y-3916426D01*
X19230282Y-3905969D01*
X19283597Y-3870767D01*
X19312168Y-3821280D01*
X19315997Y-3757507D01*
X19305538Y-3718478D01*
X19270337Y-3665164D01*
X19146619Y-3593735D01*
X19058103Y-3575621D01*
X18899183Y-3450878D02*
X18475465Y-3899064D01*
X18590777Y-3470767D01*
X18277516Y-3784778D01*
X18453798Y-3193735D01*
X17955850Y-3599064D02*
X18255850Y-3079449D01*
X18132132Y-3008021D01*
X18043615Y-2989906D01*
X17965557Y-3010823D01*
X17912242Y-3046024D01*
X17830356Y-3130712D01*
X17787499Y-3204944D01*
X17755099Y-3318203D01*
X17751272Y-3381976D01*
X17772187Y-3460034D01*
X17832132Y-3527636D01*
X17955850Y-3599064D01*
X17436235Y-3299064D02*
X17736235Y-2779449D01*
X17389825Y-2579449D02*
X17290850Y-2522306D01*
X17227078Y-2518478D01*
X17149019Y-2539394D01*
X17067132Y-2624083D01*
X16967132Y-2797288D01*
X16934734Y-2910548D01*
X16955650Y-2988606D01*
X16990850Y-3041921D01*
X17089825Y-3099064D01*
X17153598Y-3102892D01*
X17231657Y-3081976D01*
X17313542Y-2997288D01*
X17413542Y-2824083D01*
X17445942Y-2710823D01*
X17425026Y-2632764D01*
X17389825Y-2579449D01*
X6616000Y-8015000D02*
X5416000Y-8015000D01*
X5416000Y-9765000D02*
X6616000Y-9765000D01*
X9250000Y-12625000D02*
X8050000Y-12625000D01*
X8050000Y-14375000D02*
X9250000Y-14375000D01*
D13*
X3494000Y-11790000D02*
X2094000Y-11790000D01*
X2094000Y-11790000D02*
X2094000Y-8990000D01*
X3494000Y-11790000D02*
X3494000Y-8990000D01*
D11*
X23178100Y-29287500D02*
X21978100Y-29287500D01*
X21978100Y-31037500D02*
X23178100Y-31037500D01*
X19542000Y-15284000D02*
X19542000Y-17284000D01*
X17542000Y-15284000D02*
X17542000Y-17284000D01*
X22324000Y-15074000D02*
X21324000Y-15074000D01*
X21324000Y-13374000D02*
X22324000Y-13374000D01*
X22324000Y-19138000D02*
X21324000Y-19138000D01*
X21324000Y-17438000D02*
X22324000Y-17438000D01*
X24779000Y-13196000D02*
X24779000Y-14396000D01*
X26529000Y-14396000D02*
X26529000Y-13196000D01*
X15607000Y-11906800D02*
X15607000Y-10706800D01*
X13857000Y-10706800D02*
X13857000Y-11906800D01*
X4484000Y-24610000D02*
X4484000Y-23610000D01*
X6184000Y-23610000D02*
X6184000Y-24610000D01*
X23848000Y-24726000D02*
X22848000Y-24726000D01*
X22848000Y-23026000D02*
X23848000Y-23026000D01*
X19392000Y-10696000D02*
X19392000Y-11696000D01*
X17692000Y-11696000D02*
X17692000Y-10696000D01*
X2452000Y-24610000D02*
X2452000Y-23610000D01*
X4152000Y-23610000D02*
X4152000Y-24610000D01*
X15511000Y-16345000D02*
X15511000Y-16570000D01*
X8261000Y-16345000D02*
X8261000Y-16645000D01*
X8261000Y-23595000D02*
X8261000Y-23295000D01*
X15511000Y-23595000D02*
X15511000Y-23295000D01*
X15511000Y-16345000D02*
X15211000Y-16345000D01*
X15511000Y-23595000D02*
X15211000Y-23595000D01*
X8261000Y-23595000D02*
X8561000Y-23595000D01*
X8261000Y-16345000D02*
X8561000Y-16345000D01*
X15511000Y-16570000D02*
X16736000Y-16570000D01*
X23848000Y-22694000D02*
X22848000Y-22694000D01*
X22848000Y-20994000D02*
X23848000Y-20994000D01*
X14820000Y-27714000D02*
X14820000Y-28714000D01*
X13120000Y-28714000D02*
X13120000Y-27714000D01*
X18884000Y-27714000D02*
X18884000Y-28714000D01*
X17184000Y-28714000D02*
X17184000Y-27714000D01*
X16852000Y-27714000D02*
X16852000Y-28714000D01*
X15152000Y-28714000D02*
X15152000Y-27714000D01*
X18050000Y-38700000D02*
X10550000Y-38700000D01*
X18050000Y-37100000D02*
X18050000Y-38700000D01*
X19150000Y-37100000D02*
X18050000Y-37100000D01*
X19150000Y-33150000D02*
X9450000Y-33150000D01*
X19150000Y-33150000D02*
X19150000Y-37100000D01*
X9450000Y-33150000D02*
X9450000Y-37100000D01*
X10550000Y-37100000D02*
X9450000Y-37100000D01*
X10550000Y-37100000D02*
X10550000Y-38700000D01*
X23848000Y-26758000D02*
X22848000Y-26758000D01*
X22848000Y-25058000D02*
X23848000Y-25058000D01*
X6590000Y-31395000D02*
X6590000Y-30195000D01*
X4840000Y-30195000D02*
X4840000Y-31395000D01*
X6149333Y-10902905D02*
X6416000Y-10521952D01*
X6606476Y-10902905D02*
X6606476Y-10102905D01*
X6301714Y-10102905D01*
X6225523Y-10141000D01*
X6187428Y-10179095D01*
X6149333Y-10255286D01*
X6149333Y-10369571D01*
X6187428Y-10445762D01*
X6225523Y-10483857D01*
X6301714Y-10521952D01*
X6606476Y-10521952D01*
X5463619Y-10102905D02*
X5616000Y-10102905D01*
X5692190Y-10141000D01*
X5730285Y-10179095D01*
X5806476Y-10293381D01*
X5844571Y-10445762D01*
X5844571Y-10750524D01*
X5806476Y-10826714D01*
X5768381Y-10864810D01*
X5692190Y-10902905D01*
X5539809Y-10902905D01*
X5463619Y-10864810D01*
X5425523Y-10826714D01*
X5387428Y-10750524D01*
X5387428Y-10560048D01*
X5425523Y-10483857D01*
X5463619Y-10445762D01*
X5539809Y-10407667D01*
X5692190Y-10407667D01*
X5768381Y-10445762D01*
X5806476Y-10483857D01*
X5844571Y-10560048D01*
X9645524Y-12261810D02*
X9531238Y-12299905D01*
X9340762Y-12299905D01*
X9264572Y-12261810D01*
X9226476Y-12223714D01*
X9188381Y-12147524D01*
X9188381Y-12071333D01*
X9226476Y-11995143D01*
X9264572Y-11957048D01*
X9340762Y-11918952D01*
X9493143Y-11880857D01*
X9569334Y-11842762D01*
X9607429Y-11804667D01*
X9645524Y-11728476D01*
X9645524Y-11652286D01*
X9607429Y-11576095D01*
X9569334Y-11538000D01*
X9493143Y-11499905D01*
X9302667Y-11499905D01*
X9188381Y-11538000D01*
X8578857Y-11880857D02*
X8464571Y-11918952D01*
X8426476Y-11957048D01*
X8388381Y-12033238D01*
X8388381Y-12147524D01*
X8426476Y-12223714D01*
X8464571Y-12261810D01*
X8540762Y-12299905D01*
X8845524Y-12299905D01*
X8845524Y-11499905D01*
X8578857Y-11499905D01*
X8502667Y-11538000D01*
X8464571Y-11576095D01*
X8426476Y-11652286D01*
X8426476Y-11728476D01*
X8464571Y-11804667D01*
X8502667Y-11842762D01*
X8578857Y-11880857D01*
X8845524Y-11880857D01*
X8121714Y-11499905D02*
X7626476Y-11499905D01*
X7893143Y-11804667D01*
X7778857Y-11804667D01*
X7702667Y-11842762D01*
X7664571Y-11880857D01*
X7626476Y-11957048D01*
X7626476Y-12147524D01*
X7664571Y-12223714D01*
X7702667Y-12261810D01*
X7778857Y-12299905D01*
X8007429Y-12299905D01*
X8083619Y-12261810D01*
X8121714Y-12223714D01*
X3384476Y-12807905D02*
X3384476Y-12007905D01*
X3194000Y-12007905D01*
X3079714Y-12046000D01*
X3003523Y-12122190D01*
X2965428Y-12198381D01*
X2927333Y-12350762D01*
X2927333Y-12465048D01*
X2965428Y-12617429D01*
X3003523Y-12693619D01*
X3079714Y-12769810D01*
X3194000Y-12807905D01*
X3384476Y-12807905D01*
X2165428Y-12807905D02*
X2622571Y-12807905D01*
X2394000Y-12807905D02*
X2394000Y-12007905D01*
X2470190Y-12122190D01*
X2546381Y-12198381D01*
X2622571Y-12236476D01*
X23615524Y-32327810D02*
X23501238Y-32365905D01*
X23310762Y-32365905D01*
X23234572Y-32327810D01*
X23196476Y-32289714D01*
X23158381Y-32213524D01*
X23158381Y-32137333D01*
X23196476Y-32061143D01*
X23234572Y-32023048D01*
X23310762Y-31984952D01*
X23463143Y-31946857D01*
X23539334Y-31908762D01*
X23577429Y-31870667D01*
X23615524Y-31794476D01*
X23615524Y-31718286D01*
X23577429Y-31642095D01*
X23539334Y-31604000D01*
X23463143Y-31565905D01*
X23272667Y-31565905D01*
X23158381Y-31604000D01*
X22548857Y-31946857D02*
X22434571Y-31984952D01*
X22396476Y-32023048D01*
X22358381Y-32099238D01*
X22358381Y-32213524D01*
X22396476Y-32289714D01*
X22434571Y-32327810D01*
X22510762Y-32365905D01*
X22815524Y-32365905D01*
X22815524Y-31565905D01*
X22548857Y-31565905D01*
X22472667Y-31604000D01*
X22434571Y-31642095D01*
X22396476Y-31718286D01*
X22396476Y-31794476D01*
X22434571Y-31870667D01*
X22472667Y-31908762D01*
X22548857Y-31946857D01*
X22815524Y-31946857D01*
X22053619Y-31642095D02*
X22015524Y-31604000D01*
X21939333Y-31565905D01*
X21748857Y-31565905D01*
X21672667Y-31604000D01*
X21634571Y-31642095D01*
X21596476Y-31718286D01*
X21596476Y-31794476D01*
X21634571Y-31908762D01*
X22091714Y-32365905D01*
X21596476Y-32365905D01*
X19189619Y-19373905D02*
X18656286Y-20173905D01*
X18656286Y-19373905D02*
X19189619Y-20173905D01*
X17932476Y-20173905D02*
X18389619Y-20173905D01*
X18161048Y-20173905D02*
X18161048Y-19373905D01*
X18237238Y-19488190D01*
X18313429Y-19564381D01*
X18389619Y-19602476D01*
X22358286Y-12985714D02*
X22396381Y-13023810D01*
X22510667Y-13061905D01*
X22586857Y-13061905D01*
X22701143Y-13023810D01*
X22777334Y-12947619D01*
X22815429Y-12871429D01*
X22853524Y-12719048D01*
X22853524Y-12604762D01*
X22815429Y-12452381D01*
X22777334Y-12376190D01*
X22701143Y-12300000D01*
X22586857Y-12261905D01*
X22510667Y-12261905D01*
X22396381Y-12300000D01*
X22358286Y-12338095D01*
X21596381Y-13061905D02*
X22053524Y-13061905D01*
X21824953Y-13061905D02*
X21824953Y-12261905D01*
X21901143Y-12376190D01*
X21977334Y-12452381D01*
X22053524Y-12490476D01*
X20834476Y-13061905D02*
X21291619Y-13061905D01*
X21063048Y-13061905D02*
X21063048Y-12261905D01*
X21139238Y-12376190D01*
X21215429Y-12452381D01*
X21291619Y-12490476D01*
X22358286Y-20097714D02*
X22396381Y-20135810D01*
X22510667Y-20173905D01*
X22586857Y-20173905D01*
X22701143Y-20135810D01*
X22777334Y-20059619D01*
X22815429Y-19983429D01*
X22853524Y-19831048D01*
X22853524Y-19716762D01*
X22815429Y-19564381D01*
X22777334Y-19488190D01*
X22701143Y-19412000D01*
X22586857Y-19373905D01*
X22510667Y-19373905D01*
X22396381Y-19412000D01*
X22358286Y-19450095D01*
X21596381Y-20173905D02*
X22053524Y-20173905D01*
X21824953Y-20173905D02*
X21824953Y-19373905D01*
X21901143Y-19488190D01*
X21977334Y-19564381D01*
X22053524Y-19602476D01*
X21101143Y-19373905D02*
X21024952Y-19373905D01*
X20948762Y-19412000D01*
X20910667Y-19450095D01*
X20872571Y-19526286D01*
X20834476Y-19678667D01*
X20834476Y-19869143D01*
X20872571Y-20021524D01*
X20910667Y-20097714D01*
X20948762Y-20135810D01*
X21024952Y-20173905D01*
X21101143Y-20173905D01*
X21177333Y-20135810D01*
X21215429Y-20097714D01*
X21253524Y-20021524D01*
X21291619Y-19869143D01*
X21291619Y-19678667D01*
X21253524Y-19526286D01*
X21215429Y-19450095D01*
X21177333Y-19412000D01*
X21101143Y-19373905D01*
X25533333Y-17125905D02*
X25914286Y-17125905D01*
X25914286Y-16325905D01*
X24847619Y-17125905D02*
X25304762Y-17125905D01*
X25076191Y-17125905D02*
X25076191Y-16325905D01*
X25152381Y-16440190D01*
X25228572Y-16516381D01*
X25304762Y-16554476D01*
X14865333Y-8743905D02*
X15132000Y-8362952D01*
X15322476Y-8743905D02*
X15322476Y-7943905D01*
X15017714Y-7943905D01*
X14941523Y-7982000D01*
X14903428Y-8020095D01*
X14865333Y-8096286D01*
X14865333Y-8210571D01*
X14903428Y-8286762D01*
X14941523Y-8324857D01*
X15017714Y-8362952D01*
X15322476Y-8362952D01*
X14103428Y-8743905D02*
X14560571Y-8743905D01*
X14332000Y-8743905D02*
X14332000Y-7943905D01*
X14408190Y-8058190D01*
X14484381Y-8134381D01*
X14560571Y-8172476D01*
X5467333Y-27463714D02*
X5505428Y-27501810D01*
X5619714Y-27539905D01*
X5695904Y-27539905D01*
X5810190Y-27501810D01*
X5886381Y-27425619D01*
X5924476Y-27349429D01*
X5962571Y-27197048D01*
X5962571Y-27082762D01*
X5924476Y-26930381D01*
X5886381Y-26854190D01*
X5810190Y-26778000D01*
X5695904Y-26739905D01*
X5619714Y-26739905D01*
X5505428Y-26778000D01*
X5467333Y-26816095D01*
X5010190Y-27082762D02*
X5086381Y-27044667D01*
X5124476Y-27006571D01*
X5162571Y-26930381D01*
X5162571Y-26892286D01*
X5124476Y-26816095D01*
X5086381Y-26778000D01*
X5010190Y-26739905D01*
X4857809Y-26739905D01*
X4781619Y-26778000D01*
X4743523Y-26816095D01*
X4705428Y-26892286D01*
X4705428Y-26930381D01*
X4743523Y-27006571D01*
X4781619Y-27044667D01*
X4857809Y-27082762D01*
X5010190Y-27082762D01*
X5086381Y-27120857D01*
X5124476Y-27158952D01*
X5162571Y-27235143D01*
X5162571Y-27387524D01*
X5124476Y-27463714D01*
X5086381Y-27501810D01*
X5010190Y-27539905D01*
X4857809Y-27539905D01*
X4781619Y-27501810D01*
X4743523Y-27463714D01*
X4705428Y-27387524D01*
X4705428Y-27235143D01*
X4743523Y-27158952D01*
X4781619Y-27120857D01*
X4857809Y-27082762D01*
X20453333Y-24161714D02*
X20491428Y-24199810D01*
X20605714Y-24237905D01*
X20681904Y-24237905D01*
X20796190Y-24199810D01*
X20872381Y-24123619D01*
X20910476Y-24047429D01*
X20948571Y-23895048D01*
X20948571Y-23780762D01*
X20910476Y-23628381D01*
X20872381Y-23552190D01*
X20796190Y-23476000D01*
X20681904Y-23437905D01*
X20605714Y-23437905D01*
X20491428Y-23476000D01*
X20453333Y-23514095D01*
X20186666Y-23437905D02*
X19653333Y-23437905D01*
X19996190Y-24237905D01*
X18675333Y-8667714D02*
X18713428Y-8705810D01*
X18827714Y-8743905D01*
X18903904Y-8743905D01*
X19018190Y-8705810D01*
X19094381Y-8629619D01*
X19132476Y-8553429D01*
X19170571Y-8401048D01*
X19170571Y-8286762D01*
X19132476Y-8134381D01*
X19094381Y-8058190D01*
X19018190Y-7982000D01*
X18903904Y-7943905D01*
X18827714Y-7943905D01*
X18713428Y-7982000D01*
X18675333Y-8020095D01*
X17989619Y-7943905D02*
X18142000Y-7943905D01*
X18218190Y-7982000D01*
X18256285Y-8020095D01*
X18332476Y-8134381D01*
X18370571Y-8286762D01*
X18370571Y-8591524D01*
X18332476Y-8667714D01*
X18294381Y-8705810D01*
X18218190Y-8743905D01*
X18065809Y-8743905D01*
X17989619Y-8705810D01*
X17951523Y-8667714D01*
X17913428Y-8591524D01*
X17913428Y-8401048D01*
X17951523Y-8324857D01*
X17989619Y-8286762D01*
X18065809Y-8248667D01*
X18218190Y-8248667D01*
X18294381Y-8286762D01*
X18332476Y-8324857D01*
X18370571Y-8401048D01*
X3435333Y-27463714D02*
X3473428Y-27501810D01*
X3587714Y-27539905D01*
X3663904Y-27539905D01*
X3778190Y-27501810D01*
X3854381Y-27425619D01*
X3892476Y-27349429D01*
X3930571Y-27197048D01*
X3930571Y-27082762D01*
X3892476Y-26930381D01*
X3854381Y-26854190D01*
X3778190Y-26778000D01*
X3663904Y-26739905D01*
X3587714Y-26739905D01*
X3473428Y-26778000D01*
X3435333Y-26816095D01*
X2749619Y-27006571D02*
X2749619Y-27539905D01*
X2940095Y-26701810D02*
X3130571Y-27273238D01*
X2635333Y-27273238D01*
X12547524Y-19627905D02*
X12547524Y-20275524D01*
X12509429Y-20351714D01*
X12471333Y-20389810D01*
X12395143Y-20427905D01*
X12242762Y-20427905D01*
X12166571Y-20389810D01*
X12128476Y-20351714D01*
X12090381Y-20275524D01*
X12090381Y-19627905D01*
X11290381Y-20427905D02*
X11747524Y-20427905D01*
X11518953Y-20427905D02*
X11518953Y-19627905D01*
X11595143Y-19742190D01*
X11671334Y-19818381D01*
X11747524Y-19856476D01*
X20453333Y-22129714D02*
X20491428Y-22167810D01*
X20605714Y-22205905D01*
X20681904Y-22205905D01*
X20796190Y-22167810D01*
X20872381Y-22091619D01*
X20910476Y-22015429D01*
X20948571Y-21863048D01*
X20948571Y-21748762D01*
X20910476Y-21596381D01*
X20872381Y-21520190D01*
X20796190Y-21444000D01*
X20681904Y-21405905D01*
X20605714Y-21405905D01*
X20491428Y-21444000D01*
X20453333Y-21482095D01*
X19729523Y-21405905D02*
X20110476Y-21405905D01*
X20148571Y-21786857D01*
X20110476Y-21748762D01*
X20034285Y-21710667D01*
X19843809Y-21710667D01*
X19767619Y-21748762D01*
X19729523Y-21786857D01*
X19691428Y-21863048D01*
X19691428Y-22053524D01*
X19729523Y-22129714D01*
X19767619Y-22167810D01*
X19843809Y-22205905D01*
X20034285Y-22205905D01*
X20110476Y-22167810D01*
X20148571Y-22129714D01*
X13976333Y-31273714D02*
X14014428Y-31311810D01*
X14128714Y-31349905D01*
X14204904Y-31349905D01*
X14319190Y-31311810D01*
X14395381Y-31235619D01*
X14433476Y-31159429D01*
X14471571Y-31007048D01*
X14471571Y-30892762D01*
X14433476Y-30740381D01*
X14395381Y-30664190D01*
X14319190Y-30588000D01*
X14204904Y-30549905D01*
X14128714Y-30549905D01*
X14014428Y-30588000D01*
X13976333Y-30626095D01*
X13709666Y-30549905D02*
X13214428Y-30549905D01*
X13481095Y-30854667D01*
X13366809Y-30854667D01*
X13290619Y-30892762D01*
X13252523Y-30930857D01*
X13214428Y-31007048D01*
X13214428Y-31197524D01*
X13252523Y-31273714D01*
X13290619Y-31311810D01*
X13366809Y-31349905D01*
X13595381Y-31349905D01*
X13671571Y-31311810D01*
X13709666Y-31273714D01*
X18294333Y-31273714D02*
X18332428Y-31311810D01*
X18446714Y-31349905D01*
X18522904Y-31349905D01*
X18637190Y-31311810D01*
X18713381Y-31235619D01*
X18751476Y-31159429D01*
X18789571Y-31007048D01*
X18789571Y-30892762D01*
X18751476Y-30740381D01*
X18713381Y-30664190D01*
X18637190Y-30588000D01*
X18522904Y-30549905D01*
X18446714Y-30549905D01*
X18332428Y-30588000D01*
X18294333Y-30626095D01*
X17532428Y-31349905D02*
X17989571Y-31349905D01*
X17761000Y-31349905D02*
X17761000Y-30549905D01*
X17837190Y-30664190D01*
X17913381Y-30740381D01*
X17989571Y-30778476D01*
X16135333Y-31273714D02*
X16173428Y-31311810D01*
X16287714Y-31349905D01*
X16363904Y-31349905D01*
X16478190Y-31311810D01*
X16554381Y-31235619D01*
X16592476Y-31159429D01*
X16630571Y-31007048D01*
X16630571Y-30892762D01*
X16592476Y-30740381D01*
X16554381Y-30664190D01*
X16478190Y-30588000D01*
X16363904Y-30549905D01*
X16287714Y-30549905D01*
X16173428Y-30588000D01*
X16135333Y-30626095D01*
X15830571Y-30626095D02*
X15792476Y-30588000D01*
X15716285Y-30549905D01*
X15525809Y-30549905D01*
X15449619Y-30588000D01*
X15411523Y-30626095D01*
X15373428Y-30702286D01*
X15373428Y-30778476D01*
X15411523Y-30892762D01*
X15868666Y-31349905D01*
X15373428Y-31349905D01*
X20453333Y-26193714D02*
X20491428Y-26231810D01*
X20605714Y-26269905D01*
X20681904Y-26269905D01*
X20796190Y-26231810D01*
X20872381Y-26155619D01*
X20910476Y-26079429D01*
X20948571Y-25927048D01*
X20948571Y-25812762D01*
X20910476Y-25660381D01*
X20872381Y-25584190D01*
X20796190Y-25508000D01*
X20681904Y-25469905D01*
X20605714Y-25469905D01*
X20491428Y-25508000D01*
X20453333Y-25546095D01*
X20072381Y-26269905D02*
X19920000Y-26269905D01*
X19843809Y-26231810D01*
X19805714Y-26193714D01*
X19729523Y-26079429D01*
X19691428Y-25927048D01*
X19691428Y-25622286D01*
X19729523Y-25546095D01*
X19767619Y-25508000D01*
X19843809Y-25469905D01*
X19996190Y-25469905D01*
X20072381Y-25508000D01*
X20110476Y-25546095D01*
X20148571Y-25622286D01*
X20148571Y-25812762D01*
X20110476Y-25888952D01*
X20072381Y-25927048D01*
X19996190Y-25965143D01*
X19843809Y-25965143D01*
X19767619Y-25927048D01*
X19729523Y-25888952D01*
X19691428Y-25812762D01*
X4387810Y-29785476D02*
X4425905Y-29899762D01*
X4425905Y-30090238D01*
X4387810Y-30166428D01*
X4349714Y-30204524D01*
X4273524Y-30242619D01*
X4197333Y-30242619D01*
X4121143Y-30204524D01*
X4083048Y-30166428D01*
X4044952Y-30090238D01*
X4006857Y-29937857D01*
X3968762Y-29861666D01*
X3930667Y-29823571D01*
X3854476Y-29785476D01*
X3778286Y-29785476D01*
X3702095Y-29823571D01*
X3664000Y-29861666D01*
X3625905Y-29937857D01*
X3625905Y-30128333D01*
X3664000Y-30242619D01*
X4006857Y-30852143D02*
X4044952Y-30966429D01*
X4083048Y-31004524D01*
X4159238Y-31042619D01*
X4273524Y-31042619D01*
X4349714Y-31004524D01*
X4387810Y-30966429D01*
X4425905Y-30890238D01*
X4425905Y-30585476D01*
X3625905Y-30585476D01*
X3625905Y-30852143D01*
X3664000Y-30928333D01*
X3702095Y-30966429D01*
X3778286Y-31004524D01*
X3854476Y-31004524D01*
X3930667Y-30966429D01*
X3968762Y-30928333D01*
X4006857Y-30852143D01*
X4006857Y-30585476D01*
X4425905Y-31804524D02*
X4425905Y-31347381D01*
X4425905Y-31575952D02*
X3625905Y-31575952D01*
X3740190Y-31499762D01*
X3816381Y-31423571D01*
X3854476Y-31347381D01*
M02*
