M48
;DRILL file {KiCad 4.0.5-e0-6337~49~ubuntu16.04.1} date Fri Feb 10 02:02:52 2017
;FORMAT={-:-/ absolute / metric / decimal}
FMAT,2
METRIC,TZ
T1C0.330
T2C0.800
T3C0.900
T4C1.000
T5C1.850
%
G90
G05
M71
T1
X7.62Y-31.242
X7.62Y-32.766
X7.62Y-37.592
X9.144Y-32.766
X9.906Y-26.924
X11.43Y-26.924
X14.732Y-19.05
X16.256Y-24.638
X17.78Y-31.75
X18.034Y-21.082
X18.034Y-23.368
X19.05Y-31.75
X19.304Y-16.256
X20.066Y-21.97
X20.32Y-16.256
X20.32Y-31.75
X20.447Y-37.592
X21.336Y-16.256
X22.352Y-16.256
T2
X6.477Y-35.433
X21.59Y-36.322
X21.971Y-34.163
T3
X26.55Y-28.175
X26.55Y-32.425
X26.554Y-6.511
X26.554Y-10.761
X26.554Y-17.369
X26.554Y-21.619
T4
X6.604Y-4.953
X9.144Y-5.207
X11.684Y-4.953
X14.224Y-5.207
X16.764Y-4.953
X19.304Y-5.207
X21.844Y-4.953
T5
X10.43Y-9.497
X10.43Y-30.607
T0
M30
